G75*
%MOIN*%
%OFA0B0*%
%FSLAX25Y25*%
%IPPOS*%
%LPD*%
%AMOC8*
5,1,8,0,0,1.08239X$1,22.5*
%
%ADD10C,0.00000*%
%ADD11C,0.00600*%
%ADD12C,0.00300*%
%ADD13C,0.00200*%
%ADD14C,0.00400*%
D10*
X0007850Y0024870D02*
X0007850Y0221720D01*
X0007856Y0222196D01*
X0007873Y0222671D01*
X0007902Y0223146D01*
X0007942Y0223620D01*
X0007994Y0224093D01*
X0008057Y0224564D01*
X0008131Y0225034D01*
X0008217Y0225502D01*
X0008314Y0225968D01*
X0008422Y0226431D01*
X0008541Y0226891D01*
X0008672Y0227349D01*
X0008813Y0227803D01*
X0008966Y0228254D01*
X0009129Y0228700D01*
X0009303Y0229143D01*
X0009488Y0229581D01*
X0009683Y0230015D01*
X0009889Y0230444D01*
X0010105Y0230868D01*
X0010331Y0231287D01*
X0010567Y0231700D01*
X0010813Y0232107D01*
X0011069Y0232508D01*
X0011335Y0232902D01*
X0011610Y0233291D01*
X0011894Y0233672D01*
X0012187Y0234046D01*
X0012489Y0234414D01*
X0012801Y0234774D01*
X0013120Y0235126D01*
X0013448Y0235470D01*
X0013785Y0235807D01*
X0014129Y0236135D01*
X0014481Y0236454D01*
X0014841Y0236766D01*
X0015209Y0237068D01*
X0015583Y0237361D01*
X0015964Y0237645D01*
X0016353Y0237920D01*
X0016747Y0238186D01*
X0017148Y0238442D01*
X0017555Y0238688D01*
X0017968Y0238924D01*
X0018387Y0239150D01*
X0018811Y0239366D01*
X0019240Y0239572D01*
X0019674Y0239767D01*
X0020112Y0239952D01*
X0020555Y0240126D01*
X0021001Y0240289D01*
X0021452Y0240442D01*
X0021906Y0240583D01*
X0022364Y0240714D01*
X0022824Y0240833D01*
X0023287Y0240941D01*
X0023753Y0241038D01*
X0024221Y0241124D01*
X0024691Y0241198D01*
X0025162Y0241261D01*
X0025635Y0241313D01*
X0026109Y0241353D01*
X0026584Y0241382D01*
X0027059Y0241399D01*
X0027535Y0241405D01*
X0027535Y0241406D02*
X0185015Y0241406D01*
X0185015Y0241405D02*
X0185491Y0241399D01*
X0185966Y0241382D01*
X0186441Y0241353D01*
X0186915Y0241313D01*
X0187388Y0241261D01*
X0187859Y0241198D01*
X0188329Y0241124D01*
X0188797Y0241038D01*
X0189263Y0240941D01*
X0189726Y0240833D01*
X0190186Y0240714D01*
X0190644Y0240583D01*
X0191098Y0240442D01*
X0191549Y0240289D01*
X0191995Y0240126D01*
X0192438Y0239952D01*
X0192876Y0239767D01*
X0193310Y0239572D01*
X0193739Y0239366D01*
X0194163Y0239150D01*
X0194582Y0238924D01*
X0194995Y0238688D01*
X0195402Y0238442D01*
X0195803Y0238186D01*
X0196197Y0237920D01*
X0196586Y0237645D01*
X0196967Y0237361D01*
X0197341Y0237068D01*
X0197709Y0236766D01*
X0198069Y0236454D01*
X0198421Y0236135D01*
X0198765Y0235807D01*
X0199102Y0235470D01*
X0199430Y0235126D01*
X0199749Y0234774D01*
X0200061Y0234414D01*
X0200363Y0234046D01*
X0200656Y0233672D01*
X0200940Y0233291D01*
X0201215Y0232902D01*
X0201481Y0232508D01*
X0201737Y0232107D01*
X0201983Y0231700D01*
X0202219Y0231287D01*
X0202445Y0230868D01*
X0202661Y0230444D01*
X0202867Y0230015D01*
X0203062Y0229581D01*
X0203247Y0229143D01*
X0203421Y0228700D01*
X0203584Y0228254D01*
X0203737Y0227803D01*
X0203878Y0227349D01*
X0204009Y0226891D01*
X0204128Y0226431D01*
X0204236Y0225968D01*
X0204333Y0225502D01*
X0204419Y0225034D01*
X0204493Y0224564D01*
X0204556Y0224093D01*
X0204608Y0223620D01*
X0204648Y0223146D01*
X0204677Y0222671D01*
X0204694Y0222196D01*
X0204700Y0221720D01*
X0204700Y0024870D01*
X0204694Y0024394D01*
X0204677Y0023919D01*
X0204648Y0023444D01*
X0204608Y0022970D01*
X0204556Y0022497D01*
X0204493Y0022026D01*
X0204419Y0021556D01*
X0204333Y0021088D01*
X0204236Y0020622D01*
X0204128Y0020159D01*
X0204009Y0019699D01*
X0203878Y0019241D01*
X0203737Y0018787D01*
X0203584Y0018336D01*
X0203421Y0017890D01*
X0203247Y0017447D01*
X0203062Y0017009D01*
X0202867Y0016575D01*
X0202661Y0016146D01*
X0202445Y0015722D01*
X0202219Y0015303D01*
X0201983Y0014890D01*
X0201737Y0014483D01*
X0201481Y0014082D01*
X0201215Y0013688D01*
X0200940Y0013299D01*
X0200656Y0012918D01*
X0200363Y0012544D01*
X0200061Y0012176D01*
X0199749Y0011816D01*
X0199430Y0011464D01*
X0199102Y0011120D01*
X0198765Y0010783D01*
X0198421Y0010455D01*
X0198069Y0010136D01*
X0197709Y0009824D01*
X0197341Y0009522D01*
X0196967Y0009229D01*
X0196586Y0008945D01*
X0196197Y0008670D01*
X0195803Y0008404D01*
X0195402Y0008148D01*
X0194995Y0007902D01*
X0194582Y0007666D01*
X0194163Y0007440D01*
X0193739Y0007224D01*
X0193310Y0007018D01*
X0192876Y0006823D01*
X0192438Y0006638D01*
X0191995Y0006464D01*
X0191549Y0006301D01*
X0191098Y0006148D01*
X0190644Y0006007D01*
X0190186Y0005876D01*
X0189726Y0005757D01*
X0189263Y0005649D01*
X0188797Y0005552D01*
X0188329Y0005466D01*
X0187859Y0005392D01*
X0187388Y0005329D01*
X0186915Y0005277D01*
X0186441Y0005237D01*
X0185966Y0005208D01*
X0185491Y0005191D01*
X0185015Y0005185D01*
X0027535Y0005185D01*
X0027059Y0005191D01*
X0026584Y0005208D01*
X0026109Y0005237D01*
X0025635Y0005277D01*
X0025162Y0005329D01*
X0024691Y0005392D01*
X0024221Y0005466D01*
X0023753Y0005552D01*
X0023287Y0005649D01*
X0022824Y0005757D01*
X0022364Y0005876D01*
X0021906Y0006007D01*
X0021452Y0006148D01*
X0021001Y0006301D01*
X0020555Y0006464D01*
X0020112Y0006638D01*
X0019674Y0006823D01*
X0019240Y0007018D01*
X0018811Y0007224D01*
X0018387Y0007440D01*
X0017968Y0007666D01*
X0017555Y0007902D01*
X0017148Y0008148D01*
X0016747Y0008404D01*
X0016353Y0008670D01*
X0015964Y0008945D01*
X0015583Y0009229D01*
X0015209Y0009522D01*
X0014841Y0009824D01*
X0014481Y0010136D01*
X0014129Y0010455D01*
X0013785Y0010783D01*
X0013448Y0011120D01*
X0013120Y0011464D01*
X0012801Y0011816D01*
X0012489Y0012176D01*
X0012187Y0012544D01*
X0011894Y0012918D01*
X0011610Y0013299D01*
X0011335Y0013688D01*
X0011069Y0014082D01*
X0010813Y0014483D01*
X0010567Y0014890D01*
X0010331Y0015303D01*
X0010105Y0015722D01*
X0009889Y0016146D01*
X0009683Y0016575D01*
X0009488Y0017009D01*
X0009303Y0017447D01*
X0009129Y0017890D01*
X0008966Y0018336D01*
X0008813Y0018787D01*
X0008672Y0019241D01*
X0008541Y0019699D01*
X0008422Y0020159D01*
X0008314Y0020622D01*
X0008217Y0021088D01*
X0008131Y0021556D01*
X0008057Y0022026D01*
X0007994Y0022497D01*
X0007942Y0022970D01*
X0007902Y0023444D01*
X0007873Y0023919D01*
X0007856Y0024394D01*
X0007850Y0024870D01*
X0021944Y0025185D02*
X0021946Y0025338D01*
X0021952Y0025492D01*
X0021962Y0025645D01*
X0021976Y0025797D01*
X0021994Y0025950D01*
X0022016Y0026101D01*
X0022041Y0026252D01*
X0022071Y0026403D01*
X0022105Y0026553D01*
X0022142Y0026701D01*
X0022183Y0026849D01*
X0022228Y0026995D01*
X0022277Y0027141D01*
X0022330Y0027285D01*
X0022386Y0027427D01*
X0022446Y0027568D01*
X0022510Y0027708D01*
X0022577Y0027846D01*
X0022648Y0027982D01*
X0022723Y0028116D01*
X0022800Y0028248D01*
X0022882Y0028378D01*
X0022966Y0028506D01*
X0023054Y0028632D01*
X0023145Y0028755D01*
X0023239Y0028876D01*
X0023337Y0028994D01*
X0023437Y0029110D01*
X0023541Y0029223D01*
X0023647Y0029334D01*
X0023756Y0029442D01*
X0023868Y0029547D01*
X0023982Y0029648D01*
X0024100Y0029747D01*
X0024219Y0029843D01*
X0024341Y0029936D01*
X0024466Y0030025D01*
X0024593Y0030112D01*
X0024722Y0030194D01*
X0024853Y0030274D01*
X0024986Y0030350D01*
X0025121Y0030423D01*
X0025258Y0030492D01*
X0025397Y0030557D01*
X0025537Y0030619D01*
X0025679Y0030677D01*
X0025822Y0030732D01*
X0025967Y0030783D01*
X0026113Y0030830D01*
X0026260Y0030873D01*
X0026408Y0030912D01*
X0026557Y0030948D01*
X0026707Y0030979D01*
X0026858Y0031007D01*
X0027009Y0031031D01*
X0027162Y0031051D01*
X0027314Y0031067D01*
X0027467Y0031079D01*
X0027620Y0031087D01*
X0027773Y0031091D01*
X0027927Y0031091D01*
X0028080Y0031087D01*
X0028233Y0031079D01*
X0028386Y0031067D01*
X0028538Y0031051D01*
X0028691Y0031031D01*
X0028842Y0031007D01*
X0028993Y0030979D01*
X0029143Y0030948D01*
X0029292Y0030912D01*
X0029440Y0030873D01*
X0029587Y0030830D01*
X0029733Y0030783D01*
X0029878Y0030732D01*
X0030021Y0030677D01*
X0030163Y0030619D01*
X0030303Y0030557D01*
X0030442Y0030492D01*
X0030579Y0030423D01*
X0030714Y0030350D01*
X0030847Y0030274D01*
X0030978Y0030194D01*
X0031107Y0030112D01*
X0031234Y0030025D01*
X0031359Y0029936D01*
X0031481Y0029843D01*
X0031600Y0029747D01*
X0031718Y0029648D01*
X0031832Y0029547D01*
X0031944Y0029442D01*
X0032053Y0029334D01*
X0032159Y0029223D01*
X0032263Y0029110D01*
X0032363Y0028994D01*
X0032461Y0028876D01*
X0032555Y0028755D01*
X0032646Y0028632D01*
X0032734Y0028506D01*
X0032818Y0028378D01*
X0032900Y0028248D01*
X0032977Y0028116D01*
X0033052Y0027982D01*
X0033123Y0027846D01*
X0033190Y0027708D01*
X0033254Y0027568D01*
X0033314Y0027427D01*
X0033370Y0027285D01*
X0033423Y0027141D01*
X0033472Y0026995D01*
X0033517Y0026849D01*
X0033558Y0026701D01*
X0033595Y0026553D01*
X0033629Y0026403D01*
X0033659Y0026252D01*
X0033684Y0026101D01*
X0033706Y0025950D01*
X0033724Y0025797D01*
X0033738Y0025645D01*
X0033748Y0025492D01*
X0033754Y0025338D01*
X0033756Y0025185D01*
X0033754Y0025032D01*
X0033748Y0024878D01*
X0033738Y0024725D01*
X0033724Y0024573D01*
X0033706Y0024420D01*
X0033684Y0024269D01*
X0033659Y0024118D01*
X0033629Y0023967D01*
X0033595Y0023817D01*
X0033558Y0023669D01*
X0033517Y0023521D01*
X0033472Y0023375D01*
X0033423Y0023229D01*
X0033370Y0023085D01*
X0033314Y0022943D01*
X0033254Y0022802D01*
X0033190Y0022662D01*
X0033123Y0022524D01*
X0033052Y0022388D01*
X0032977Y0022254D01*
X0032900Y0022122D01*
X0032818Y0021992D01*
X0032734Y0021864D01*
X0032646Y0021738D01*
X0032555Y0021615D01*
X0032461Y0021494D01*
X0032363Y0021376D01*
X0032263Y0021260D01*
X0032159Y0021147D01*
X0032053Y0021036D01*
X0031944Y0020928D01*
X0031832Y0020823D01*
X0031718Y0020722D01*
X0031600Y0020623D01*
X0031481Y0020527D01*
X0031359Y0020434D01*
X0031234Y0020345D01*
X0031107Y0020258D01*
X0030978Y0020176D01*
X0030847Y0020096D01*
X0030714Y0020020D01*
X0030579Y0019947D01*
X0030442Y0019878D01*
X0030303Y0019813D01*
X0030163Y0019751D01*
X0030021Y0019693D01*
X0029878Y0019638D01*
X0029733Y0019587D01*
X0029587Y0019540D01*
X0029440Y0019497D01*
X0029292Y0019458D01*
X0029143Y0019422D01*
X0028993Y0019391D01*
X0028842Y0019363D01*
X0028691Y0019339D01*
X0028538Y0019319D01*
X0028386Y0019303D01*
X0028233Y0019291D01*
X0028080Y0019283D01*
X0027927Y0019279D01*
X0027773Y0019279D01*
X0027620Y0019283D01*
X0027467Y0019291D01*
X0027314Y0019303D01*
X0027162Y0019319D01*
X0027009Y0019339D01*
X0026858Y0019363D01*
X0026707Y0019391D01*
X0026557Y0019422D01*
X0026408Y0019458D01*
X0026260Y0019497D01*
X0026113Y0019540D01*
X0025967Y0019587D01*
X0025822Y0019638D01*
X0025679Y0019693D01*
X0025537Y0019751D01*
X0025397Y0019813D01*
X0025258Y0019878D01*
X0025121Y0019947D01*
X0024986Y0020020D01*
X0024853Y0020096D01*
X0024722Y0020176D01*
X0024593Y0020258D01*
X0024466Y0020345D01*
X0024341Y0020434D01*
X0024219Y0020527D01*
X0024100Y0020623D01*
X0023982Y0020722D01*
X0023868Y0020823D01*
X0023756Y0020928D01*
X0023647Y0021036D01*
X0023541Y0021147D01*
X0023437Y0021260D01*
X0023337Y0021376D01*
X0023239Y0021494D01*
X0023145Y0021615D01*
X0023054Y0021738D01*
X0022966Y0021864D01*
X0022882Y0021992D01*
X0022800Y0022122D01*
X0022723Y0022254D01*
X0022648Y0022388D01*
X0022577Y0022524D01*
X0022510Y0022662D01*
X0022446Y0022802D01*
X0022386Y0022943D01*
X0022330Y0023085D01*
X0022277Y0023229D01*
X0022228Y0023375D01*
X0022183Y0023521D01*
X0022142Y0023669D01*
X0022105Y0023817D01*
X0022071Y0023967D01*
X0022041Y0024118D01*
X0022016Y0024269D01*
X0021994Y0024420D01*
X0021976Y0024573D01*
X0021962Y0024725D01*
X0021952Y0024878D01*
X0021946Y0025032D01*
X0021944Y0025185D01*
X0121650Y0142685D02*
X0121652Y0142754D01*
X0121658Y0142822D01*
X0121668Y0142890D01*
X0121681Y0142957D01*
X0121699Y0143023D01*
X0121720Y0143088D01*
X0121745Y0143152D01*
X0121773Y0143214D01*
X0121805Y0143275D01*
X0121840Y0143334D01*
X0121879Y0143390D01*
X0121921Y0143445D01*
X0121966Y0143496D01*
X0122014Y0143546D01*
X0122064Y0143592D01*
X0122117Y0143635D01*
X0122173Y0143676D01*
X0122230Y0143713D01*
X0122290Y0143746D01*
X0122352Y0143777D01*
X0122415Y0143803D01*
X0122479Y0143826D01*
X0122545Y0143846D01*
X0122612Y0143861D01*
X0122679Y0143873D01*
X0122747Y0143881D01*
X0122816Y0143885D01*
X0122884Y0143885D01*
X0122953Y0143881D01*
X0123021Y0143873D01*
X0123088Y0143861D01*
X0123155Y0143846D01*
X0123221Y0143826D01*
X0123285Y0143803D01*
X0123348Y0143777D01*
X0123410Y0143746D01*
X0123470Y0143713D01*
X0123527Y0143676D01*
X0123583Y0143635D01*
X0123636Y0143592D01*
X0123686Y0143546D01*
X0123734Y0143496D01*
X0123779Y0143445D01*
X0123821Y0143390D01*
X0123860Y0143334D01*
X0123895Y0143275D01*
X0123927Y0143214D01*
X0123955Y0143152D01*
X0123980Y0143088D01*
X0124001Y0143023D01*
X0124019Y0142957D01*
X0124032Y0142890D01*
X0124042Y0142822D01*
X0124048Y0142754D01*
X0124050Y0142685D01*
X0176944Y0220185D02*
X0176946Y0220338D01*
X0176952Y0220492D01*
X0176962Y0220645D01*
X0176976Y0220797D01*
X0176994Y0220950D01*
X0177016Y0221101D01*
X0177041Y0221252D01*
X0177071Y0221403D01*
X0177105Y0221553D01*
X0177142Y0221701D01*
X0177183Y0221849D01*
X0177228Y0221995D01*
X0177277Y0222141D01*
X0177330Y0222285D01*
X0177386Y0222427D01*
X0177446Y0222568D01*
X0177510Y0222708D01*
X0177577Y0222846D01*
X0177648Y0222982D01*
X0177723Y0223116D01*
X0177800Y0223248D01*
X0177882Y0223378D01*
X0177966Y0223506D01*
X0178054Y0223632D01*
X0178145Y0223755D01*
X0178239Y0223876D01*
X0178337Y0223994D01*
X0178437Y0224110D01*
X0178541Y0224223D01*
X0178647Y0224334D01*
X0178756Y0224442D01*
X0178868Y0224547D01*
X0178982Y0224648D01*
X0179100Y0224747D01*
X0179219Y0224843D01*
X0179341Y0224936D01*
X0179466Y0225025D01*
X0179593Y0225112D01*
X0179722Y0225194D01*
X0179853Y0225274D01*
X0179986Y0225350D01*
X0180121Y0225423D01*
X0180258Y0225492D01*
X0180397Y0225557D01*
X0180537Y0225619D01*
X0180679Y0225677D01*
X0180822Y0225732D01*
X0180967Y0225783D01*
X0181113Y0225830D01*
X0181260Y0225873D01*
X0181408Y0225912D01*
X0181557Y0225948D01*
X0181707Y0225979D01*
X0181858Y0226007D01*
X0182009Y0226031D01*
X0182162Y0226051D01*
X0182314Y0226067D01*
X0182467Y0226079D01*
X0182620Y0226087D01*
X0182773Y0226091D01*
X0182927Y0226091D01*
X0183080Y0226087D01*
X0183233Y0226079D01*
X0183386Y0226067D01*
X0183538Y0226051D01*
X0183691Y0226031D01*
X0183842Y0226007D01*
X0183993Y0225979D01*
X0184143Y0225948D01*
X0184292Y0225912D01*
X0184440Y0225873D01*
X0184587Y0225830D01*
X0184733Y0225783D01*
X0184878Y0225732D01*
X0185021Y0225677D01*
X0185163Y0225619D01*
X0185303Y0225557D01*
X0185442Y0225492D01*
X0185579Y0225423D01*
X0185714Y0225350D01*
X0185847Y0225274D01*
X0185978Y0225194D01*
X0186107Y0225112D01*
X0186234Y0225025D01*
X0186359Y0224936D01*
X0186481Y0224843D01*
X0186600Y0224747D01*
X0186718Y0224648D01*
X0186832Y0224547D01*
X0186944Y0224442D01*
X0187053Y0224334D01*
X0187159Y0224223D01*
X0187263Y0224110D01*
X0187363Y0223994D01*
X0187461Y0223876D01*
X0187555Y0223755D01*
X0187646Y0223632D01*
X0187734Y0223506D01*
X0187818Y0223378D01*
X0187900Y0223248D01*
X0187977Y0223116D01*
X0188052Y0222982D01*
X0188123Y0222846D01*
X0188190Y0222708D01*
X0188254Y0222568D01*
X0188314Y0222427D01*
X0188370Y0222285D01*
X0188423Y0222141D01*
X0188472Y0221995D01*
X0188517Y0221849D01*
X0188558Y0221701D01*
X0188595Y0221553D01*
X0188629Y0221403D01*
X0188659Y0221252D01*
X0188684Y0221101D01*
X0188706Y0220950D01*
X0188724Y0220797D01*
X0188738Y0220645D01*
X0188748Y0220492D01*
X0188754Y0220338D01*
X0188756Y0220185D01*
X0188754Y0220032D01*
X0188748Y0219878D01*
X0188738Y0219725D01*
X0188724Y0219573D01*
X0188706Y0219420D01*
X0188684Y0219269D01*
X0188659Y0219118D01*
X0188629Y0218967D01*
X0188595Y0218817D01*
X0188558Y0218669D01*
X0188517Y0218521D01*
X0188472Y0218375D01*
X0188423Y0218229D01*
X0188370Y0218085D01*
X0188314Y0217943D01*
X0188254Y0217802D01*
X0188190Y0217662D01*
X0188123Y0217524D01*
X0188052Y0217388D01*
X0187977Y0217254D01*
X0187900Y0217122D01*
X0187818Y0216992D01*
X0187734Y0216864D01*
X0187646Y0216738D01*
X0187555Y0216615D01*
X0187461Y0216494D01*
X0187363Y0216376D01*
X0187263Y0216260D01*
X0187159Y0216147D01*
X0187053Y0216036D01*
X0186944Y0215928D01*
X0186832Y0215823D01*
X0186718Y0215722D01*
X0186600Y0215623D01*
X0186481Y0215527D01*
X0186359Y0215434D01*
X0186234Y0215345D01*
X0186107Y0215258D01*
X0185978Y0215176D01*
X0185847Y0215096D01*
X0185714Y0215020D01*
X0185579Y0214947D01*
X0185442Y0214878D01*
X0185303Y0214813D01*
X0185163Y0214751D01*
X0185021Y0214693D01*
X0184878Y0214638D01*
X0184733Y0214587D01*
X0184587Y0214540D01*
X0184440Y0214497D01*
X0184292Y0214458D01*
X0184143Y0214422D01*
X0183993Y0214391D01*
X0183842Y0214363D01*
X0183691Y0214339D01*
X0183538Y0214319D01*
X0183386Y0214303D01*
X0183233Y0214291D01*
X0183080Y0214283D01*
X0182927Y0214279D01*
X0182773Y0214279D01*
X0182620Y0214283D01*
X0182467Y0214291D01*
X0182314Y0214303D01*
X0182162Y0214319D01*
X0182009Y0214339D01*
X0181858Y0214363D01*
X0181707Y0214391D01*
X0181557Y0214422D01*
X0181408Y0214458D01*
X0181260Y0214497D01*
X0181113Y0214540D01*
X0180967Y0214587D01*
X0180822Y0214638D01*
X0180679Y0214693D01*
X0180537Y0214751D01*
X0180397Y0214813D01*
X0180258Y0214878D01*
X0180121Y0214947D01*
X0179986Y0215020D01*
X0179853Y0215096D01*
X0179722Y0215176D01*
X0179593Y0215258D01*
X0179466Y0215345D01*
X0179341Y0215434D01*
X0179219Y0215527D01*
X0179100Y0215623D01*
X0178982Y0215722D01*
X0178868Y0215823D01*
X0178756Y0215928D01*
X0178647Y0216036D01*
X0178541Y0216147D01*
X0178437Y0216260D01*
X0178337Y0216376D01*
X0178239Y0216494D01*
X0178145Y0216615D01*
X0178054Y0216738D01*
X0177966Y0216864D01*
X0177882Y0216992D01*
X0177800Y0217122D01*
X0177723Y0217254D01*
X0177648Y0217388D01*
X0177577Y0217524D01*
X0177510Y0217662D01*
X0177446Y0217802D01*
X0177386Y0217943D01*
X0177330Y0218085D01*
X0177277Y0218229D01*
X0177228Y0218375D01*
X0177183Y0218521D01*
X0177142Y0218669D01*
X0177105Y0218817D01*
X0177071Y0218967D01*
X0177041Y0219118D01*
X0177016Y0219269D01*
X0176994Y0219420D01*
X0176976Y0219573D01*
X0176962Y0219725D01*
X0176952Y0219878D01*
X0176946Y0220032D01*
X0176944Y0220185D01*
X0021944Y0220185D02*
X0021946Y0220338D01*
X0021952Y0220492D01*
X0021962Y0220645D01*
X0021976Y0220797D01*
X0021994Y0220950D01*
X0022016Y0221101D01*
X0022041Y0221252D01*
X0022071Y0221403D01*
X0022105Y0221553D01*
X0022142Y0221701D01*
X0022183Y0221849D01*
X0022228Y0221995D01*
X0022277Y0222141D01*
X0022330Y0222285D01*
X0022386Y0222427D01*
X0022446Y0222568D01*
X0022510Y0222708D01*
X0022577Y0222846D01*
X0022648Y0222982D01*
X0022723Y0223116D01*
X0022800Y0223248D01*
X0022882Y0223378D01*
X0022966Y0223506D01*
X0023054Y0223632D01*
X0023145Y0223755D01*
X0023239Y0223876D01*
X0023337Y0223994D01*
X0023437Y0224110D01*
X0023541Y0224223D01*
X0023647Y0224334D01*
X0023756Y0224442D01*
X0023868Y0224547D01*
X0023982Y0224648D01*
X0024100Y0224747D01*
X0024219Y0224843D01*
X0024341Y0224936D01*
X0024466Y0225025D01*
X0024593Y0225112D01*
X0024722Y0225194D01*
X0024853Y0225274D01*
X0024986Y0225350D01*
X0025121Y0225423D01*
X0025258Y0225492D01*
X0025397Y0225557D01*
X0025537Y0225619D01*
X0025679Y0225677D01*
X0025822Y0225732D01*
X0025967Y0225783D01*
X0026113Y0225830D01*
X0026260Y0225873D01*
X0026408Y0225912D01*
X0026557Y0225948D01*
X0026707Y0225979D01*
X0026858Y0226007D01*
X0027009Y0226031D01*
X0027162Y0226051D01*
X0027314Y0226067D01*
X0027467Y0226079D01*
X0027620Y0226087D01*
X0027773Y0226091D01*
X0027927Y0226091D01*
X0028080Y0226087D01*
X0028233Y0226079D01*
X0028386Y0226067D01*
X0028538Y0226051D01*
X0028691Y0226031D01*
X0028842Y0226007D01*
X0028993Y0225979D01*
X0029143Y0225948D01*
X0029292Y0225912D01*
X0029440Y0225873D01*
X0029587Y0225830D01*
X0029733Y0225783D01*
X0029878Y0225732D01*
X0030021Y0225677D01*
X0030163Y0225619D01*
X0030303Y0225557D01*
X0030442Y0225492D01*
X0030579Y0225423D01*
X0030714Y0225350D01*
X0030847Y0225274D01*
X0030978Y0225194D01*
X0031107Y0225112D01*
X0031234Y0225025D01*
X0031359Y0224936D01*
X0031481Y0224843D01*
X0031600Y0224747D01*
X0031718Y0224648D01*
X0031832Y0224547D01*
X0031944Y0224442D01*
X0032053Y0224334D01*
X0032159Y0224223D01*
X0032263Y0224110D01*
X0032363Y0223994D01*
X0032461Y0223876D01*
X0032555Y0223755D01*
X0032646Y0223632D01*
X0032734Y0223506D01*
X0032818Y0223378D01*
X0032900Y0223248D01*
X0032977Y0223116D01*
X0033052Y0222982D01*
X0033123Y0222846D01*
X0033190Y0222708D01*
X0033254Y0222568D01*
X0033314Y0222427D01*
X0033370Y0222285D01*
X0033423Y0222141D01*
X0033472Y0221995D01*
X0033517Y0221849D01*
X0033558Y0221701D01*
X0033595Y0221553D01*
X0033629Y0221403D01*
X0033659Y0221252D01*
X0033684Y0221101D01*
X0033706Y0220950D01*
X0033724Y0220797D01*
X0033738Y0220645D01*
X0033748Y0220492D01*
X0033754Y0220338D01*
X0033756Y0220185D01*
X0033754Y0220032D01*
X0033748Y0219878D01*
X0033738Y0219725D01*
X0033724Y0219573D01*
X0033706Y0219420D01*
X0033684Y0219269D01*
X0033659Y0219118D01*
X0033629Y0218967D01*
X0033595Y0218817D01*
X0033558Y0218669D01*
X0033517Y0218521D01*
X0033472Y0218375D01*
X0033423Y0218229D01*
X0033370Y0218085D01*
X0033314Y0217943D01*
X0033254Y0217802D01*
X0033190Y0217662D01*
X0033123Y0217524D01*
X0033052Y0217388D01*
X0032977Y0217254D01*
X0032900Y0217122D01*
X0032818Y0216992D01*
X0032734Y0216864D01*
X0032646Y0216738D01*
X0032555Y0216615D01*
X0032461Y0216494D01*
X0032363Y0216376D01*
X0032263Y0216260D01*
X0032159Y0216147D01*
X0032053Y0216036D01*
X0031944Y0215928D01*
X0031832Y0215823D01*
X0031718Y0215722D01*
X0031600Y0215623D01*
X0031481Y0215527D01*
X0031359Y0215434D01*
X0031234Y0215345D01*
X0031107Y0215258D01*
X0030978Y0215176D01*
X0030847Y0215096D01*
X0030714Y0215020D01*
X0030579Y0214947D01*
X0030442Y0214878D01*
X0030303Y0214813D01*
X0030163Y0214751D01*
X0030021Y0214693D01*
X0029878Y0214638D01*
X0029733Y0214587D01*
X0029587Y0214540D01*
X0029440Y0214497D01*
X0029292Y0214458D01*
X0029143Y0214422D01*
X0028993Y0214391D01*
X0028842Y0214363D01*
X0028691Y0214339D01*
X0028538Y0214319D01*
X0028386Y0214303D01*
X0028233Y0214291D01*
X0028080Y0214283D01*
X0027927Y0214279D01*
X0027773Y0214279D01*
X0027620Y0214283D01*
X0027467Y0214291D01*
X0027314Y0214303D01*
X0027162Y0214319D01*
X0027009Y0214339D01*
X0026858Y0214363D01*
X0026707Y0214391D01*
X0026557Y0214422D01*
X0026408Y0214458D01*
X0026260Y0214497D01*
X0026113Y0214540D01*
X0025967Y0214587D01*
X0025822Y0214638D01*
X0025679Y0214693D01*
X0025537Y0214751D01*
X0025397Y0214813D01*
X0025258Y0214878D01*
X0025121Y0214947D01*
X0024986Y0215020D01*
X0024853Y0215096D01*
X0024722Y0215176D01*
X0024593Y0215258D01*
X0024466Y0215345D01*
X0024341Y0215434D01*
X0024219Y0215527D01*
X0024100Y0215623D01*
X0023982Y0215722D01*
X0023868Y0215823D01*
X0023756Y0215928D01*
X0023647Y0216036D01*
X0023541Y0216147D01*
X0023437Y0216260D01*
X0023337Y0216376D01*
X0023239Y0216494D01*
X0023145Y0216615D01*
X0023054Y0216738D01*
X0022966Y0216864D01*
X0022882Y0216992D01*
X0022800Y0217122D01*
X0022723Y0217254D01*
X0022648Y0217388D01*
X0022577Y0217524D01*
X0022510Y0217662D01*
X0022446Y0217802D01*
X0022386Y0217943D01*
X0022330Y0218085D01*
X0022277Y0218229D01*
X0022228Y0218375D01*
X0022183Y0218521D01*
X0022142Y0218669D01*
X0022105Y0218817D01*
X0022071Y0218967D01*
X0022041Y0219118D01*
X0022016Y0219269D01*
X0021994Y0219420D01*
X0021976Y0219573D01*
X0021962Y0219725D01*
X0021952Y0219878D01*
X0021946Y0220032D01*
X0021944Y0220185D01*
X0176944Y0025185D02*
X0176946Y0025338D01*
X0176952Y0025492D01*
X0176962Y0025645D01*
X0176976Y0025797D01*
X0176994Y0025950D01*
X0177016Y0026101D01*
X0177041Y0026252D01*
X0177071Y0026403D01*
X0177105Y0026553D01*
X0177142Y0026701D01*
X0177183Y0026849D01*
X0177228Y0026995D01*
X0177277Y0027141D01*
X0177330Y0027285D01*
X0177386Y0027427D01*
X0177446Y0027568D01*
X0177510Y0027708D01*
X0177577Y0027846D01*
X0177648Y0027982D01*
X0177723Y0028116D01*
X0177800Y0028248D01*
X0177882Y0028378D01*
X0177966Y0028506D01*
X0178054Y0028632D01*
X0178145Y0028755D01*
X0178239Y0028876D01*
X0178337Y0028994D01*
X0178437Y0029110D01*
X0178541Y0029223D01*
X0178647Y0029334D01*
X0178756Y0029442D01*
X0178868Y0029547D01*
X0178982Y0029648D01*
X0179100Y0029747D01*
X0179219Y0029843D01*
X0179341Y0029936D01*
X0179466Y0030025D01*
X0179593Y0030112D01*
X0179722Y0030194D01*
X0179853Y0030274D01*
X0179986Y0030350D01*
X0180121Y0030423D01*
X0180258Y0030492D01*
X0180397Y0030557D01*
X0180537Y0030619D01*
X0180679Y0030677D01*
X0180822Y0030732D01*
X0180967Y0030783D01*
X0181113Y0030830D01*
X0181260Y0030873D01*
X0181408Y0030912D01*
X0181557Y0030948D01*
X0181707Y0030979D01*
X0181858Y0031007D01*
X0182009Y0031031D01*
X0182162Y0031051D01*
X0182314Y0031067D01*
X0182467Y0031079D01*
X0182620Y0031087D01*
X0182773Y0031091D01*
X0182927Y0031091D01*
X0183080Y0031087D01*
X0183233Y0031079D01*
X0183386Y0031067D01*
X0183538Y0031051D01*
X0183691Y0031031D01*
X0183842Y0031007D01*
X0183993Y0030979D01*
X0184143Y0030948D01*
X0184292Y0030912D01*
X0184440Y0030873D01*
X0184587Y0030830D01*
X0184733Y0030783D01*
X0184878Y0030732D01*
X0185021Y0030677D01*
X0185163Y0030619D01*
X0185303Y0030557D01*
X0185442Y0030492D01*
X0185579Y0030423D01*
X0185714Y0030350D01*
X0185847Y0030274D01*
X0185978Y0030194D01*
X0186107Y0030112D01*
X0186234Y0030025D01*
X0186359Y0029936D01*
X0186481Y0029843D01*
X0186600Y0029747D01*
X0186718Y0029648D01*
X0186832Y0029547D01*
X0186944Y0029442D01*
X0187053Y0029334D01*
X0187159Y0029223D01*
X0187263Y0029110D01*
X0187363Y0028994D01*
X0187461Y0028876D01*
X0187555Y0028755D01*
X0187646Y0028632D01*
X0187734Y0028506D01*
X0187818Y0028378D01*
X0187900Y0028248D01*
X0187977Y0028116D01*
X0188052Y0027982D01*
X0188123Y0027846D01*
X0188190Y0027708D01*
X0188254Y0027568D01*
X0188314Y0027427D01*
X0188370Y0027285D01*
X0188423Y0027141D01*
X0188472Y0026995D01*
X0188517Y0026849D01*
X0188558Y0026701D01*
X0188595Y0026553D01*
X0188629Y0026403D01*
X0188659Y0026252D01*
X0188684Y0026101D01*
X0188706Y0025950D01*
X0188724Y0025797D01*
X0188738Y0025645D01*
X0188748Y0025492D01*
X0188754Y0025338D01*
X0188756Y0025185D01*
X0188754Y0025032D01*
X0188748Y0024878D01*
X0188738Y0024725D01*
X0188724Y0024573D01*
X0188706Y0024420D01*
X0188684Y0024269D01*
X0188659Y0024118D01*
X0188629Y0023967D01*
X0188595Y0023817D01*
X0188558Y0023669D01*
X0188517Y0023521D01*
X0188472Y0023375D01*
X0188423Y0023229D01*
X0188370Y0023085D01*
X0188314Y0022943D01*
X0188254Y0022802D01*
X0188190Y0022662D01*
X0188123Y0022524D01*
X0188052Y0022388D01*
X0187977Y0022254D01*
X0187900Y0022122D01*
X0187818Y0021992D01*
X0187734Y0021864D01*
X0187646Y0021738D01*
X0187555Y0021615D01*
X0187461Y0021494D01*
X0187363Y0021376D01*
X0187263Y0021260D01*
X0187159Y0021147D01*
X0187053Y0021036D01*
X0186944Y0020928D01*
X0186832Y0020823D01*
X0186718Y0020722D01*
X0186600Y0020623D01*
X0186481Y0020527D01*
X0186359Y0020434D01*
X0186234Y0020345D01*
X0186107Y0020258D01*
X0185978Y0020176D01*
X0185847Y0020096D01*
X0185714Y0020020D01*
X0185579Y0019947D01*
X0185442Y0019878D01*
X0185303Y0019813D01*
X0185163Y0019751D01*
X0185021Y0019693D01*
X0184878Y0019638D01*
X0184733Y0019587D01*
X0184587Y0019540D01*
X0184440Y0019497D01*
X0184292Y0019458D01*
X0184143Y0019422D01*
X0183993Y0019391D01*
X0183842Y0019363D01*
X0183691Y0019339D01*
X0183538Y0019319D01*
X0183386Y0019303D01*
X0183233Y0019291D01*
X0183080Y0019283D01*
X0182927Y0019279D01*
X0182773Y0019279D01*
X0182620Y0019283D01*
X0182467Y0019291D01*
X0182314Y0019303D01*
X0182162Y0019319D01*
X0182009Y0019339D01*
X0181858Y0019363D01*
X0181707Y0019391D01*
X0181557Y0019422D01*
X0181408Y0019458D01*
X0181260Y0019497D01*
X0181113Y0019540D01*
X0180967Y0019587D01*
X0180822Y0019638D01*
X0180679Y0019693D01*
X0180537Y0019751D01*
X0180397Y0019813D01*
X0180258Y0019878D01*
X0180121Y0019947D01*
X0179986Y0020020D01*
X0179853Y0020096D01*
X0179722Y0020176D01*
X0179593Y0020258D01*
X0179466Y0020345D01*
X0179341Y0020434D01*
X0179219Y0020527D01*
X0179100Y0020623D01*
X0178982Y0020722D01*
X0178868Y0020823D01*
X0178756Y0020928D01*
X0178647Y0021036D01*
X0178541Y0021147D01*
X0178437Y0021260D01*
X0178337Y0021376D01*
X0178239Y0021494D01*
X0178145Y0021615D01*
X0178054Y0021738D01*
X0177966Y0021864D01*
X0177882Y0021992D01*
X0177800Y0022122D01*
X0177723Y0022254D01*
X0177648Y0022388D01*
X0177577Y0022524D01*
X0177510Y0022662D01*
X0177446Y0022802D01*
X0177386Y0022943D01*
X0177330Y0023085D01*
X0177277Y0023229D01*
X0177228Y0023375D01*
X0177183Y0023521D01*
X0177142Y0023669D01*
X0177105Y0023817D01*
X0177071Y0023967D01*
X0177041Y0024118D01*
X0177016Y0024269D01*
X0176994Y0024420D01*
X0176976Y0024573D01*
X0176962Y0024725D01*
X0176952Y0024878D01*
X0176946Y0025032D01*
X0176944Y0025185D01*
D11*
X0135050Y0135485D02*
X0135050Y0141885D01*
X0133272Y0141885D01*
X0133189Y0141883D01*
X0133106Y0141877D01*
X0133023Y0141867D01*
X0132940Y0141854D01*
X0132859Y0141836D01*
X0132778Y0141815D01*
X0132699Y0141790D01*
X0132621Y0141761D01*
X0132544Y0141729D01*
X0132469Y0141693D01*
X0132395Y0141654D01*
X0132324Y0141611D01*
X0132254Y0141565D01*
X0132187Y0141515D01*
X0132122Y0141463D01*
X0132060Y0141408D01*
X0132000Y0141349D01*
X0131943Y0141288D01*
X0131889Y0141225D01*
X0131838Y0141159D01*
X0131791Y0141090D01*
X0131746Y0141020D01*
X0131705Y0140947D01*
X0131668Y0140873D01*
X0131633Y0140797D01*
X0131603Y0140719D01*
X0131576Y0140641D01*
X0131553Y0140560D01*
X0131533Y0140479D01*
X0131518Y0140397D01*
X0131506Y0140315D01*
X0131498Y0140232D01*
X0131494Y0140149D01*
X0131494Y0140065D01*
X0131498Y0139982D01*
X0131506Y0139899D01*
X0131518Y0139817D01*
X0131533Y0139735D01*
X0131553Y0139654D01*
X0131576Y0139573D01*
X0131603Y0139495D01*
X0131633Y0139417D01*
X0131668Y0139341D01*
X0131705Y0139267D01*
X0131746Y0139194D01*
X0131791Y0139124D01*
X0131838Y0139055D01*
X0131889Y0138989D01*
X0131943Y0138926D01*
X0132000Y0138865D01*
X0132060Y0138806D01*
X0132122Y0138751D01*
X0132187Y0138699D01*
X0132254Y0138649D01*
X0132324Y0138603D01*
X0132395Y0138560D01*
X0132469Y0138521D01*
X0132544Y0138485D01*
X0132621Y0138453D01*
X0132699Y0138424D01*
X0132778Y0138399D01*
X0132859Y0138378D01*
X0132940Y0138360D01*
X0133023Y0138347D01*
X0133106Y0138337D01*
X0133189Y0138331D01*
X0133272Y0138329D01*
X0135050Y0138329D01*
X0130250Y0142685D02*
X0124050Y0142685D01*
X0121650Y0142685D01*
X0115450Y0142685D01*
X0114292Y0138329D02*
X0114294Y0138403D01*
X0114300Y0138478D01*
X0114310Y0138551D01*
X0114323Y0138625D01*
X0114340Y0138697D01*
X0114362Y0138768D01*
X0114386Y0138839D01*
X0114415Y0138907D01*
X0114447Y0138975D01*
X0114483Y0139040D01*
X0114521Y0139103D01*
X0114564Y0139165D01*
X0114609Y0139224D01*
X0114657Y0139281D01*
X0114708Y0139335D01*
X0114762Y0139386D01*
X0114819Y0139434D01*
X0114878Y0139479D01*
X0114940Y0139522D01*
X0115003Y0139560D01*
X0115068Y0139596D01*
X0115136Y0139628D01*
X0115204Y0139657D01*
X0115275Y0139681D01*
X0115346Y0139703D01*
X0115418Y0139720D01*
X0115492Y0139733D01*
X0115565Y0139743D01*
X0115640Y0139749D01*
X0115714Y0139751D01*
X0115788Y0139749D01*
X0115863Y0139743D01*
X0115936Y0139733D01*
X0116010Y0139720D01*
X0116082Y0139703D01*
X0116153Y0139681D01*
X0116224Y0139657D01*
X0116292Y0139628D01*
X0116360Y0139596D01*
X0116425Y0139560D01*
X0116488Y0139522D01*
X0116550Y0139479D01*
X0116609Y0139434D01*
X0116666Y0139386D01*
X0116720Y0139335D01*
X0116771Y0139281D01*
X0116819Y0139224D01*
X0116864Y0139165D01*
X0116907Y0139103D01*
X0116945Y0139040D01*
X0116981Y0138975D01*
X0117013Y0138907D01*
X0117042Y0138839D01*
X0117066Y0138768D01*
X0117088Y0138697D01*
X0117105Y0138625D01*
X0117118Y0138551D01*
X0117128Y0138478D01*
X0117134Y0138403D01*
X0117136Y0138329D01*
X0117136Y0136552D01*
X0117136Y0137618D02*
X0114292Y0137618D01*
X0114292Y0138329D01*
X0116069Y0135485D02*
X0116133Y0135487D01*
X0116198Y0135493D01*
X0116261Y0135502D01*
X0116324Y0135516D01*
X0116386Y0135533D01*
X0116447Y0135554D01*
X0116507Y0135579D01*
X0116565Y0135607D01*
X0116621Y0135639D01*
X0116675Y0135674D01*
X0116727Y0135712D01*
X0116777Y0135753D01*
X0116823Y0135798D01*
X0116868Y0135844D01*
X0116909Y0135894D01*
X0116947Y0135946D01*
X0116982Y0136000D01*
X0117014Y0136056D01*
X0117042Y0136114D01*
X0117067Y0136174D01*
X0117088Y0136235D01*
X0117105Y0136297D01*
X0117119Y0136360D01*
X0117128Y0136423D01*
X0117134Y0136488D01*
X0117136Y0136552D01*
X0116069Y0135485D02*
X0114292Y0135485D01*
X0111796Y0136552D02*
X0111796Y0138685D01*
X0111794Y0138749D01*
X0111788Y0138814D01*
X0111779Y0138877D01*
X0111765Y0138940D01*
X0111748Y0139002D01*
X0111727Y0139063D01*
X0111702Y0139123D01*
X0111674Y0139181D01*
X0111642Y0139237D01*
X0111607Y0139291D01*
X0111569Y0139343D01*
X0111528Y0139393D01*
X0111483Y0139439D01*
X0111437Y0139484D01*
X0111387Y0139525D01*
X0111335Y0139563D01*
X0111281Y0139598D01*
X0111225Y0139630D01*
X0111167Y0139658D01*
X0111107Y0139683D01*
X0111046Y0139704D01*
X0110984Y0139721D01*
X0110921Y0139735D01*
X0110858Y0139744D01*
X0110793Y0139750D01*
X0110729Y0139752D01*
X0109307Y0139752D01*
X0107595Y0139752D02*
X0105462Y0139752D01*
X0106884Y0141885D02*
X0106884Y0136552D01*
X0106882Y0136488D01*
X0106876Y0136423D01*
X0106867Y0136360D01*
X0106853Y0136297D01*
X0106836Y0136235D01*
X0106815Y0136174D01*
X0106790Y0136114D01*
X0106762Y0136056D01*
X0106730Y0136000D01*
X0106695Y0135946D01*
X0106657Y0135894D01*
X0106616Y0135844D01*
X0106571Y0135798D01*
X0106525Y0135753D01*
X0106475Y0135712D01*
X0106423Y0135674D01*
X0106369Y0135639D01*
X0106313Y0135607D01*
X0106255Y0135579D01*
X0106195Y0135554D01*
X0106134Y0135533D01*
X0106072Y0135516D01*
X0106009Y0135502D01*
X0105946Y0135493D01*
X0105881Y0135487D01*
X0105817Y0135485D01*
X0105462Y0135485D01*
X0109307Y0135485D02*
X0110729Y0135485D01*
X0110793Y0135487D01*
X0110858Y0135493D01*
X0110921Y0135502D01*
X0110984Y0135516D01*
X0111046Y0135533D01*
X0111107Y0135554D01*
X0111167Y0135579D01*
X0111225Y0135607D01*
X0111281Y0135639D01*
X0111335Y0135674D01*
X0111387Y0135712D01*
X0111437Y0135753D01*
X0111483Y0135798D01*
X0111528Y0135844D01*
X0111569Y0135894D01*
X0111607Y0135946D01*
X0111642Y0136000D01*
X0111674Y0136056D01*
X0111702Y0136114D01*
X0111727Y0136174D01*
X0111748Y0136235D01*
X0111765Y0136297D01*
X0111779Y0136360D01*
X0111788Y0136423D01*
X0111794Y0136488D01*
X0111796Y0136552D01*
X0119707Y0134418D02*
X0119707Y0139752D01*
X0119529Y0141529D02*
X0119885Y0141529D01*
X0119885Y0141885D01*
X0119529Y0141885D01*
X0119529Y0141529D01*
X0122087Y0138329D02*
X0122087Y0136907D01*
X0122089Y0136833D01*
X0122095Y0136758D01*
X0122105Y0136685D01*
X0122118Y0136611D01*
X0122135Y0136539D01*
X0122157Y0136468D01*
X0122181Y0136397D01*
X0122210Y0136329D01*
X0122242Y0136261D01*
X0122278Y0136196D01*
X0122316Y0136133D01*
X0122359Y0136071D01*
X0122404Y0136012D01*
X0122452Y0135955D01*
X0122503Y0135901D01*
X0122557Y0135850D01*
X0122614Y0135802D01*
X0122673Y0135757D01*
X0122735Y0135714D01*
X0122798Y0135676D01*
X0122863Y0135640D01*
X0122931Y0135608D01*
X0122999Y0135579D01*
X0123070Y0135555D01*
X0123141Y0135533D01*
X0123213Y0135516D01*
X0123287Y0135503D01*
X0123360Y0135493D01*
X0123435Y0135487D01*
X0123509Y0135485D01*
X0123583Y0135487D01*
X0123658Y0135493D01*
X0123731Y0135503D01*
X0123805Y0135516D01*
X0123877Y0135533D01*
X0123948Y0135555D01*
X0124019Y0135579D01*
X0124087Y0135608D01*
X0124155Y0135640D01*
X0124220Y0135676D01*
X0124283Y0135714D01*
X0124345Y0135757D01*
X0124404Y0135802D01*
X0124461Y0135850D01*
X0124515Y0135901D01*
X0124566Y0135955D01*
X0124614Y0136012D01*
X0124659Y0136071D01*
X0124702Y0136133D01*
X0124740Y0136196D01*
X0124776Y0136261D01*
X0124808Y0136329D01*
X0124837Y0136397D01*
X0124861Y0136468D01*
X0124883Y0136539D01*
X0124900Y0136611D01*
X0124913Y0136685D01*
X0124923Y0136758D01*
X0124929Y0136833D01*
X0124931Y0136907D01*
X0124931Y0138329D01*
X0124929Y0138403D01*
X0124923Y0138478D01*
X0124913Y0138551D01*
X0124900Y0138625D01*
X0124883Y0138697D01*
X0124861Y0138768D01*
X0124837Y0138839D01*
X0124808Y0138907D01*
X0124776Y0138975D01*
X0124740Y0139040D01*
X0124702Y0139103D01*
X0124659Y0139165D01*
X0124614Y0139224D01*
X0124566Y0139281D01*
X0124515Y0139335D01*
X0124461Y0139386D01*
X0124404Y0139434D01*
X0124345Y0139479D01*
X0124283Y0139522D01*
X0124220Y0139560D01*
X0124155Y0139596D01*
X0124087Y0139628D01*
X0124019Y0139657D01*
X0123948Y0139681D01*
X0123877Y0139703D01*
X0123805Y0139720D01*
X0123731Y0139733D01*
X0123658Y0139743D01*
X0123583Y0139749D01*
X0123509Y0139751D01*
X0123435Y0139749D01*
X0123360Y0139743D01*
X0123287Y0139733D01*
X0123213Y0139720D01*
X0123141Y0139703D01*
X0123070Y0139681D01*
X0122999Y0139657D01*
X0122931Y0139628D01*
X0122863Y0139596D01*
X0122798Y0139560D01*
X0122735Y0139522D01*
X0122673Y0139479D01*
X0122614Y0139434D01*
X0122557Y0139386D01*
X0122503Y0139335D01*
X0122452Y0139281D01*
X0122404Y0139224D01*
X0122359Y0139165D01*
X0122316Y0139103D01*
X0122278Y0139040D01*
X0122242Y0138975D01*
X0122210Y0138907D01*
X0122181Y0138839D01*
X0122157Y0138768D01*
X0122135Y0138697D01*
X0122118Y0138625D01*
X0122105Y0138551D01*
X0122095Y0138478D01*
X0122089Y0138403D01*
X0122087Y0138329D01*
X0119707Y0134418D02*
X0119709Y0134354D01*
X0119715Y0134289D01*
X0119724Y0134226D01*
X0119738Y0134163D01*
X0119755Y0134101D01*
X0119776Y0134040D01*
X0119801Y0133980D01*
X0119829Y0133922D01*
X0119861Y0133866D01*
X0119896Y0133812D01*
X0119934Y0133760D01*
X0119975Y0133710D01*
X0120020Y0133664D01*
X0120066Y0133619D01*
X0120116Y0133578D01*
X0120168Y0133540D01*
X0120222Y0133505D01*
X0120278Y0133473D01*
X0120336Y0133445D01*
X0120396Y0133420D01*
X0120457Y0133399D01*
X0120519Y0133382D01*
X0120582Y0133368D01*
X0120645Y0133359D01*
X0120710Y0133353D01*
X0120774Y0133351D01*
X0120774Y0133352D02*
X0121129Y0133352D01*
X0126867Y0139041D02*
X0126867Y0139752D01*
X0129000Y0139752D01*
X0129000Y0135485D01*
X0130250Y0162685D02*
X0115450Y0162685D01*
X0099562Y0141885D02*
X0097784Y0141885D01*
X0097710Y0141883D01*
X0097635Y0141877D01*
X0097562Y0141867D01*
X0097488Y0141854D01*
X0097416Y0141837D01*
X0097345Y0141815D01*
X0097274Y0141791D01*
X0097206Y0141762D01*
X0097138Y0141730D01*
X0097073Y0141694D01*
X0097010Y0141656D01*
X0096948Y0141613D01*
X0096889Y0141568D01*
X0096832Y0141520D01*
X0096778Y0141469D01*
X0096727Y0141415D01*
X0096679Y0141358D01*
X0096634Y0141299D01*
X0096591Y0141237D01*
X0096553Y0141174D01*
X0096517Y0141109D01*
X0096485Y0141041D01*
X0096456Y0140973D01*
X0096432Y0140902D01*
X0096410Y0140831D01*
X0096393Y0140759D01*
X0096380Y0140685D01*
X0096370Y0140612D01*
X0096364Y0140537D01*
X0096362Y0140463D01*
X0096364Y0140389D01*
X0096370Y0140314D01*
X0096380Y0140241D01*
X0096393Y0140167D01*
X0096410Y0140095D01*
X0096432Y0140024D01*
X0096456Y0139953D01*
X0096485Y0139885D01*
X0096517Y0139817D01*
X0096553Y0139752D01*
X0096591Y0139689D01*
X0096634Y0139627D01*
X0096679Y0139568D01*
X0096727Y0139511D01*
X0096778Y0139457D01*
X0096832Y0139406D01*
X0096889Y0139358D01*
X0096948Y0139313D01*
X0097010Y0139270D01*
X0097073Y0139232D01*
X0097138Y0139196D01*
X0097206Y0139164D01*
X0097274Y0139135D01*
X0097345Y0139111D01*
X0097416Y0139089D01*
X0097488Y0139072D01*
X0097562Y0139059D01*
X0097635Y0139049D01*
X0097710Y0139043D01*
X0097784Y0139041D01*
X0099562Y0139041D01*
X0097784Y0139041D02*
X0097701Y0139039D01*
X0097618Y0139033D01*
X0097535Y0139023D01*
X0097452Y0139010D01*
X0097371Y0138992D01*
X0097290Y0138971D01*
X0097211Y0138946D01*
X0097133Y0138917D01*
X0097056Y0138885D01*
X0096981Y0138849D01*
X0096907Y0138810D01*
X0096836Y0138767D01*
X0096766Y0138721D01*
X0096699Y0138671D01*
X0096634Y0138619D01*
X0096572Y0138564D01*
X0096512Y0138505D01*
X0096455Y0138444D01*
X0096401Y0138381D01*
X0096350Y0138315D01*
X0096303Y0138246D01*
X0096258Y0138176D01*
X0096217Y0138103D01*
X0096180Y0138029D01*
X0096145Y0137953D01*
X0096115Y0137875D01*
X0096088Y0137797D01*
X0096065Y0137716D01*
X0096045Y0137635D01*
X0096030Y0137553D01*
X0096018Y0137471D01*
X0096010Y0137388D01*
X0096006Y0137305D01*
X0096006Y0137221D01*
X0096010Y0137138D01*
X0096018Y0137055D01*
X0096030Y0136973D01*
X0096045Y0136891D01*
X0096065Y0136810D01*
X0096088Y0136729D01*
X0096115Y0136651D01*
X0096145Y0136573D01*
X0096180Y0136497D01*
X0096217Y0136423D01*
X0096258Y0136350D01*
X0096303Y0136280D01*
X0096350Y0136211D01*
X0096401Y0136145D01*
X0096455Y0136082D01*
X0096512Y0136021D01*
X0096572Y0135962D01*
X0096634Y0135907D01*
X0096699Y0135855D01*
X0096766Y0135805D01*
X0096836Y0135759D01*
X0096907Y0135716D01*
X0096981Y0135677D01*
X0097056Y0135641D01*
X0097133Y0135609D01*
X0097211Y0135580D01*
X0097290Y0135555D01*
X0097371Y0135534D01*
X0097452Y0135516D01*
X0097535Y0135503D01*
X0097618Y0135493D01*
X0097701Y0135487D01*
X0097784Y0135485D01*
X0099562Y0135485D01*
X0099562Y0141885D01*
X0091918Y0141885D02*
X0094052Y0135485D01*
X0093518Y0137085D02*
X0090318Y0137085D01*
X0089785Y0135485D02*
X0091918Y0141885D01*
X0087542Y0141885D02*
X0085409Y0141885D01*
X0085335Y0141883D01*
X0085260Y0141877D01*
X0085187Y0141867D01*
X0085113Y0141854D01*
X0085041Y0141837D01*
X0084970Y0141815D01*
X0084899Y0141791D01*
X0084831Y0141762D01*
X0084763Y0141730D01*
X0084698Y0141694D01*
X0084635Y0141656D01*
X0084573Y0141613D01*
X0084514Y0141568D01*
X0084457Y0141520D01*
X0084403Y0141469D01*
X0084352Y0141415D01*
X0084304Y0141358D01*
X0084259Y0141299D01*
X0084216Y0141237D01*
X0084178Y0141174D01*
X0084142Y0141109D01*
X0084110Y0141041D01*
X0084081Y0140973D01*
X0084057Y0140902D01*
X0084035Y0140831D01*
X0084018Y0140759D01*
X0084005Y0140685D01*
X0083995Y0140612D01*
X0083989Y0140537D01*
X0083987Y0140463D01*
X0083989Y0140389D01*
X0083995Y0140314D01*
X0084005Y0140241D01*
X0084018Y0140167D01*
X0084035Y0140095D01*
X0084057Y0140024D01*
X0084081Y0139953D01*
X0084110Y0139885D01*
X0084142Y0139817D01*
X0084178Y0139752D01*
X0084216Y0139689D01*
X0084259Y0139627D01*
X0084304Y0139568D01*
X0084352Y0139511D01*
X0084403Y0139457D01*
X0084457Y0139406D01*
X0084514Y0139358D01*
X0084573Y0139313D01*
X0084635Y0139270D01*
X0084698Y0139232D01*
X0084763Y0139196D01*
X0084831Y0139164D01*
X0084899Y0139135D01*
X0084970Y0139111D01*
X0085041Y0139089D01*
X0085113Y0139072D01*
X0085187Y0139059D01*
X0085260Y0139049D01*
X0085335Y0139043D01*
X0085409Y0139041D01*
X0086831Y0139041D01*
X0085764Y0139041D02*
X0085681Y0139039D01*
X0085598Y0139033D01*
X0085515Y0139023D01*
X0085432Y0139010D01*
X0085351Y0138992D01*
X0085270Y0138971D01*
X0085191Y0138946D01*
X0085113Y0138917D01*
X0085036Y0138885D01*
X0084961Y0138849D01*
X0084887Y0138810D01*
X0084816Y0138767D01*
X0084746Y0138721D01*
X0084679Y0138671D01*
X0084614Y0138619D01*
X0084552Y0138564D01*
X0084492Y0138505D01*
X0084435Y0138444D01*
X0084381Y0138381D01*
X0084330Y0138315D01*
X0084283Y0138246D01*
X0084238Y0138176D01*
X0084197Y0138103D01*
X0084160Y0138029D01*
X0084125Y0137953D01*
X0084095Y0137875D01*
X0084068Y0137797D01*
X0084045Y0137716D01*
X0084025Y0137635D01*
X0084010Y0137553D01*
X0083998Y0137471D01*
X0083990Y0137388D01*
X0083986Y0137305D01*
X0083986Y0137221D01*
X0083990Y0137138D01*
X0083998Y0137055D01*
X0084010Y0136973D01*
X0084025Y0136891D01*
X0084045Y0136810D01*
X0084068Y0136729D01*
X0084095Y0136651D01*
X0084125Y0136573D01*
X0084160Y0136497D01*
X0084197Y0136423D01*
X0084238Y0136350D01*
X0084283Y0136280D01*
X0084330Y0136211D01*
X0084381Y0136145D01*
X0084435Y0136082D01*
X0084492Y0136021D01*
X0084552Y0135962D01*
X0084614Y0135907D01*
X0084679Y0135855D01*
X0084746Y0135805D01*
X0084816Y0135759D01*
X0084887Y0135716D01*
X0084961Y0135677D01*
X0085036Y0135641D01*
X0085113Y0135609D01*
X0085191Y0135580D01*
X0085270Y0135555D01*
X0085351Y0135534D01*
X0085432Y0135516D01*
X0085515Y0135503D01*
X0085598Y0135493D01*
X0085681Y0135487D01*
X0085764Y0135485D01*
X0087542Y0135485D01*
D12*
X0087591Y0130540D02*
X0087482Y0130503D01*
X0087372Y0130469D01*
X0087260Y0130439D01*
X0087148Y0130413D01*
X0087035Y0130390D01*
X0086921Y0130371D01*
X0086806Y0130356D01*
X0086691Y0130345D01*
X0086576Y0130338D01*
X0086461Y0130334D01*
X0086461Y0130335D02*
X0086416Y0130336D01*
X0086371Y0130341D01*
X0086327Y0130350D01*
X0086284Y0130362D01*
X0086242Y0130378D01*
X0086202Y0130398D01*
X0086163Y0130421D01*
X0086127Y0130446D01*
X0086093Y0130475D01*
X0086061Y0130507D01*
X0086032Y0130541D01*
X0086006Y0130578D01*
X0085983Y0130616D01*
X0085964Y0130657D01*
X0085948Y0130699D01*
X0085935Y0130742D01*
X0085926Y0130786D01*
X0085921Y0130830D01*
X0085920Y0130875D01*
X0085923Y0130920D01*
X0085929Y0130964D01*
X0085939Y0131008D01*
X0085952Y0131050D01*
X0085969Y0131092D01*
X0085990Y0131132D01*
X0086014Y0131170D01*
X0086040Y0131205D01*
X0086070Y0131239D01*
X0086103Y0131270D01*
X0086138Y0131298D01*
X0086175Y0131323D01*
X0086214Y0131344D01*
X0086255Y0131363D01*
X0087283Y0131774D01*
X0087324Y0131793D01*
X0087363Y0131814D01*
X0087400Y0131839D01*
X0087435Y0131867D01*
X0087468Y0131898D01*
X0087498Y0131932D01*
X0087524Y0131967D01*
X0087548Y0132005D01*
X0087569Y0132045D01*
X0087586Y0132087D01*
X0087599Y0132129D01*
X0087609Y0132173D01*
X0087615Y0132217D01*
X0087618Y0132262D01*
X0087617Y0132307D01*
X0087612Y0132351D01*
X0087603Y0132395D01*
X0087590Y0132438D01*
X0087574Y0132480D01*
X0087555Y0132521D01*
X0087532Y0132559D01*
X0087506Y0132596D01*
X0087477Y0132630D01*
X0087445Y0132662D01*
X0087411Y0132691D01*
X0087375Y0132716D01*
X0087336Y0132739D01*
X0087296Y0132759D01*
X0087254Y0132775D01*
X0087211Y0132787D01*
X0087167Y0132796D01*
X0087122Y0132801D01*
X0087077Y0132802D01*
X0088738Y0132802D02*
X0088738Y0132391D01*
X0088738Y0132802D02*
X0089971Y0132802D01*
X0089971Y0130335D01*
X0091587Y0130335D02*
X0092614Y0130335D01*
X0092662Y0130337D01*
X0092711Y0130343D01*
X0092758Y0130352D01*
X0092805Y0130365D01*
X0092850Y0130382D01*
X0092894Y0130402D01*
X0092936Y0130426D01*
X0092977Y0130453D01*
X0093015Y0130483D01*
X0093050Y0130516D01*
X0093083Y0130551D01*
X0093113Y0130589D01*
X0093140Y0130630D01*
X0093164Y0130672D01*
X0093184Y0130716D01*
X0093201Y0130761D01*
X0093214Y0130808D01*
X0093223Y0130855D01*
X0093229Y0130904D01*
X0093231Y0130952D01*
X0093231Y0131979D01*
X0093231Y0131568D02*
X0091587Y0131568D01*
X0091587Y0131979D01*
X0091589Y0132035D01*
X0091595Y0132091D01*
X0091604Y0132146D01*
X0091617Y0132201D01*
X0091634Y0132254D01*
X0091655Y0132306D01*
X0091679Y0132357D01*
X0091707Y0132406D01*
X0091737Y0132453D01*
X0091771Y0132498D01*
X0091808Y0132540D01*
X0091848Y0132580D01*
X0091890Y0132617D01*
X0091935Y0132651D01*
X0091982Y0132681D01*
X0092031Y0132709D01*
X0092082Y0132733D01*
X0092134Y0132754D01*
X0092187Y0132771D01*
X0092242Y0132784D01*
X0092297Y0132793D01*
X0092353Y0132799D01*
X0092409Y0132801D01*
X0092465Y0132799D01*
X0092521Y0132793D01*
X0092576Y0132784D01*
X0092631Y0132771D01*
X0092684Y0132754D01*
X0092736Y0132733D01*
X0092787Y0132709D01*
X0092836Y0132681D01*
X0092883Y0132651D01*
X0092928Y0132617D01*
X0092970Y0132580D01*
X0093010Y0132540D01*
X0093047Y0132498D01*
X0093081Y0132453D01*
X0093111Y0132406D01*
X0093139Y0132357D01*
X0093163Y0132306D01*
X0093184Y0132254D01*
X0093201Y0132201D01*
X0093214Y0132146D01*
X0093223Y0132091D01*
X0093229Y0132035D01*
X0093231Y0131979D01*
X0094845Y0132802D02*
X0095872Y0132802D01*
X0095920Y0132800D01*
X0095969Y0132794D01*
X0096016Y0132785D01*
X0096063Y0132772D01*
X0096108Y0132755D01*
X0096152Y0132735D01*
X0096194Y0132711D01*
X0096235Y0132684D01*
X0096273Y0132654D01*
X0096308Y0132621D01*
X0096341Y0132586D01*
X0096371Y0132548D01*
X0096398Y0132507D01*
X0096422Y0132465D01*
X0096442Y0132421D01*
X0096459Y0132376D01*
X0096472Y0132329D01*
X0096481Y0132282D01*
X0096487Y0132233D01*
X0096489Y0132185D01*
X0096489Y0130952D01*
X0096487Y0130904D01*
X0096481Y0130855D01*
X0096472Y0130808D01*
X0096459Y0130761D01*
X0096442Y0130716D01*
X0096422Y0130672D01*
X0096398Y0130630D01*
X0096371Y0130589D01*
X0096341Y0130551D01*
X0096308Y0130516D01*
X0096273Y0130483D01*
X0096235Y0130453D01*
X0096194Y0130426D01*
X0096152Y0130402D01*
X0096108Y0130382D01*
X0096063Y0130365D01*
X0096016Y0130352D01*
X0095969Y0130343D01*
X0095920Y0130337D01*
X0095872Y0130335D01*
X0094845Y0130335D01*
X0094845Y0134035D01*
X0098342Y0134035D02*
X0098342Y0130952D01*
X0098340Y0130904D01*
X0098334Y0130855D01*
X0098325Y0130808D01*
X0098312Y0130761D01*
X0098295Y0130716D01*
X0098275Y0130672D01*
X0098251Y0130630D01*
X0098224Y0130589D01*
X0098194Y0130551D01*
X0098161Y0130516D01*
X0098126Y0130483D01*
X0098088Y0130453D01*
X0098047Y0130426D01*
X0098005Y0130402D01*
X0097961Y0130382D01*
X0097916Y0130365D01*
X0097869Y0130352D01*
X0097822Y0130343D01*
X0097773Y0130337D01*
X0097725Y0130335D01*
X0099987Y0130335D02*
X0099987Y0132802D01*
X0101631Y0132802D02*
X0101631Y0130952D01*
X0101629Y0130904D01*
X0101623Y0130855D01*
X0101614Y0130808D01*
X0101601Y0130761D01*
X0101584Y0130716D01*
X0101564Y0130672D01*
X0101540Y0130630D01*
X0101513Y0130589D01*
X0101483Y0130551D01*
X0101450Y0130516D01*
X0101415Y0130483D01*
X0101377Y0130453D01*
X0101336Y0130426D01*
X0101294Y0130402D01*
X0101250Y0130382D01*
X0101205Y0130365D01*
X0101158Y0130352D01*
X0101111Y0130343D01*
X0101062Y0130337D01*
X0101014Y0130335D01*
X0099987Y0130335D01*
X0103415Y0130335D02*
X0103415Y0134035D01*
X0104649Y0131979D01*
X0105882Y0134035D01*
X0105882Y0130335D01*
X0109587Y0130335D02*
X0109587Y0132185D01*
X0109586Y0132185D02*
X0109588Y0132233D01*
X0109594Y0132282D01*
X0109603Y0132329D01*
X0109616Y0132376D01*
X0109633Y0132421D01*
X0109653Y0132465D01*
X0109677Y0132507D01*
X0109704Y0132548D01*
X0109734Y0132586D01*
X0109767Y0132621D01*
X0109802Y0132654D01*
X0109840Y0132684D01*
X0109881Y0132711D01*
X0109923Y0132735D01*
X0109967Y0132755D01*
X0110012Y0132772D01*
X0110059Y0132785D01*
X0110106Y0132794D01*
X0110155Y0132800D01*
X0110203Y0132802D01*
X0111231Y0132802D01*
X0111231Y0130335D01*
X0112965Y0130335D02*
X0112965Y0132185D01*
X0112965Y0131774D02*
X0113890Y0131774D01*
X0112964Y0132185D02*
X0112966Y0132233D01*
X0112972Y0132282D01*
X0112981Y0132329D01*
X0112994Y0132376D01*
X0113011Y0132421D01*
X0113031Y0132465D01*
X0113055Y0132507D01*
X0113082Y0132548D01*
X0113112Y0132586D01*
X0113145Y0132621D01*
X0113180Y0132654D01*
X0113218Y0132684D01*
X0113259Y0132711D01*
X0113301Y0132735D01*
X0113345Y0132755D01*
X0113390Y0132772D01*
X0113437Y0132785D01*
X0113484Y0132794D01*
X0113533Y0132800D01*
X0113581Y0132802D01*
X0114403Y0132802D01*
X0113890Y0131773D02*
X0113942Y0131771D01*
X0113995Y0131765D01*
X0114046Y0131756D01*
X0114097Y0131743D01*
X0114147Y0131726D01*
X0114195Y0131705D01*
X0114242Y0131681D01*
X0114287Y0131654D01*
X0114329Y0131623D01*
X0114370Y0131589D01*
X0114408Y0131553D01*
X0114443Y0131514D01*
X0114475Y0131472D01*
X0114504Y0131429D01*
X0114529Y0131383D01*
X0114552Y0131335D01*
X0114570Y0131286D01*
X0114586Y0131236D01*
X0114597Y0131185D01*
X0114605Y0131133D01*
X0114609Y0131080D01*
X0114609Y0131028D01*
X0114605Y0130975D01*
X0114597Y0130923D01*
X0114586Y0130872D01*
X0114570Y0130822D01*
X0114552Y0130773D01*
X0114529Y0130725D01*
X0114504Y0130679D01*
X0114475Y0130636D01*
X0114443Y0130594D01*
X0114408Y0130555D01*
X0114370Y0130519D01*
X0114329Y0130485D01*
X0114287Y0130454D01*
X0114242Y0130427D01*
X0114195Y0130403D01*
X0114147Y0130382D01*
X0114097Y0130365D01*
X0114046Y0130352D01*
X0113995Y0130343D01*
X0113942Y0130337D01*
X0113890Y0130335D01*
X0112965Y0130335D01*
X0117129Y0130335D02*
X0115895Y0134035D01*
X0118362Y0134035D02*
X0117129Y0130335D01*
X0121586Y0130335D02*
X0122614Y0130335D01*
X0122662Y0130337D01*
X0122711Y0130343D01*
X0122758Y0130352D01*
X0122805Y0130365D01*
X0122850Y0130382D01*
X0122894Y0130402D01*
X0122936Y0130426D01*
X0122977Y0130453D01*
X0123015Y0130483D01*
X0123050Y0130516D01*
X0123083Y0130551D01*
X0123113Y0130589D01*
X0123140Y0130630D01*
X0123164Y0130672D01*
X0123184Y0130716D01*
X0123201Y0130761D01*
X0123214Y0130808D01*
X0123223Y0130855D01*
X0123229Y0130904D01*
X0123231Y0130952D01*
X0123231Y0131979D01*
X0123231Y0131568D02*
X0121586Y0131568D01*
X0121586Y0131979D01*
X0121587Y0131979D02*
X0121589Y0132035D01*
X0121595Y0132091D01*
X0121604Y0132146D01*
X0121617Y0132201D01*
X0121634Y0132254D01*
X0121655Y0132306D01*
X0121679Y0132357D01*
X0121707Y0132406D01*
X0121737Y0132453D01*
X0121771Y0132498D01*
X0121808Y0132540D01*
X0121848Y0132580D01*
X0121890Y0132617D01*
X0121935Y0132651D01*
X0121982Y0132681D01*
X0122031Y0132709D01*
X0122082Y0132733D01*
X0122134Y0132754D01*
X0122187Y0132771D01*
X0122242Y0132784D01*
X0122297Y0132793D01*
X0122353Y0132799D01*
X0122409Y0132801D01*
X0122465Y0132799D01*
X0122521Y0132793D01*
X0122576Y0132784D01*
X0122631Y0132771D01*
X0122684Y0132754D01*
X0122736Y0132733D01*
X0122787Y0132709D01*
X0122836Y0132681D01*
X0122883Y0132651D01*
X0122928Y0132617D01*
X0122970Y0132580D01*
X0123010Y0132540D01*
X0123047Y0132498D01*
X0123081Y0132453D01*
X0123111Y0132406D01*
X0123139Y0132357D01*
X0123163Y0132306D01*
X0123184Y0132254D01*
X0123201Y0132201D01*
X0123214Y0132146D01*
X0123223Y0132091D01*
X0123229Y0132035D01*
X0123231Y0131979D01*
X0124826Y0132185D02*
X0124826Y0130335D01*
X0126471Y0130335D02*
X0126471Y0132802D01*
X0125443Y0132802D01*
X0125395Y0132800D01*
X0125346Y0132794D01*
X0125299Y0132785D01*
X0125252Y0132772D01*
X0125207Y0132755D01*
X0125163Y0132735D01*
X0125121Y0132711D01*
X0125080Y0132684D01*
X0125042Y0132654D01*
X0125007Y0132621D01*
X0124974Y0132586D01*
X0124944Y0132548D01*
X0124917Y0132507D01*
X0124893Y0132465D01*
X0124873Y0132421D01*
X0124856Y0132376D01*
X0124843Y0132329D01*
X0124834Y0132282D01*
X0124828Y0132233D01*
X0124826Y0132185D01*
X0127737Y0132391D02*
X0127737Y0132802D01*
X0128971Y0132802D01*
X0128971Y0130335D01*
X0130724Y0130335D02*
X0130724Y0132185D01*
X0130724Y0131774D02*
X0131649Y0131774D01*
X0130724Y0132185D02*
X0130726Y0132233D01*
X0130732Y0132282D01*
X0130741Y0132329D01*
X0130754Y0132376D01*
X0130771Y0132421D01*
X0130791Y0132465D01*
X0130815Y0132507D01*
X0130842Y0132548D01*
X0130872Y0132586D01*
X0130905Y0132621D01*
X0130940Y0132654D01*
X0130978Y0132684D01*
X0131019Y0132711D01*
X0131061Y0132735D01*
X0131105Y0132755D01*
X0131150Y0132772D01*
X0131197Y0132785D01*
X0131244Y0132794D01*
X0131293Y0132800D01*
X0131341Y0132802D01*
X0132163Y0132802D01*
X0131649Y0131773D02*
X0131701Y0131771D01*
X0131754Y0131765D01*
X0131805Y0131756D01*
X0131856Y0131743D01*
X0131906Y0131726D01*
X0131954Y0131705D01*
X0132001Y0131681D01*
X0132046Y0131654D01*
X0132088Y0131623D01*
X0132129Y0131589D01*
X0132167Y0131553D01*
X0132202Y0131514D01*
X0132234Y0131472D01*
X0132263Y0131429D01*
X0132288Y0131383D01*
X0132311Y0131335D01*
X0132329Y0131286D01*
X0132345Y0131236D01*
X0132356Y0131185D01*
X0132364Y0131133D01*
X0132368Y0131080D01*
X0132368Y0131028D01*
X0132364Y0130975D01*
X0132356Y0130923D01*
X0132345Y0130872D01*
X0132329Y0130822D01*
X0132311Y0130773D01*
X0132288Y0130725D01*
X0132263Y0130679D01*
X0132234Y0130636D01*
X0132202Y0130594D01*
X0132167Y0130555D01*
X0132129Y0130519D01*
X0132088Y0130485D01*
X0132046Y0130454D01*
X0132001Y0130427D01*
X0131954Y0130403D01*
X0131906Y0130382D01*
X0131856Y0130365D01*
X0131805Y0130352D01*
X0131754Y0130343D01*
X0131701Y0130337D01*
X0131649Y0130335D01*
X0130724Y0130335D01*
X0133967Y0131157D02*
X0133967Y0134035D01*
X0133967Y0131157D02*
X0133969Y0131101D01*
X0133975Y0131045D01*
X0133984Y0130990D01*
X0133997Y0130935D01*
X0134014Y0130882D01*
X0134035Y0130830D01*
X0134059Y0130779D01*
X0134087Y0130730D01*
X0134117Y0130683D01*
X0134151Y0130638D01*
X0134188Y0130596D01*
X0134228Y0130556D01*
X0134270Y0130519D01*
X0134315Y0130485D01*
X0134362Y0130455D01*
X0134411Y0130427D01*
X0134462Y0130403D01*
X0134514Y0130382D01*
X0134567Y0130365D01*
X0134622Y0130352D01*
X0134677Y0130343D01*
X0134733Y0130337D01*
X0134789Y0130335D01*
X0135200Y0130335D01*
X0128177Y0172166D02*
X0127355Y0172166D01*
X0128177Y0172166D02*
X0128233Y0172168D01*
X0128289Y0172174D01*
X0128344Y0172183D01*
X0128399Y0172196D01*
X0128452Y0172213D01*
X0128504Y0172234D01*
X0128555Y0172258D01*
X0128604Y0172286D01*
X0128651Y0172316D01*
X0128696Y0172350D01*
X0128738Y0172387D01*
X0128778Y0172427D01*
X0128815Y0172469D01*
X0128849Y0172514D01*
X0128879Y0172561D01*
X0128907Y0172610D01*
X0128931Y0172661D01*
X0128952Y0172713D01*
X0128969Y0172766D01*
X0128982Y0172821D01*
X0128991Y0172876D01*
X0128997Y0172932D01*
X0128999Y0172988D01*
X0128999Y0175044D01*
X0128997Y0175100D01*
X0128991Y0175156D01*
X0128982Y0175211D01*
X0128969Y0175266D01*
X0128952Y0175319D01*
X0128931Y0175371D01*
X0128907Y0175422D01*
X0128879Y0175471D01*
X0128849Y0175518D01*
X0128815Y0175563D01*
X0128778Y0175605D01*
X0128738Y0175645D01*
X0128696Y0175682D01*
X0128651Y0175716D01*
X0128604Y0175746D01*
X0128555Y0175774D01*
X0128504Y0175798D01*
X0128452Y0175819D01*
X0128399Y0175836D01*
X0128344Y0175849D01*
X0128289Y0175858D01*
X0128233Y0175864D01*
X0128177Y0175866D01*
X0127355Y0175866D01*
X0124241Y0174221D02*
X0124198Y0174265D01*
X0124157Y0174312D01*
X0124120Y0174361D01*
X0124085Y0174412D01*
X0124054Y0174466D01*
X0124026Y0174521D01*
X0124002Y0174578D01*
X0123981Y0174636D01*
X0123964Y0174696D01*
X0123950Y0174756D01*
X0123941Y0174817D01*
X0123935Y0174879D01*
X0123933Y0174941D01*
X0124242Y0174221D02*
X0125989Y0172166D01*
X0123934Y0172166D01*
X0125989Y0175043D02*
X0125966Y0175107D01*
X0125940Y0175170D01*
X0125910Y0175231D01*
X0125877Y0175290D01*
X0125840Y0175347D01*
X0125800Y0175402D01*
X0125757Y0175454D01*
X0125711Y0175504D01*
X0125663Y0175552D01*
X0125612Y0175596D01*
X0125558Y0175638D01*
X0125502Y0175676D01*
X0125444Y0175711D01*
X0125384Y0175743D01*
X0125322Y0175771D01*
X0125259Y0175796D01*
X0125194Y0175817D01*
X0125128Y0175834D01*
X0125062Y0175848D01*
X0124995Y0175857D01*
X0124927Y0175863D01*
X0124859Y0175865D01*
X0124859Y0175866D02*
X0124801Y0175864D01*
X0124743Y0175859D01*
X0124686Y0175850D01*
X0124629Y0175837D01*
X0124573Y0175821D01*
X0124518Y0175801D01*
X0124465Y0175778D01*
X0124413Y0175752D01*
X0124363Y0175722D01*
X0124315Y0175689D01*
X0124269Y0175654D01*
X0124226Y0175615D01*
X0124185Y0175574D01*
X0124146Y0175531D01*
X0124111Y0175485D01*
X0124078Y0175437D01*
X0124048Y0175387D01*
X0124022Y0175335D01*
X0123999Y0175282D01*
X0123979Y0175227D01*
X0123963Y0175171D01*
X0123950Y0175114D01*
X0123941Y0175057D01*
X0123936Y0174999D01*
X0123934Y0174941D01*
X0123934Y0182166D02*
X0125989Y0182166D01*
X0124961Y0182166D02*
X0124961Y0185866D01*
X0125989Y0185044D01*
X0127355Y0185866D02*
X0128177Y0185866D01*
X0128233Y0185864D01*
X0128289Y0185858D01*
X0128344Y0185849D01*
X0128399Y0185836D01*
X0128452Y0185819D01*
X0128504Y0185798D01*
X0128555Y0185774D01*
X0128604Y0185746D01*
X0128651Y0185716D01*
X0128696Y0185682D01*
X0128738Y0185645D01*
X0128778Y0185605D01*
X0128815Y0185563D01*
X0128849Y0185518D01*
X0128879Y0185471D01*
X0128907Y0185422D01*
X0128931Y0185371D01*
X0128952Y0185319D01*
X0128969Y0185266D01*
X0128982Y0185211D01*
X0128991Y0185156D01*
X0128997Y0185100D01*
X0128999Y0185044D01*
X0128999Y0182988D01*
X0128997Y0182932D01*
X0128991Y0182876D01*
X0128982Y0182821D01*
X0128969Y0182766D01*
X0128952Y0182713D01*
X0128931Y0182661D01*
X0128907Y0182610D01*
X0128879Y0182561D01*
X0128849Y0182514D01*
X0128815Y0182469D01*
X0128778Y0182427D01*
X0128738Y0182387D01*
X0128696Y0182350D01*
X0128651Y0182316D01*
X0128604Y0182286D01*
X0128555Y0182258D01*
X0128504Y0182234D01*
X0128452Y0182213D01*
X0128399Y0182196D01*
X0128344Y0182183D01*
X0128289Y0182174D01*
X0128233Y0182168D01*
X0128177Y0182166D01*
X0127355Y0182166D01*
X0122389Y0182166D02*
X0120334Y0182166D01*
X0121361Y0182166D02*
X0121361Y0185866D01*
X0122389Y0185044D01*
X0087078Y0132802D02*
X0086982Y0132798D01*
X0086887Y0132791D01*
X0086792Y0132780D01*
X0086698Y0132765D01*
X0086605Y0132746D01*
X0086512Y0132724D01*
X0086420Y0132697D01*
X0086330Y0132667D01*
X0086241Y0132634D01*
X0086153Y0132596D01*
X0080047Y0071128D02*
X0079991Y0071126D01*
X0079935Y0071120D01*
X0079880Y0071111D01*
X0079825Y0071098D01*
X0079772Y0071081D01*
X0079720Y0071060D01*
X0079669Y0071036D01*
X0079620Y0071008D01*
X0079573Y0070978D01*
X0079528Y0070944D01*
X0079486Y0070907D01*
X0079446Y0070867D01*
X0079409Y0070825D01*
X0079375Y0070780D01*
X0079345Y0070733D01*
X0079317Y0070684D01*
X0079293Y0070633D01*
X0079272Y0070581D01*
X0079255Y0070528D01*
X0079242Y0070473D01*
X0079233Y0070418D01*
X0079227Y0070362D01*
X0079225Y0070306D01*
X0079227Y0070250D01*
X0079233Y0070194D01*
X0079242Y0070139D01*
X0079255Y0070084D01*
X0079272Y0070031D01*
X0079293Y0069979D01*
X0079317Y0069928D01*
X0079345Y0069879D01*
X0079375Y0069832D01*
X0079409Y0069787D01*
X0079446Y0069745D01*
X0079486Y0069705D01*
X0079528Y0069668D01*
X0079573Y0069634D01*
X0079620Y0069604D01*
X0079669Y0069576D01*
X0079720Y0069552D01*
X0079772Y0069531D01*
X0079825Y0069514D01*
X0079880Y0069501D01*
X0079935Y0069492D01*
X0079991Y0069486D01*
X0080047Y0069484D01*
X0080103Y0069486D01*
X0080159Y0069492D01*
X0080214Y0069501D01*
X0080269Y0069514D01*
X0080322Y0069531D01*
X0080374Y0069552D01*
X0080425Y0069576D01*
X0080474Y0069604D01*
X0080521Y0069634D01*
X0080566Y0069668D01*
X0080608Y0069705D01*
X0080648Y0069745D01*
X0080685Y0069787D01*
X0080719Y0069832D01*
X0080749Y0069879D01*
X0080777Y0069928D01*
X0080801Y0069979D01*
X0080822Y0070031D01*
X0080839Y0070084D01*
X0080852Y0070139D01*
X0080861Y0070194D01*
X0080867Y0070250D01*
X0080869Y0070306D01*
X0080867Y0070362D01*
X0080861Y0070418D01*
X0080852Y0070473D01*
X0080839Y0070528D01*
X0080822Y0070581D01*
X0080801Y0070633D01*
X0080777Y0070684D01*
X0080749Y0070733D01*
X0080719Y0070780D01*
X0080685Y0070825D01*
X0080648Y0070867D01*
X0080608Y0070907D01*
X0080566Y0070944D01*
X0080521Y0070978D01*
X0080474Y0071008D01*
X0080425Y0071036D01*
X0080374Y0071060D01*
X0080322Y0071081D01*
X0080269Y0071098D01*
X0080214Y0071111D01*
X0080159Y0071120D01*
X0080103Y0071126D01*
X0080047Y0071128D01*
X0078197Y0071334D02*
X0078134Y0071332D01*
X0078071Y0071326D01*
X0078008Y0071316D01*
X0077946Y0071303D01*
X0077885Y0071286D01*
X0077826Y0071265D01*
X0077767Y0071240D01*
X0077711Y0071212D01*
X0077656Y0071180D01*
X0077603Y0071145D01*
X0077553Y0071107D01*
X0077504Y0071066D01*
X0077459Y0071022D01*
X0077416Y0070975D01*
X0077377Y0070926D01*
X0077340Y0070874D01*
X0077307Y0070820D01*
X0077277Y0070764D01*
X0077250Y0070707D01*
X0077227Y0070648D01*
X0077208Y0070587D01*
X0077193Y0070526D01*
X0077181Y0070464D01*
X0077173Y0070401D01*
X0077169Y0070338D01*
X0077169Y0070274D01*
X0077173Y0070211D01*
X0077181Y0070148D01*
X0077193Y0070086D01*
X0077208Y0070025D01*
X0077227Y0069964D01*
X0077250Y0069905D01*
X0077277Y0069848D01*
X0077307Y0069792D01*
X0077340Y0069738D01*
X0077377Y0069686D01*
X0077416Y0069637D01*
X0077459Y0069590D01*
X0077504Y0069546D01*
X0077553Y0069505D01*
X0077603Y0069467D01*
X0077656Y0069432D01*
X0077711Y0069400D01*
X0077767Y0069372D01*
X0077826Y0069347D01*
X0077885Y0069326D01*
X0077946Y0069309D01*
X0078008Y0069296D01*
X0078071Y0069286D01*
X0078134Y0069280D01*
X0078197Y0069278D01*
X0078260Y0069280D01*
X0078323Y0069286D01*
X0078386Y0069296D01*
X0078448Y0069309D01*
X0078509Y0069326D01*
X0078568Y0069347D01*
X0078627Y0069372D01*
X0078683Y0069400D01*
X0078738Y0069432D01*
X0078791Y0069467D01*
X0078841Y0069505D01*
X0078890Y0069546D01*
X0078935Y0069590D01*
X0078978Y0069637D01*
X0079017Y0069686D01*
X0079054Y0069738D01*
X0079087Y0069792D01*
X0079117Y0069848D01*
X0079144Y0069905D01*
X0079167Y0069964D01*
X0079186Y0070025D01*
X0079201Y0070086D01*
X0079213Y0070148D01*
X0079221Y0070211D01*
X0079225Y0070274D01*
X0079225Y0070338D01*
X0079221Y0070401D01*
X0079213Y0070464D01*
X0079201Y0070526D01*
X0079186Y0070587D01*
X0079167Y0070648D01*
X0079144Y0070707D01*
X0079117Y0070764D01*
X0079087Y0070820D01*
X0079054Y0070874D01*
X0079017Y0070926D01*
X0078978Y0070975D01*
X0078935Y0071022D01*
X0078890Y0071066D01*
X0078841Y0071107D01*
X0078791Y0071145D01*
X0078738Y0071180D01*
X0078683Y0071212D01*
X0078627Y0071240D01*
X0078568Y0071265D01*
X0078509Y0071286D01*
X0078448Y0071303D01*
X0078386Y0071316D01*
X0078323Y0071326D01*
X0078260Y0071332D01*
X0078197Y0071334D01*
X0077169Y0067913D02*
X0077169Y0067091D01*
X0077170Y0067091D02*
X0077172Y0067035D01*
X0077178Y0066979D01*
X0077187Y0066924D01*
X0077200Y0066869D01*
X0077217Y0066816D01*
X0077238Y0066764D01*
X0077262Y0066713D01*
X0077290Y0066664D01*
X0077320Y0066617D01*
X0077354Y0066572D01*
X0077391Y0066530D01*
X0077431Y0066490D01*
X0077473Y0066453D01*
X0077518Y0066419D01*
X0077565Y0066389D01*
X0077614Y0066361D01*
X0077665Y0066337D01*
X0077717Y0066316D01*
X0077770Y0066299D01*
X0077825Y0066286D01*
X0077880Y0066277D01*
X0077936Y0066271D01*
X0077992Y0066269D01*
X0080047Y0066269D01*
X0080103Y0066271D01*
X0080159Y0066277D01*
X0080214Y0066286D01*
X0080269Y0066299D01*
X0080322Y0066316D01*
X0080374Y0066337D01*
X0080425Y0066361D01*
X0080474Y0066389D01*
X0080521Y0066419D01*
X0080566Y0066453D01*
X0080608Y0066490D01*
X0080648Y0066530D01*
X0080685Y0066572D01*
X0080719Y0066617D01*
X0080749Y0066664D01*
X0080777Y0066713D01*
X0080801Y0066764D01*
X0080822Y0066816D01*
X0080839Y0066869D01*
X0080852Y0066924D01*
X0080861Y0066979D01*
X0080867Y0067035D01*
X0080869Y0067091D01*
X0080869Y0067913D01*
X0066766Y0054882D02*
X0066766Y0052827D01*
X0066764Y0052771D01*
X0066758Y0052715D01*
X0066749Y0052660D01*
X0066736Y0052605D01*
X0066719Y0052552D01*
X0066698Y0052500D01*
X0066674Y0052449D01*
X0066646Y0052400D01*
X0066616Y0052353D01*
X0066582Y0052308D01*
X0066545Y0052266D01*
X0066505Y0052226D01*
X0066463Y0052189D01*
X0066418Y0052155D01*
X0066371Y0052125D01*
X0066322Y0052097D01*
X0066271Y0052073D01*
X0066219Y0052052D01*
X0066166Y0052035D01*
X0066111Y0052022D01*
X0066056Y0052013D01*
X0066000Y0052007D01*
X0065944Y0052005D01*
X0065944Y0052004D02*
X0065122Y0052004D01*
X0063756Y0052004D02*
X0062523Y0052004D01*
X0062523Y0052005D02*
X0062467Y0052007D01*
X0062411Y0052013D01*
X0062356Y0052022D01*
X0062301Y0052035D01*
X0062248Y0052052D01*
X0062196Y0052073D01*
X0062145Y0052097D01*
X0062096Y0052125D01*
X0062049Y0052155D01*
X0062004Y0052189D01*
X0061962Y0052226D01*
X0061922Y0052266D01*
X0061885Y0052308D01*
X0061851Y0052353D01*
X0061821Y0052400D01*
X0061793Y0052449D01*
X0061769Y0052500D01*
X0061748Y0052552D01*
X0061731Y0052605D01*
X0061718Y0052660D01*
X0061709Y0052715D01*
X0061703Y0052771D01*
X0061701Y0052827D01*
X0061701Y0053238D01*
X0061703Y0053294D01*
X0061709Y0053350D01*
X0061718Y0053405D01*
X0061731Y0053460D01*
X0061748Y0053513D01*
X0061769Y0053565D01*
X0061793Y0053616D01*
X0061821Y0053665D01*
X0061851Y0053712D01*
X0061885Y0053757D01*
X0061922Y0053799D01*
X0061962Y0053839D01*
X0062004Y0053876D01*
X0062049Y0053910D01*
X0062096Y0053940D01*
X0062145Y0053968D01*
X0062196Y0053992D01*
X0062248Y0054013D01*
X0062301Y0054030D01*
X0062356Y0054043D01*
X0062411Y0054052D01*
X0062467Y0054058D01*
X0062523Y0054060D01*
X0063756Y0054060D01*
X0063756Y0055704D01*
X0061701Y0055704D01*
X0065122Y0055704D02*
X0065944Y0055704D01*
X0066000Y0055702D01*
X0066056Y0055696D01*
X0066111Y0055687D01*
X0066166Y0055674D01*
X0066219Y0055657D01*
X0066271Y0055636D01*
X0066322Y0055612D01*
X0066371Y0055584D01*
X0066418Y0055554D01*
X0066463Y0055520D01*
X0066505Y0055483D01*
X0066545Y0055443D01*
X0066582Y0055401D01*
X0066616Y0055356D01*
X0066646Y0055309D01*
X0066674Y0055260D01*
X0066698Y0055209D01*
X0066719Y0055157D01*
X0066736Y0055104D01*
X0066749Y0055049D01*
X0066758Y0054994D01*
X0066764Y0054938D01*
X0066766Y0054882D01*
X0136701Y0053238D02*
X0136701Y0053032D01*
X0136701Y0053238D02*
X0136703Y0053294D01*
X0136709Y0053350D01*
X0136718Y0053405D01*
X0136731Y0053460D01*
X0136748Y0053513D01*
X0136769Y0053565D01*
X0136793Y0053616D01*
X0136821Y0053665D01*
X0136851Y0053712D01*
X0136885Y0053757D01*
X0136922Y0053799D01*
X0136962Y0053839D01*
X0137004Y0053876D01*
X0137049Y0053910D01*
X0137096Y0053940D01*
X0137145Y0053968D01*
X0137196Y0053992D01*
X0137248Y0054013D01*
X0137301Y0054030D01*
X0137356Y0054043D01*
X0137411Y0054052D01*
X0137467Y0054058D01*
X0137523Y0054060D01*
X0138756Y0054060D01*
X0138756Y0053032D01*
X0138757Y0053032D02*
X0138755Y0052969D01*
X0138749Y0052906D01*
X0138739Y0052843D01*
X0138726Y0052781D01*
X0138709Y0052720D01*
X0138688Y0052661D01*
X0138663Y0052602D01*
X0138635Y0052546D01*
X0138603Y0052491D01*
X0138568Y0052438D01*
X0138530Y0052388D01*
X0138489Y0052339D01*
X0138445Y0052294D01*
X0138398Y0052251D01*
X0138349Y0052212D01*
X0138297Y0052175D01*
X0138243Y0052142D01*
X0138187Y0052112D01*
X0138130Y0052085D01*
X0138071Y0052062D01*
X0138010Y0052043D01*
X0137949Y0052028D01*
X0137887Y0052016D01*
X0137824Y0052008D01*
X0137761Y0052004D01*
X0137697Y0052004D01*
X0137634Y0052008D01*
X0137571Y0052016D01*
X0137509Y0052028D01*
X0137448Y0052043D01*
X0137387Y0052062D01*
X0137328Y0052085D01*
X0137271Y0052112D01*
X0137215Y0052142D01*
X0137161Y0052175D01*
X0137109Y0052212D01*
X0137060Y0052251D01*
X0137013Y0052294D01*
X0136969Y0052339D01*
X0136928Y0052388D01*
X0136890Y0052438D01*
X0136855Y0052491D01*
X0136823Y0052546D01*
X0136795Y0052602D01*
X0136770Y0052661D01*
X0136749Y0052720D01*
X0136732Y0052781D01*
X0136719Y0052843D01*
X0136709Y0052906D01*
X0136703Y0052969D01*
X0136701Y0053032D01*
X0138756Y0054060D02*
X0138754Y0054138D01*
X0138749Y0054216D01*
X0138739Y0054294D01*
X0138726Y0054371D01*
X0138710Y0054448D01*
X0138689Y0054523D01*
X0138666Y0054598D01*
X0138638Y0054671D01*
X0138607Y0054743D01*
X0138573Y0054813D01*
X0138536Y0054882D01*
X0138495Y0054949D01*
X0138451Y0055014D01*
X0138404Y0055076D01*
X0138354Y0055137D01*
X0138302Y0055194D01*
X0138246Y0055250D01*
X0138189Y0055302D01*
X0138128Y0055352D01*
X0138066Y0055399D01*
X0138001Y0055443D01*
X0137934Y0055484D01*
X0137865Y0055521D01*
X0137795Y0055555D01*
X0137723Y0055586D01*
X0137650Y0055614D01*
X0137575Y0055637D01*
X0137500Y0055658D01*
X0137423Y0055674D01*
X0137346Y0055687D01*
X0137268Y0055697D01*
X0137190Y0055702D01*
X0137112Y0055704D01*
X0140122Y0055704D02*
X0140944Y0055704D01*
X0141000Y0055702D01*
X0141056Y0055696D01*
X0141111Y0055687D01*
X0141166Y0055674D01*
X0141219Y0055657D01*
X0141271Y0055636D01*
X0141322Y0055612D01*
X0141371Y0055584D01*
X0141418Y0055554D01*
X0141463Y0055520D01*
X0141505Y0055483D01*
X0141545Y0055443D01*
X0141582Y0055401D01*
X0141616Y0055356D01*
X0141646Y0055309D01*
X0141674Y0055260D01*
X0141698Y0055209D01*
X0141719Y0055157D01*
X0141736Y0055104D01*
X0141749Y0055049D01*
X0141758Y0054994D01*
X0141764Y0054938D01*
X0141766Y0054882D01*
X0141766Y0052827D01*
X0141764Y0052771D01*
X0141758Y0052715D01*
X0141749Y0052660D01*
X0141736Y0052605D01*
X0141719Y0052552D01*
X0141698Y0052500D01*
X0141674Y0052449D01*
X0141646Y0052400D01*
X0141616Y0052353D01*
X0141582Y0052308D01*
X0141545Y0052266D01*
X0141505Y0052226D01*
X0141463Y0052189D01*
X0141418Y0052155D01*
X0141371Y0052125D01*
X0141322Y0052097D01*
X0141271Y0052073D01*
X0141219Y0052052D01*
X0141166Y0052035D01*
X0141111Y0052022D01*
X0141056Y0052013D01*
X0141000Y0052007D01*
X0140944Y0052005D01*
X0140944Y0052004D02*
X0140122Y0052004D01*
X0152992Y0066269D02*
X0155047Y0066269D01*
X0155103Y0066271D01*
X0155159Y0066277D01*
X0155214Y0066286D01*
X0155269Y0066299D01*
X0155322Y0066316D01*
X0155374Y0066337D01*
X0155425Y0066361D01*
X0155474Y0066389D01*
X0155521Y0066419D01*
X0155566Y0066453D01*
X0155608Y0066490D01*
X0155648Y0066530D01*
X0155685Y0066572D01*
X0155719Y0066617D01*
X0155749Y0066664D01*
X0155777Y0066713D01*
X0155801Y0066764D01*
X0155822Y0066816D01*
X0155839Y0066869D01*
X0155852Y0066924D01*
X0155861Y0066979D01*
X0155867Y0067035D01*
X0155869Y0067091D01*
X0155869Y0067913D01*
X0155869Y0069279D02*
X0155869Y0071334D01*
X0152169Y0070306D01*
X0152169Y0067913D02*
X0152169Y0067091D01*
X0152170Y0067091D02*
X0152172Y0067035D01*
X0152178Y0066979D01*
X0152187Y0066924D01*
X0152200Y0066869D01*
X0152217Y0066816D01*
X0152238Y0066764D01*
X0152262Y0066713D01*
X0152290Y0066664D01*
X0152320Y0066617D01*
X0152354Y0066572D01*
X0152391Y0066530D01*
X0152431Y0066490D01*
X0152473Y0066453D01*
X0152518Y0066419D01*
X0152565Y0066389D01*
X0152614Y0066361D01*
X0152665Y0066337D01*
X0152717Y0066316D01*
X0152770Y0066299D01*
X0152825Y0066286D01*
X0152880Y0066277D01*
X0152936Y0066271D01*
X0152992Y0066269D01*
X0155458Y0069279D02*
X0155869Y0069279D01*
D13*
X0131708Y0136648D02*
X0131753Y0136650D01*
X0131799Y0136656D01*
X0131843Y0136665D01*
X0131887Y0136678D01*
X0131929Y0136694D01*
X0131970Y0136714D01*
X0132009Y0136738D01*
X0132046Y0136764D01*
X0132081Y0136793D01*
X0132113Y0136825D01*
X0132142Y0136860D01*
X0132168Y0136897D01*
X0132192Y0136936D01*
X0132212Y0136977D01*
X0132228Y0137019D01*
X0132241Y0137063D01*
X0132250Y0137107D01*
X0132256Y0137153D01*
X0132258Y0137198D01*
X0132075Y0137626D02*
X0131036Y0138848D01*
X0132258Y0138848D01*
X0131035Y0137137D02*
X0131053Y0137088D01*
X0131075Y0137040D01*
X0131100Y0136994D01*
X0131128Y0136951D01*
X0131160Y0136909D01*
X0131194Y0136869D01*
X0131231Y0136833D01*
X0131271Y0136799D01*
X0131314Y0136768D01*
X0131358Y0136741D01*
X0131404Y0136717D01*
X0131452Y0136696D01*
X0131502Y0136679D01*
X0131552Y0136665D01*
X0131604Y0136656D01*
X0131656Y0136650D01*
X0131708Y0136648D01*
X0132258Y0137198D02*
X0132256Y0137246D01*
X0132250Y0137293D01*
X0132241Y0137340D01*
X0132227Y0137386D01*
X0132210Y0137431D01*
X0132190Y0137474D01*
X0132166Y0137515D01*
X0132138Y0137555D01*
X0132108Y0137592D01*
X0132075Y0137626D01*
X0130207Y0136648D02*
X0129718Y0136648D01*
X0129675Y0136650D01*
X0129633Y0136655D01*
X0129591Y0136665D01*
X0129551Y0136677D01*
X0129511Y0136694D01*
X0129473Y0136714D01*
X0129438Y0136736D01*
X0129404Y0136762D01*
X0129372Y0136791D01*
X0129343Y0136823D01*
X0129317Y0136857D01*
X0129295Y0136893D01*
X0129275Y0136930D01*
X0129258Y0136970D01*
X0129246Y0137010D01*
X0129236Y0137052D01*
X0129231Y0137094D01*
X0129229Y0137137D01*
X0129229Y0138359D01*
X0129231Y0138402D01*
X0129236Y0138444D01*
X0129246Y0138486D01*
X0129258Y0138526D01*
X0129275Y0138566D01*
X0129295Y0138604D01*
X0129317Y0138639D01*
X0129343Y0138673D01*
X0129372Y0138705D01*
X0129404Y0138734D01*
X0129438Y0138760D01*
X0129474Y0138782D01*
X0129511Y0138802D01*
X0129551Y0138819D01*
X0129591Y0138831D01*
X0129633Y0138841D01*
X0129675Y0138846D01*
X0129718Y0138848D01*
X0130207Y0138848D01*
X0128363Y0138848D02*
X0127874Y0138848D01*
X0128119Y0138848D02*
X0128119Y0136648D01*
X0128363Y0136648D02*
X0127874Y0136648D01*
X0127096Y0139092D02*
X0126118Y0139092D01*
X0125288Y0138848D02*
X0124799Y0137870D01*
X0124677Y0137870D02*
X0124066Y0137870D01*
X0124677Y0137870D02*
X0124725Y0137868D01*
X0124773Y0137862D01*
X0124820Y0137853D01*
X0124866Y0137840D01*
X0124911Y0137823D01*
X0124954Y0137803D01*
X0124996Y0137780D01*
X0125036Y0137753D01*
X0125074Y0137724D01*
X0125109Y0137691D01*
X0125142Y0137656D01*
X0125171Y0137618D01*
X0125198Y0137578D01*
X0125221Y0137536D01*
X0125241Y0137493D01*
X0125258Y0137448D01*
X0125271Y0137402D01*
X0125280Y0137355D01*
X0125286Y0137307D01*
X0125288Y0137259D01*
X0125286Y0137211D01*
X0125280Y0137163D01*
X0125271Y0137116D01*
X0125258Y0137070D01*
X0125241Y0137025D01*
X0125221Y0136982D01*
X0125198Y0136940D01*
X0125171Y0136900D01*
X0125142Y0136862D01*
X0125109Y0136827D01*
X0125074Y0136794D01*
X0125036Y0136765D01*
X0124996Y0136738D01*
X0124954Y0136715D01*
X0124911Y0136695D01*
X0124866Y0136678D01*
X0124820Y0136665D01*
X0124773Y0136656D01*
X0124725Y0136650D01*
X0124677Y0136648D01*
X0124066Y0136648D01*
X0124066Y0138848D01*
X0123162Y0138848D02*
X0122184Y0138848D01*
X0122184Y0136648D01*
X0123162Y0136648D01*
X0122918Y0137626D02*
X0122184Y0137626D01*
X0121098Y0137259D02*
X0121098Y0138237D01*
X0121096Y0138285D01*
X0121090Y0138333D01*
X0121081Y0138380D01*
X0121068Y0138426D01*
X0121051Y0138471D01*
X0121031Y0138514D01*
X0121008Y0138556D01*
X0120981Y0138596D01*
X0120952Y0138634D01*
X0120919Y0138669D01*
X0120884Y0138702D01*
X0120846Y0138731D01*
X0120806Y0138758D01*
X0120764Y0138781D01*
X0120721Y0138801D01*
X0120676Y0138818D01*
X0120630Y0138831D01*
X0120583Y0138840D01*
X0120535Y0138846D01*
X0120487Y0138848D01*
X0119876Y0138848D01*
X0119876Y0136648D01*
X0120487Y0136648D01*
X0120535Y0136650D01*
X0120583Y0136656D01*
X0120630Y0136665D01*
X0120676Y0136678D01*
X0120721Y0136695D01*
X0120764Y0136715D01*
X0120806Y0136738D01*
X0120846Y0136765D01*
X0120884Y0136794D01*
X0120919Y0136827D01*
X0120952Y0136862D01*
X0120981Y0136900D01*
X0121008Y0136940D01*
X0121031Y0136982D01*
X0121051Y0137025D01*
X0121068Y0137070D01*
X0121081Y0137116D01*
X0121090Y0137163D01*
X0121096Y0137211D01*
X0121098Y0137259D01*
X0118794Y0136648D02*
X0118794Y0138848D01*
X0117572Y0136648D01*
X0117572Y0138848D01*
X0116684Y0138848D02*
X0115951Y0136648D01*
X0115218Y0138848D01*
X0115401Y0138298D02*
X0116501Y0138298D01*
X0113896Y0137870D02*
X0113285Y0137870D01*
X0113896Y0137870D02*
X0113944Y0137868D01*
X0113992Y0137862D01*
X0114039Y0137853D01*
X0114085Y0137840D01*
X0114130Y0137823D01*
X0114173Y0137803D01*
X0114215Y0137780D01*
X0114255Y0137753D01*
X0114293Y0137724D01*
X0114328Y0137691D01*
X0114361Y0137656D01*
X0114390Y0137618D01*
X0114417Y0137578D01*
X0114440Y0137536D01*
X0114460Y0137493D01*
X0114477Y0137448D01*
X0114490Y0137402D01*
X0114499Y0137355D01*
X0114505Y0137307D01*
X0114507Y0137259D01*
X0114505Y0137211D01*
X0114499Y0137163D01*
X0114490Y0137116D01*
X0114477Y0137070D01*
X0114460Y0137025D01*
X0114440Y0136982D01*
X0114417Y0136940D01*
X0114390Y0136900D01*
X0114361Y0136862D01*
X0114328Y0136827D01*
X0114293Y0136794D01*
X0114255Y0136765D01*
X0114215Y0136738D01*
X0114173Y0136715D01*
X0114130Y0136695D01*
X0114085Y0136678D01*
X0114039Y0136665D01*
X0113992Y0136656D01*
X0113944Y0136650D01*
X0113896Y0136648D01*
X0113285Y0136648D01*
X0113285Y0138848D01*
X0112364Y0138848D02*
X0110898Y0136648D01*
X0110202Y0136648D02*
X0109224Y0136648D01*
X0109224Y0138848D01*
X0110202Y0138848D01*
X0110898Y0138848D02*
X0112364Y0136648D01*
X0109958Y0137626D02*
X0109224Y0137626D01*
X0108304Y0139092D02*
X0107326Y0139092D01*
X0106482Y0138237D02*
X0106482Y0137259D01*
X0106480Y0137211D01*
X0106474Y0137163D01*
X0106465Y0137116D01*
X0106452Y0137070D01*
X0106435Y0137025D01*
X0106415Y0136982D01*
X0106392Y0136940D01*
X0106365Y0136900D01*
X0106336Y0136862D01*
X0106303Y0136827D01*
X0106268Y0136794D01*
X0106230Y0136765D01*
X0106190Y0136738D01*
X0106148Y0136715D01*
X0106105Y0136695D01*
X0106060Y0136678D01*
X0106014Y0136665D01*
X0105967Y0136656D01*
X0105919Y0136650D01*
X0105871Y0136648D01*
X0105823Y0136650D01*
X0105775Y0136656D01*
X0105728Y0136665D01*
X0105682Y0136678D01*
X0105637Y0136695D01*
X0105594Y0136715D01*
X0105552Y0136738D01*
X0105512Y0136765D01*
X0105474Y0136794D01*
X0105439Y0136827D01*
X0105406Y0136862D01*
X0105377Y0136900D01*
X0105350Y0136940D01*
X0105327Y0136982D01*
X0105307Y0137025D01*
X0105290Y0137070D01*
X0105277Y0137116D01*
X0105268Y0137163D01*
X0105262Y0137211D01*
X0105260Y0137259D01*
X0105260Y0138237D01*
X0105262Y0138285D01*
X0105268Y0138333D01*
X0105277Y0138380D01*
X0105290Y0138426D01*
X0105307Y0138471D01*
X0105327Y0138514D01*
X0105350Y0138556D01*
X0105377Y0138596D01*
X0105406Y0138634D01*
X0105439Y0138669D01*
X0105474Y0138702D01*
X0105512Y0138731D01*
X0105552Y0138758D01*
X0105594Y0138781D01*
X0105637Y0138801D01*
X0105682Y0138818D01*
X0105728Y0138831D01*
X0105775Y0138840D01*
X0105823Y0138846D01*
X0105871Y0138848D01*
X0105919Y0138846D01*
X0105967Y0138840D01*
X0106014Y0138831D01*
X0106060Y0138818D01*
X0106105Y0138801D01*
X0106148Y0138781D01*
X0106190Y0138758D01*
X0106230Y0138731D01*
X0106268Y0138702D01*
X0106303Y0138669D01*
X0106336Y0138634D01*
X0106365Y0138596D01*
X0106392Y0138556D01*
X0106415Y0138514D01*
X0106435Y0138471D01*
X0106452Y0138426D01*
X0106465Y0138380D01*
X0106474Y0138333D01*
X0106480Y0138285D01*
X0106482Y0138237D01*
X0104387Y0138848D02*
X0103899Y0138848D01*
X0104143Y0138848D02*
X0104143Y0136648D01*
X0103899Y0136648D02*
X0104387Y0136648D01*
D14*
X0072650Y0079985D02*
X0071372Y0079985D01*
X0071302Y0079983D01*
X0071231Y0079977D01*
X0071162Y0079968D01*
X0071093Y0079954D01*
X0071024Y0079937D01*
X0070957Y0079916D01*
X0070891Y0079891D01*
X0070827Y0079863D01*
X0070764Y0079831D01*
X0070703Y0079796D01*
X0070644Y0079757D01*
X0070587Y0079716D01*
X0070533Y0079671D01*
X0070481Y0079623D01*
X0070432Y0079573D01*
X0070385Y0079519D01*
X0070342Y0079464D01*
X0070302Y0079406D01*
X0070265Y0079346D01*
X0070232Y0079284D01*
X0070202Y0079220D01*
X0070175Y0079155D01*
X0070152Y0079089D01*
X0070133Y0079021D01*
X0070118Y0078952D01*
X0070106Y0078883D01*
X0070098Y0078813D01*
X0070094Y0078742D01*
X0070094Y0078672D01*
X0070098Y0078601D01*
X0070106Y0078531D01*
X0070118Y0078462D01*
X0070133Y0078393D01*
X0070152Y0078325D01*
X0070175Y0078259D01*
X0070202Y0078194D01*
X0070232Y0078130D01*
X0070265Y0078068D01*
X0070302Y0078008D01*
X0070342Y0077950D01*
X0070385Y0077895D01*
X0070432Y0077841D01*
X0070481Y0077791D01*
X0070533Y0077743D01*
X0070587Y0077698D01*
X0070644Y0077657D01*
X0070703Y0077618D01*
X0070764Y0077583D01*
X0070827Y0077551D01*
X0070891Y0077523D01*
X0070957Y0077498D01*
X0071024Y0077477D01*
X0071093Y0077460D01*
X0071162Y0077446D01*
X0071231Y0077437D01*
X0071302Y0077431D01*
X0071372Y0077429D01*
X0072650Y0077429D01*
X0071117Y0077429D02*
X0070094Y0075385D01*
X0068179Y0075385D02*
X0065623Y0075385D01*
X0066901Y0075385D02*
X0066901Y0079985D01*
X0068179Y0078963D01*
X0063679Y0078963D02*
X0062401Y0079985D01*
X0062401Y0075385D01*
X0063679Y0075385D02*
X0061123Y0075385D01*
X0072650Y0075385D02*
X0072650Y0079985D01*
X0111800Y0036645D02*
X0113844Y0036645D01*
X0112822Y0037412D02*
X0112822Y0034856D01*
X0116400Y0035878D01*
X0116400Y0031663D02*
X0116400Y0030385D01*
X0111800Y0030385D01*
X0113844Y0030385D02*
X0113844Y0031663D01*
X0113844Y0031918D02*
X0111800Y0032941D01*
X0113844Y0031663D02*
X0113846Y0031733D01*
X0113852Y0031804D01*
X0113861Y0031873D01*
X0113875Y0031942D01*
X0113892Y0032011D01*
X0113913Y0032078D01*
X0113938Y0032144D01*
X0113966Y0032208D01*
X0113998Y0032271D01*
X0114033Y0032332D01*
X0114072Y0032391D01*
X0114113Y0032448D01*
X0114158Y0032502D01*
X0114206Y0032554D01*
X0114256Y0032603D01*
X0114310Y0032650D01*
X0114365Y0032693D01*
X0114423Y0032733D01*
X0114483Y0032770D01*
X0114545Y0032803D01*
X0114609Y0032833D01*
X0114674Y0032860D01*
X0114740Y0032883D01*
X0114808Y0032902D01*
X0114877Y0032917D01*
X0114946Y0032929D01*
X0115016Y0032937D01*
X0115087Y0032941D01*
X0115157Y0032941D01*
X0115228Y0032937D01*
X0115298Y0032929D01*
X0115367Y0032917D01*
X0115436Y0032902D01*
X0115504Y0032883D01*
X0115570Y0032860D01*
X0115635Y0032833D01*
X0115699Y0032803D01*
X0115761Y0032770D01*
X0115821Y0032733D01*
X0115879Y0032693D01*
X0115934Y0032650D01*
X0115988Y0032603D01*
X0116038Y0032554D01*
X0116086Y0032502D01*
X0116131Y0032448D01*
X0116172Y0032391D01*
X0116211Y0032332D01*
X0116246Y0032271D01*
X0116278Y0032208D01*
X0116306Y0032144D01*
X0116331Y0032078D01*
X0116352Y0032011D01*
X0116369Y0031942D01*
X0116383Y0031873D01*
X0116392Y0031804D01*
X0116398Y0031733D01*
X0116400Y0031663D01*
X0121800Y0032941D02*
X0123844Y0031918D01*
X0123844Y0031663D02*
X0123844Y0030385D01*
X0123844Y0031663D02*
X0123846Y0031733D01*
X0123852Y0031804D01*
X0123861Y0031873D01*
X0123875Y0031942D01*
X0123892Y0032011D01*
X0123913Y0032078D01*
X0123938Y0032144D01*
X0123966Y0032208D01*
X0123998Y0032271D01*
X0124033Y0032332D01*
X0124072Y0032391D01*
X0124113Y0032448D01*
X0124158Y0032502D01*
X0124206Y0032554D01*
X0124256Y0032603D01*
X0124310Y0032650D01*
X0124365Y0032693D01*
X0124423Y0032733D01*
X0124483Y0032770D01*
X0124545Y0032803D01*
X0124609Y0032833D01*
X0124674Y0032860D01*
X0124740Y0032883D01*
X0124808Y0032902D01*
X0124877Y0032917D01*
X0124946Y0032929D01*
X0125016Y0032937D01*
X0125087Y0032941D01*
X0125157Y0032941D01*
X0125228Y0032937D01*
X0125298Y0032929D01*
X0125367Y0032917D01*
X0125436Y0032902D01*
X0125504Y0032883D01*
X0125570Y0032860D01*
X0125635Y0032833D01*
X0125699Y0032803D01*
X0125761Y0032770D01*
X0125821Y0032733D01*
X0125879Y0032693D01*
X0125934Y0032650D01*
X0125988Y0032603D01*
X0126038Y0032554D01*
X0126086Y0032502D01*
X0126131Y0032448D01*
X0126172Y0032391D01*
X0126211Y0032332D01*
X0126246Y0032271D01*
X0126278Y0032208D01*
X0126306Y0032144D01*
X0126331Y0032078D01*
X0126352Y0032011D01*
X0126369Y0031942D01*
X0126383Y0031873D01*
X0126392Y0031804D01*
X0126398Y0031733D01*
X0126400Y0031663D01*
X0126400Y0030385D01*
X0121800Y0030385D01*
X0121800Y0034856D02*
X0121800Y0036134D01*
X0121802Y0036204D01*
X0121808Y0036275D01*
X0121817Y0036344D01*
X0121831Y0036413D01*
X0121848Y0036482D01*
X0121869Y0036549D01*
X0121894Y0036615D01*
X0121922Y0036679D01*
X0121954Y0036742D01*
X0121989Y0036803D01*
X0122028Y0036862D01*
X0122069Y0036919D01*
X0122114Y0036973D01*
X0122162Y0037025D01*
X0122212Y0037074D01*
X0122266Y0037121D01*
X0122321Y0037164D01*
X0122379Y0037204D01*
X0122439Y0037241D01*
X0122501Y0037274D01*
X0122565Y0037304D01*
X0122630Y0037331D01*
X0122696Y0037354D01*
X0122764Y0037373D01*
X0122833Y0037388D01*
X0122902Y0037400D01*
X0122972Y0037408D01*
X0123043Y0037412D01*
X0123113Y0037412D01*
X0123184Y0037408D01*
X0123254Y0037400D01*
X0123323Y0037388D01*
X0123392Y0037373D01*
X0123460Y0037354D01*
X0123526Y0037331D01*
X0123591Y0037304D01*
X0123655Y0037274D01*
X0123717Y0037241D01*
X0123777Y0037204D01*
X0123835Y0037164D01*
X0123890Y0037121D01*
X0123944Y0037074D01*
X0123994Y0037025D01*
X0124042Y0036973D01*
X0124087Y0036919D01*
X0124128Y0036862D01*
X0124167Y0036803D01*
X0124202Y0036742D01*
X0124234Y0036679D01*
X0124262Y0036615D01*
X0124287Y0036549D01*
X0124308Y0036482D01*
X0124325Y0036413D01*
X0124339Y0036344D01*
X0124348Y0036275D01*
X0124354Y0036204D01*
X0124356Y0036134D01*
X0124356Y0036389D02*
X0124356Y0035367D01*
X0124356Y0036389D02*
X0124358Y0036452D01*
X0124364Y0036515D01*
X0124373Y0036577D01*
X0124387Y0036638D01*
X0124404Y0036699D01*
X0124425Y0036758D01*
X0124450Y0036816D01*
X0124478Y0036873D01*
X0124509Y0036927D01*
X0124544Y0036979D01*
X0124582Y0037030D01*
X0124623Y0037078D01*
X0124667Y0037123D01*
X0124713Y0037165D01*
X0124762Y0037205D01*
X0124813Y0037241D01*
X0124867Y0037274D01*
X0124922Y0037304D01*
X0124980Y0037330D01*
X0125038Y0037353D01*
X0125098Y0037372D01*
X0125159Y0037387D01*
X0125221Y0037399D01*
X0125284Y0037407D01*
X0125347Y0037411D01*
X0125409Y0037411D01*
X0125472Y0037407D01*
X0125535Y0037399D01*
X0125597Y0037387D01*
X0125658Y0037372D01*
X0125718Y0037353D01*
X0125776Y0037330D01*
X0125834Y0037304D01*
X0125889Y0037274D01*
X0125943Y0037241D01*
X0125994Y0037205D01*
X0126043Y0037165D01*
X0126089Y0037123D01*
X0126133Y0037078D01*
X0126174Y0037030D01*
X0126212Y0036979D01*
X0126247Y0036927D01*
X0126278Y0036873D01*
X0126306Y0036816D01*
X0126331Y0036758D01*
X0126352Y0036699D01*
X0126369Y0036638D01*
X0126383Y0036577D01*
X0126392Y0036515D01*
X0126398Y0036452D01*
X0126400Y0036389D01*
X0126400Y0034856D01*
X0131800Y0034856D02*
X0131800Y0037412D01*
X0131800Y0034856D02*
X0134356Y0037028D01*
X0136400Y0036262D02*
X0136398Y0036188D01*
X0136393Y0036114D01*
X0136383Y0036040D01*
X0136370Y0035967D01*
X0136354Y0035894D01*
X0136333Y0035823D01*
X0136309Y0035753D01*
X0136282Y0035684D01*
X0136251Y0035616D01*
X0136217Y0035550D01*
X0136180Y0035486D01*
X0136139Y0035424D01*
X0136095Y0035364D01*
X0136049Y0035306D01*
X0135999Y0035250D01*
X0135947Y0035197D01*
X0135892Y0035147D01*
X0135835Y0035100D01*
X0135775Y0035056D01*
X0135713Y0035014D01*
X0135650Y0034976D01*
X0135584Y0034941D01*
X0135517Y0034910D01*
X0135448Y0034882D01*
X0135378Y0034857D01*
X0134356Y0037028D02*
X0134403Y0037075D01*
X0134453Y0037119D01*
X0134505Y0037161D01*
X0134559Y0037200D01*
X0134615Y0037235D01*
X0134673Y0037268D01*
X0134733Y0037298D01*
X0134794Y0037324D01*
X0134857Y0037347D01*
X0134921Y0037366D01*
X0134985Y0037382D01*
X0135051Y0037395D01*
X0135117Y0037404D01*
X0135183Y0037409D01*
X0135250Y0037411D01*
X0135250Y0037412D02*
X0135317Y0037410D01*
X0135384Y0037404D01*
X0135450Y0037395D01*
X0135515Y0037381D01*
X0135580Y0037364D01*
X0135643Y0037343D01*
X0135705Y0037318D01*
X0135766Y0037290D01*
X0135825Y0037258D01*
X0135882Y0037223D01*
X0135937Y0037184D01*
X0135989Y0037143D01*
X0136039Y0037098D01*
X0136086Y0037051D01*
X0136131Y0037001D01*
X0136172Y0036949D01*
X0136211Y0036894D01*
X0136246Y0036837D01*
X0136278Y0036778D01*
X0136306Y0036717D01*
X0136331Y0036655D01*
X0136352Y0036592D01*
X0136369Y0036527D01*
X0136383Y0036462D01*
X0136392Y0036396D01*
X0136398Y0036329D01*
X0136400Y0036262D01*
X0136400Y0031663D02*
X0136400Y0030385D01*
X0131800Y0030385D01*
X0133844Y0030385D02*
X0133844Y0031663D01*
X0133844Y0031918D02*
X0131800Y0032941D01*
X0133844Y0031663D02*
X0133846Y0031733D01*
X0133852Y0031804D01*
X0133861Y0031873D01*
X0133875Y0031942D01*
X0133892Y0032011D01*
X0133913Y0032078D01*
X0133938Y0032144D01*
X0133966Y0032208D01*
X0133998Y0032271D01*
X0134033Y0032332D01*
X0134072Y0032391D01*
X0134113Y0032448D01*
X0134158Y0032502D01*
X0134206Y0032554D01*
X0134256Y0032603D01*
X0134310Y0032650D01*
X0134365Y0032693D01*
X0134423Y0032733D01*
X0134483Y0032770D01*
X0134545Y0032803D01*
X0134609Y0032833D01*
X0134674Y0032860D01*
X0134740Y0032883D01*
X0134808Y0032902D01*
X0134877Y0032917D01*
X0134946Y0032929D01*
X0135016Y0032937D01*
X0135087Y0032941D01*
X0135157Y0032941D01*
X0135228Y0032937D01*
X0135298Y0032929D01*
X0135367Y0032917D01*
X0135436Y0032902D01*
X0135504Y0032883D01*
X0135570Y0032860D01*
X0135635Y0032833D01*
X0135699Y0032803D01*
X0135761Y0032770D01*
X0135821Y0032733D01*
X0135879Y0032693D01*
X0135934Y0032650D01*
X0135988Y0032603D01*
X0136038Y0032554D01*
X0136086Y0032502D01*
X0136131Y0032448D01*
X0136172Y0032391D01*
X0136211Y0032332D01*
X0136246Y0032271D01*
X0136278Y0032208D01*
X0136306Y0032144D01*
X0136331Y0032078D01*
X0136352Y0032011D01*
X0136369Y0031942D01*
X0136383Y0031873D01*
X0136392Y0031804D01*
X0136398Y0031733D01*
X0136400Y0031663D01*
X0141800Y0032941D02*
X0143844Y0031918D01*
X0143844Y0031663D02*
X0143844Y0030385D01*
X0143844Y0031663D02*
X0143846Y0031733D01*
X0143852Y0031804D01*
X0143861Y0031873D01*
X0143875Y0031942D01*
X0143892Y0032011D01*
X0143913Y0032078D01*
X0143938Y0032144D01*
X0143966Y0032208D01*
X0143998Y0032271D01*
X0144033Y0032332D01*
X0144072Y0032391D01*
X0144113Y0032448D01*
X0144158Y0032502D01*
X0144206Y0032554D01*
X0144256Y0032603D01*
X0144310Y0032650D01*
X0144365Y0032693D01*
X0144423Y0032733D01*
X0144483Y0032770D01*
X0144545Y0032803D01*
X0144609Y0032833D01*
X0144674Y0032860D01*
X0144740Y0032883D01*
X0144808Y0032902D01*
X0144877Y0032917D01*
X0144946Y0032929D01*
X0145016Y0032937D01*
X0145087Y0032941D01*
X0145157Y0032941D01*
X0145228Y0032937D01*
X0145298Y0032929D01*
X0145367Y0032917D01*
X0145436Y0032902D01*
X0145504Y0032883D01*
X0145570Y0032860D01*
X0145635Y0032833D01*
X0145699Y0032803D01*
X0145761Y0032770D01*
X0145821Y0032733D01*
X0145879Y0032693D01*
X0145934Y0032650D01*
X0145988Y0032603D01*
X0146038Y0032554D01*
X0146086Y0032502D01*
X0146131Y0032448D01*
X0146172Y0032391D01*
X0146211Y0032332D01*
X0146246Y0032271D01*
X0146278Y0032208D01*
X0146306Y0032144D01*
X0146331Y0032078D01*
X0146352Y0032011D01*
X0146369Y0031942D01*
X0146383Y0031873D01*
X0146392Y0031804D01*
X0146398Y0031733D01*
X0146400Y0031663D01*
X0146400Y0030385D01*
X0141800Y0030385D01*
X0141800Y0034856D02*
X0141800Y0037412D01*
X0141800Y0036134D02*
X0146400Y0036134D01*
X0145378Y0034856D01*
X0153050Y0031389D02*
X0153050Y0029856D01*
X0153050Y0031389D02*
X0153052Y0031451D01*
X0153057Y0031512D01*
X0153067Y0031573D01*
X0153080Y0031634D01*
X0153096Y0031693D01*
X0153116Y0031751D01*
X0153140Y0031808D01*
X0153167Y0031864D01*
X0153197Y0031918D01*
X0153231Y0031970D01*
X0153267Y0032019D01*
X0153307Y0032067D01*
X0153349Y0032112D01*
X0153394Y0032154D01*
X0153442Y0032194D01*
X0153491Y0032230D01*
X0153543Y0032264D01*
X0153597Y0032294D01*
X0153653Y0032321D01*
X0153710Y0032345D01*
X0153768Y0032365D01*
X0153827Y0032381D01*
X0153888Y0032394D01*
X0153949Y0032404D01*
X0154010Y0032409D01*
X0154072Y0032411D01*
X0154072Y0032412D02*
X0154583Y0032412D01*
X0154583Y0032411D02*
X0154645Y0032409D01*
X0154706Y0032404D01*
X0154767Y0032394D01*
X0154828Y0032381D01*
X0154887Y0032365D01*
X0154945Y0032345D01*
X0155002Y0032321D01*
X0155058Y0032294D01*
X0155112Y0032264D01*
X0155164Y0032230D01*
X0155213Y0032194D01*
X0155261Y0032154D01*
X0155306Y0032112D01*
X0155348Y0032067D01*
X0155388Y0032019D01*
X0155424Y0031970D01*
X0155458Y0031918D01*
X0155488Y0031864D01*
X0155515Y0031808D01*
X0155539Y0031751D01*
X0155559Y0031693D01*
X0155575Y0031634D01*
X0155588Y0031573D01*
X0155598Y0031512D01*
X0155603Y0031451D01*
X0155605Y0031389D01*
X0155606Y0031389D02*
X0155606Y0029856D01*
X0157650Y0029856D01*
X0157650Y0032412D01*
X0157650Y0026663D02*
X0157650Y0025385D01*
X0153050Y0025385D01*
X0155094Y0025385D02*
X0155094Y0026663D01*
X0155094Y0026918D02*
X0153050Y0027941D01*
X0155094Y0026663D02*
X0155096Y0026733D01*
X0155102Y0026804D01*
X0155111Y0026873D01*
X0155125Y0026942D01*
X0155142Y0027011D01*
X0155163Y0027078D01*
X0155188Y0027144D01*
X0155216Y0027208D01*
X0155248Y0027271D01*
X0155283Y0027332D01*
X0155322Y0027391D01*
X0155363Y0027448D01*
X0155408Y0027502D01*
X0155456Y0027554D01*
X0155506Y0027603D01*
X0155560Y0027650D01*
X0155615Y0027693D01*
X0155673Y0027733D01*
X0155733Y0027770D01*
X0155795Y0027803D01*
X0155859Y0027833D01*
X0155924Y0027860D01*
X0155990Y0027883D01*
X0156058Y0027902D01*
X0156127Y0027917D01*
X0156196Y0027929D01*
X0156266Y0027937D01*
X0156337Y0027941D01*
X0156407Y0027941D01*
X0156478Y0027937D01*
X0156548Y0027929D01*
X0156617Y0027917D01*
X0156686Y0027902D01*
X0156754Y0027883D01*
X0156820Y0027860D01*
X0156885Y0027833D01*
X0156949Y0027803D01*
X0157011Y0027770D01*
X0157071Y0027733D01*
X0157129Y0027693D01*
X0157184Y0027650D01*
X0157238Y0027603D01*
X0157288Y0027554D01*
X0157336Y0027502D01*
X0157381Y0027448D01*
X0157422Y0027391D01*
X0157461Y0027332D01*
X0157496Y0027271D01*
X0157528Y0027208D01*
X0157556Y0027144D01*
X0157581Y0027078D01*
X0157602Y0027011D01*
X0157619Y0026942D01*
X0157633Y0026873D01*
X0157642Y0026804D01*
X0157648Y0026733D01*
X0157650Y0026663D01*
X0147650Y0075385D02*
X0147650Y0079985D01*
X0146372Y0079985D01*
X0146302Y0079983D01*
X0146231Y0079977D01*
X0146162Y0079968D01*
X0146093Y0079954D01*
X0146024Y0079937D01*
X0145957Y0079916D01*
X0145891Y0079891D01*
X0145827Y0079863D01*
X0145764Y0079831D01*
X0145703Y0079796D01*
X0145644Y0079757D01*
X0145587Y0079716D01*
X0145533Y0079671D01*
X0145481Y0079623D01*
X0145432Y0079573D01*
X0145385Y0079519D01*
X0145342Y0079464D01*
X0145302Y0079406D01*
X0145265Y0079346D01*
X0145232Y0079284D01*
X0145202Y0079220D01*
X0145175Y0079155D01*
X0145152Y0079089D01*
X0145133Y0079021D01*
X0145118Y0078952D01*
X0145106Y0078883D01*
X0145098Y0078813D01*
X0145094Y0078742D01*
X0145094Y0078672D01*
X0145098Y0078601D01*
X0145106Y0078531D01*
X0145118Y0078462D01*
X0145133Y0078393D01*
X0145152Y0078325D01*
X0145175Y0078259D01*
X0145202Y0078194D01*
X0145232Y0078130D01*
X0145265Y0078068D01*
X0145302Y0078008D01*
X0145342Y0077950D01*
X0145385Y0077895D01*
X0145432Y0077841D01*
X0145481Y0077791D01*
X0145533Y0077743D01*
X0145587Y0077698D01*
X0145644Y0077657D01*
X0145703Y0077618D01*
X0145764Y0077583D01*
X0145827Y0077551D01*
X0145891Y0077523D01*
X0145957Y0077498D01*
X0146024Y0077477D01*
X0146093Y0077460D01*
X0146162Y0077446D01*
X0146231Y0077437D01*
X0146302Y0077431D01*
X0146372Y0077429D01*
X0147650Y0077429D01*
X0146117Y0077429D02*
X0145094Y0075385D01*
X0143179Y0075385D02*
X0140623Y0075385D01*
X0141901Y0075385D02*
X0141901Y0079985D01*
X0143179Y0078963D01*
X0138679Y0075385D02*
X0136123Y0075385D01*
X0138679Y0075385D02*
X0136507Y0077941D01*
X0137273Y0079985D02*
X0137347Y0079983D01*
X0137421Y0079978D01*
X0137495Y0079968D01*
X0137568Y0079955D01*
X0137641Y0079939D01*
X0137712Y0079918D01*
X0137782Y0079894D01*
X0137851Y0079867D01*
X0137919Y0079836D01*
X0137985Y0079802D01*
X0138049Y0079765D01*
X0138111Y0079724D01*
X0138172Y0079680D01*
X0138229Y0079634D01*
X0138285Y0079584D01*
X0138338Y0079532D01*
X0138388Y0079477D01*
X0138435Y0079420D01*
X0138479Y0079360D01*
X0138521Y0079298D01*
X0138559Y0079235D01*
X0138594Y0079169D01*
X0138625Y0079102D01*
X0138653Y0079033D01*
X0138678Y0078963D01*
X0136507Y0077941D02*
X0136460Y0077988D01*
X0136416Y0078038D01*
X0136374Y0078090D01*
X0136335Y0078144D01*
X0136300Y0078200D01*
X0136267Y0078258D01*
X0136237Y0078318D01*
X0136211Y0078379D01*
X0136188Y0078442D01*
X0136169Y0078506D01*
X0136153Y0078570D01*
X0136140Y0078636D01*
X0136131Y0078702D01*
X0136126Y0078768D01*
X0136124Y0078835D01*
X0136123Y0078835D02*
X0136125Y0078902D01*
X0136131Y0078969D01*
X0136140Y0079035D01*
X0136154Y0079100D01*
X0136171Y0079165D01*
X0136192Y0079228D01*
X0136217Y0079290D01*
X0136245Y0079351D01*
X0136277Y0079410D01*
X0136312Y0079467D01*
X0136351Y0079522D01*
X0136392Y0079574D01*
X0136437Y0079624D01*
X0136484Y0079671D01*
X0136534Y0079716D01*
X0136586Y0079757D01*
X0136641Y0079796D01*
X0136698Y0079831D01*
X0136757Y0079863D01*
X0136818Y0079891D01*
X0136880Y0079916D01*
X0136943Y0079937D01*
X0137008Y0079954D01*
X0137073Y0079968D01*
X0137139Y0079977D01*
X0137206Y0079983D01*
X0137273Y0079985D01*
M02*
