%
M48
M72
T01C0.01378
T02C0.01575
T03C0.04000
T04C0.05512
T05C0.11811
%
T01
X95350Y62685
X106600Y47685
X116600Y47685
X126600Y47685
X136600Y47685
X142459Y61826
X154100Y78935
X159100Y76435
X150350Y101435
X139100Y107685
X135376Y101461
X139100Y117685
X129100Y121435
X121600Y116435
X116600Y116435
X116600Y123935
X111256Y123935
X110350Y106435
X107850Y102874
X92850Y125185
X96600Y146435
X99100Y150185
X116600Y158236
X121600Y148935
X120350Y145185
X139100Y141624
X145350Y139124
X157850Y128935
X155350Y122685
X161950Y165535
X125350Y186435
X84100Y172685
X67850Y178935
X55350Y155185
X54100Y148935
X67850Y113935
X76600Y207685
T02
X75350Y80185
X89100Y82685
X76600Y111435
X76600Y116435
X122850Y111435
X135350Y97685
X121600Y77685
X121600Y47685
X111600Y47685
X101600Y47685
X96600Y47685
T03
X22850Y190185
X22850Y180185
X22850Y170185
X22850Y160185
X40350Y160185
X40350Y170185
X40350Y180185
X87850Y200185
X97850Y200185
X107850Y200185
X117850Y200185
X127850Y200185
X137850Y200185
X147850Y200185
X157850Y200185
X157850Y215185
X147850Y215185
X137850Y215185
X127850Y215185
X117850Y215185
X107850Y215185
X97850Y215185
X87850Y215185
X87850Y230185
X97850Y230185
X107850Y230185
X117850Y230185
X127850Y230185
X137850Y230185
X147850Y230185
X157850Y230185
X160350Y35185
X160350Y25185
X160350Y15185
X136600Y15185
X126600Y15185
X116600Y15185
X106600Y15185
T04
X25350Y60343
X25350Y80028
X25350Y115343
X25350Y135028
X186600Y135028
X186600Y115343
X186600Y80028
X186600Y60343
X80193Y22685
X60507Y22685
T05
X27850Y25185
X182850Y25185
X182850Y220185
X27850Y220185
M30
