G75*
%MOIN*%
%OFA0B0*%
%FSLAX25Y25*%
%IPPOS*%
%LPD*%
%AMOC8*
5,1,8,0,0,1.08239X$1,22.5*
%
%ADD10C,0.00000*%
%ADD11C,0.06000*%
%ADD12R,0.05906X0.07874*%
%ADD13R,0.07874X0.05906*%
%ADD14R,0.05800X0.01400*%
%ADD15C,0.08268*%
%ADD16R,0.07098X0.06299*%
%ADD17R,0.06299X0.07098*%
%ADD18C,0.01200*%
%ADD19C,0.05000*%
%ADD20C,0.04000*%
%ADD21C,0.02978*%
%ADD22C,0.02000*%
%ADD23C,0.05118*%
%ADD24C,0.03175*%
D10*
X0007850Y0024870D02*
X0007850Y0221720D01*
X0007856Y0222196D01*
X0007873Y0222671D01*
X0007902Y0223146D01*
X0007942Y0223620D01*
X0007994Y0224093D01*
X0008057Y0224564D01*
X0008131Y0225034D01*
X0008217Y0225502D01*
X0008314Y0225968D01*
X0008422Y0226431D01*
X0008541Y0226891D01*
X0008672Y0227349D01*
X0008813Y0227803D01*
X0008966Y0228254D01*
X0009129Y0228700D01*
X0009303Y0229143D01*
X0009488Y0229581D01*
X0009683Y0230015D01*
X0009889Y0230444D01*
X0010105Y0230868D01*
X0010331Y0231287D01*
X0010567Y0231700D01*
X0010813Y0232107D01*
X0011069Y0232508D01*
X0011335Y0232902D01*
X0011610Y0233291D01*
X0011894Y0233672D01*
X0012187Y0234046D01*
X0012489Y0234414D01*
X0012801Y0234774D01*
X0013120Y0235126D01*
X0013448Y0235470D01*
X0013785Y0235807D01*
X0014129Y0236135D01*
X0014481Y0236454D01*
X0014841Y0236766D01*
X0015209Y0237068D01*
X0015583Y0237361D01*
X0015964Y0237645D01*
X0016353Y0237920D01*
X0016747Y0238186D01*
X0017148Y0238442D01*
X0017555Y0238688D01*
X0017968Y0238924D01*
X0018387Y0239150D01*
X0018811Y0239366D01*
X0019240Y0239572D01*
X0019674Y0239767D01*
X0020112Y0239952D01*
X0020555Y0240126D01*
X0021001Y0240289D01*
X0021452Y0240442D01*
X0021906Y0240583D01*
X0022364Y0240714D01*
X0022824Y0240833D01*
X0023287Y0240941D01*
X0023753Y0241038D01*
X0024221Y0241124D01*
X0024691Y0241198D01*
X0025162Y0241261D01*
X0025635Y0241313D01*
X0026109Y0241353D01*
X0026584Y0241382D01*
X0027059Y0241399D01*
X0027535Y0241405D01*
X0027535Y0241406D02*
X0185015Y0241406D01*
X0185015Y0241405D02*
X0185491Y0241399D01*
X0185966Y0241382D01*
X0186441Y0241353D01*
X0186915Y0241313D01*
X0187388Y0241261D01*
X0187859Y0241198D01*
X0188329Y0241124D01*
X0188797Y0241038D01*
X0189263Y0240941D01*
X0189726Y0240833D01*
X0190186Y0240714D01*
X0190644Y0240583D01*
X0191098Y0240442D01*
X0191549Y0240289D01*
X0191995Y0240126D01*
X0192438Y0239952D01*
X0192876Y0239767D01*
X0193310Y0239572D01*
X0193739Y0239366D01*
X0194163Y0239150D01*
X0194582Y0238924D01*
X0194995Y0238688D01*
X0195402Y0238442D01*
X0195803Y0238186D01*
X0196197Y0237920D01*
X0196586Y0237645D01*
X0196967Y0237361D01*
X0197341Y0237068D01*
X0197709Y0236766D01*
X0198069Y0236454D01*
X0198421Y0236135D01*
X0198765Y0235807D01*
X0199102Y0235470D01*
X0199430Y0235126D01*
X0199749Y0234774D01*
X0200061Y0234414D01*
X0200363Y0234046D01*
X0200656Y0233672D01*
X0200940Y0233291D01*
X0201215Y0232902D01*
X0201481Y0232508D01*
X0201737Y0232107D01*
X0201983Y0231700D01*
X0202219Y0231287D01*
X0202445Y0230868D01*
X0202661Y0230444D01*
X0202867Y0230015D01*
X0203062Y0229581D01*
X0203247Y0229143D01*
X0203421Y0228700D01*
X0203584Y0228254D01*
X0203737Y0227803D01*
X0203878Y0227349D01*
X0204009Y0226891D01*
X0204128Y0226431D01*
X0204236Y0225968D01*
X0204333Y0225502D01*
X0204419Y0225034D01*
X0204493Y0224564D01*
X0204556Y0224093D01*
X0204608Y0223620D01*
X0204648Y0223146D01*
X0204677Y0222671D01*
X0204694Y0222196D01*
X0204700Y0221720D01*
X0204700Y0024870D01*
X0204694Y0024394D01*
X0204677Y0023919D01*
X0204648Y0023444D01*
X0204608Y0022970D01*
X0204556Y0022497D01*
X0204493Y0022026D01*
X0204419Y0021556D01*
X0204333Y0021088D01*
X0204236Y0020622D01*
X0204128Y0020159D01*
X0204009Y0019699D01*
X0203878Y0019241D01*
X0203737Y0018787D01*
X0203584Y0018336D01*
X0203421Y0017890D01*
X0203247Y0017447D01*
X0203062Y0017009D01*
X0202867Y0016575D01*
X0202661Y0016146D01*
X0202445Y0015722D01*
X0202219Y0015303D01*
X0201983Y0014890D01*
X0201737Y0014483D01*
X0201481Y0014082D01*
X0201215Y0013688D01*
X0200940Y0013299D01*
X0200656Y0012918D01*
X0200363Y0012544D01*
X0200061Y0012176D01*
X0199749Y0011816D01*
X0199430Y0011464D01*
X0199102Y0011120D01*
X0198765Y0010783D01*
X0198421Y0010455D01*
X0198069Y0010136D01*
X0197709Y0009824D01*
X0197341Y0009522D01*
X0196967Y0009229D01*
X0196586Y0008945D01*
X0196197Y0008670D01*
X0195803Y0008404D01*
X0195402Y0008148D01*
X0194995Y0007902D01*
X0194582Y0007666D01*
X0194163Y0007440D01*
X0193739Y0007224D01*
X0193310Y0007018D01*
X0192876Y0006823D01*
X0192438Y0006638D01*
X0191995Y0006464D01*
X0191549Y0006301D01*
X0191098Y0006148D01*
X0190644Y0006007D01*
X0190186Y0005876D01*
X0189726Y0005757D01*
X0189263Y0005649D01*
X0188797Y0005552D01*
X0188329Y0005466D01*
X0187859Y0005392D01*
X0187388Y0005329D01*
X0186915Y0005277D01*
X0186441Y0005237D01*
X0185966Y0005208D01*
X0185491Y0005191D01*
X0185015Y0005185D01*
X0027535Y0005185D01*
X0027059Y0005191D01*
X0026584Y0005208D01*
X0026109Y0005237D01*
X0025635Y0005277D01*
X0025162Y0005329D01*
X0024691Y0005392D01*
X0024221Y0005466D01*
X0023753Y0005552D01*
X0023287Y0005649D01*
X0022824Y0005757D01*
X0022364Y0005876D01*
X0021906Y0006007D01*
X0021452Y0006148D01*
X0021001Y0006301D01*
X0020555Y0006464D01*
X0020112Y0006638D01*
X0019674Y0006823D01*
X0019240Y0007018D01*
X0018811Y0007224D01*
X0018387Y0007440D01*
X0017968Y0007666D01*
X0017555Y0007902D01*
X0017148Y0008148D01*
X0016747Y0008404D01*
X0016353Y0008670D01*
X0015964Y0008945D01*
X0015583Y0009229D01*
X0015209Y0009522D01*
X0014841Y0009824D01*
X0014481Y0010136D01*
X0014129Y0010455D01*
X0013785Y0010783D01*
X0013448Y0011120D01*
X0013120Y0011464D01*
X0012801Y0011816D01*
X0012489Y0012176D01*
X0012187Y0012544D01*
X0011894Y0012918D01*
X0011610Y0013299D01*
X0011335Y0013688D01*
X0011069Y0014082D01*
X0010813Y0014483D01*
X0010567Y0014890D01*
X0010331Y0015303D01*
X0010105Y0015722D01*
X0009889Y0016146D01*
X0009683Y0016575D01*
X0009488Y0017009D01*
X0009303Y0017447D01*
X0009129Y0017890D01*
X0008966Y0018336D01*
X0008813Y0018787D01*
X0008672Y0019241D01*
X0008541Y0019699D01*
X0008422Y0020159D01*
X0008314Y0020622D01*
X0008217Y0021088D01*
X0008131Y0021556D01*
X0008057Y0022026D01*
X0007994Y0022497D01*
X0007942Y0022970D01*
X0007902Y0023444D01*
X0007873Y0023919D01*
X0007856Y0024394D01*
X0007850Y0024870D01*
X0021944Y0025185D02*
X0021946Y0025338D01*
X0021952Y0025492D01*
X0021962Y0025645D01*
X0021976Y0025797D01*
X0021994Y0025950D01*
X0022016Y0026101D01*
X0022041Y0026252D01*
X0022071Y0026403D01*
X0022105Y0026553D01*
X0022142Y0026701D01*
X0022183Y0026849D01*
X0022228Y0026995D01*
X0022277Y0027141D01*
X0022330Y0027285D01*
X0022386Y0027427D01*
X0022446Y0027568D01*
X0022510Y0027708D01*
X0022577Y0027846D01*
X0022648Y0027982D01*
X0022723Y0028116D01*
X0022800Y0028248D01*
X0022882Y0028378D01*
X0022966Y0028506D01*
X0023054Y0028632D01*
X0023145Y0028755D01*
X0023239Y0028876D01*
X0023337Y0028994D01*
X0023437Y0029110D01*
X0023541Y0029223D01*
X0023647Y0029334D01*
X0023756Y0029442D01*
X0023868Y0029547D01*
X0023982Y0029648D01*
X0024100Y0029747D01*
X0024219Y0029843D01*
X0024341Y0029936D01*
X0024466Y0030025D01*
X0024593Y0030112D01*
X0024722Y0030194D01*
X0024853Y0030274D01*
X0024986Y0030350D01*
X0025121Y0030423D01*
X0025258Y0030492D01*
X0025397Y0030557D01*
X0025537Y0030619D01*
X0025679Y0030677D01*
X0025822Y0030732D01*
X0025967Y0030783D01*
X0026113Y0030830D01*
X0026260Y0030873D01*
X0026408Y0030912D01*
X0026557Y0030948D01*
X0026707Y0030979D01*
X0026858Y0031007D01*
X0027009Y0031031D01*
X0027162Y0031051D01*
X0027314Y0031067D01*
X0027467Y0031079D01*
X0027620Y0031087D01*
X0027773Y0031091D01*
X0027927Y0031091D01*
X0028080Y0031087D01*
X0028233Y0031079D01*
X0028386Y0031067D01*
X0028538Y0031051D01*
X0028691Y0031031D01*
X0028842Y0031007D01*
X0028993Y0030979D01*
X0029143Y0030948D01*
X0029292Y0030912D01*
X0029440Y0030873D01*
X0029587Y0030830D01*
X0029733Y0030783D01*
X0029878Y0030732D01*
X0030021Y0030677D01*
X0030163Y0030619D01*
X0030303Y0030557D01*
X0030442Y0030492D01*
X0030579Y0030423D01*
X0030714Y0030350D01*
X0030847Y0030274D01*
X0030978Y0030194D01*
X0031107Y0030112D01*
X0031234Y0030025D01*
X0031359Y0029936D01*
X0031481Y0029843D01*
X0031600Y0029747D01*
X0031718Y0029648D01*
X0031832Y0029547D01*
X0031944Y0029442D01*
X0032053Y0029334D01*
X0032159Y0029223D01*
X0032263Y0029110D01*
X0032363Y0028994D01*
X0032461Y0028876D01*
X0032555Y0028755D01*
X0032646Y0028632D01*
X0032734Y0028506D01*
X0032818Y0028378D01*
X0032900Y0028248D01*
X0032977Y0028116D01*
X0033052Y0027982D01*
X0033123Y0027846D01*
X0033190Y0027708D01*
X0033254Y0027568D01*
X0033314Y0027427D01*
X0033370Y0027285D01*
X0033423Y0027141D01*
X0033472Y0026995D01*
X0033517Y0026849D01*
X0033558Y0026701D01*
X0033595Y0026553D01*
X0033629Y0026403D01*
X0033659Y0026252D01*
X0033684Y0026101D01*
X0033706Y0025950D01*
X0033724Y0025797D01*
X0033738Y0025645D01*
X0033748Y0025492D01*
X0033754Y0025338D01*
X0033756Y0025185D01*
X0033754Y0025032D01*
X0033748Y0024878D01*
X0033738Y0024725D01*
X0033724Y0024573D01*
X0033706Y0024420D01*
X0033684Y0024269D01*
X0033659Y0024118D01*
X0033629Y0023967D01*
X0033595Y0023817D01*
X0033558Y0023669D01*
X0033517Y0023521D01*
X0033472Y0023375D01*
X0033423Y0023229D01*
X0033370Y0023085D01*
X0033314Y0022943D01*
X0033254Y0022802D01*
X0033190Y0022662D01*
X0033123Y0022524D01*
X0033052Y0022388D01*
X0032977Y0022254D01*
X0032900Y0022122D01*
X0032818Y0021992D01*
X0032734Y0021864D01*
X0032646Y0021738D01*
X0032555Y0021615D01*
X0032461Y0021494D01*
X0032363Y0021376D01*
X0032263Y0021260D01*
X0032159Y0021147D01*
X0032053Y0021036D01*
X0031944Y0020928D01*
X0031832Y0020823D01*
X0031718Y0020722D01*
X0031600Y0020623D01*
X0031481Y0020527D01*
X0031359Y0020434D01*
X0031234Y0020345D01*
X0031107Y0020258D01*
X0030978Y0020176D01*
X0030847Y0020096D01*
X0030714Y0020020D01*
X0030579Y0019947D01*
X0030442Y0019878D01*
X0030303Y0019813D01*
X0030163Y0019751D01*
X0030021Y0019693D01*
X0029878Y0019638D01*
X0029733Y0019587D01*
X0029587Y0019540D01*
X0029440Y0019497D01*
X0029292Y0019458D01*
X0029143Y0019422D01*
X0028993Y0019391D01*
X0028842Y0019363D01*
X0028691Y0019339D01*
X0028538Y0019319D01*
X0028386Y0019303D01*
X0028233Y0019291D01*
X0028080Y0019283D01*
X0027927Y0019279D01*
X0027773Y0019279D01*
X0027620Y0019283D01*
X0027467Y0019291D01*
X0027314Y0019303D01*
X0027162Y0019319D01*
X0027009Y0019339D01*
X0026858Y0019363D01*
X0026707Y0019391D01*
X0026557Y0019422D01*
X0026408Y0019458D01*
X0026260Y0019497D01*
X0026113Y0019540D01*
X0025967Y0019587D01*
X0025822Y0019638D01*
X0025679Y0019693D01*
X0025537Y0019751D01*
X0025397Y0019813D01*
X0025258Y0019878D01*
X0025121Y0019947D01*
X0024986Y0020020D01*
X0024853Y0020096D01*
X0024722Y0020176D01*
X0024593Y0020258D01*
X0024466Y0020345D01*
X0024341Y0020434D01*
X0024219Y0020527D01*
X0024100Y0020623D01*
X0023982Y0020722D01*
X0023868Y0020823D01*
X0023756Y0020928D01*
X0023647Y0021036D01*
X0023541Y0021147D01*
X0023437Y0021260D01*
X0023337Y0021376D01*
X0023239Y0021494D01*
X0023145Y0021615D01*
X0023054Y0021738D01*
X0022966Y0021864D01*
X0022882Y0021992D01*
X0022800Y0022122D01*
X0022723Y0022254D01*
X0022648Y0022388D01*
X0022577Y0022524D01*
X0022510Y0022662D01*
X0022446Y0022802D01*
X0022386Y0022943D01*
X0022330Y0023085D01*
X0022277Y0023229D01*
X0022228Y0023375D01*
X0022183Y0023521D01*
X0022142Y0023669D01*
X0022105Y0023817D01*
X0022071Y0023967D01*
X0022041Y0024118D01*
X0022016Y0024269D01*
X0021994Y0024420D01*
X0021976Y0024573D01*
X0021962Y0024725D01*
X0021952Y0024878D01*
X0021946Y0025032D01*
X0021944Y0025185D01*
X0176944Y0025185D02*
X0176946Y0025338D01*
X0176952Y0025492D01*
X0176962Y0025645D01*
X0176976Y0025797D01*
X0176994Y0025950D01*
X0177016Y0026101D01*
X0177041Y0026252D01*
X0177071Y0026403D01*
X0177105Y0026553D01*
X0177142Y0026701D01*
X0177183Y0026849D01*
X0177228Y0026995D01*
X0177277Y0027141D01*
X0177330Y0027285D01*
X0177386Y0027427D01*
X0177446Y0027568D01*
X0177510Y0027708D01*
X0177577Y0027846D01*
X0177648Y0027982D01*
X0177723Y0028116D01*
X0177800Y0028248D01*
X0177882Y0028378D01*
X0177966Y0028506D01*
X0178054Y0028632D01*
X0178145Y0028755D01*
X0178239Y0028876D01*
X0178337Y0028994D01*
X0178437Y0029110D01*
X0178541Y0029223D01*
X0178647Y0029334D01*
X0178756Y0029442D01*
X0178868Y0029547D01*
X0178982Y0029648D01*
X0179100Y0029747D01*
X0179219Y0029843D01*
X0179341Y0029936D01*
X0179466Y0030025D01*
X0179593Y0030112D01*
X0179722Y0030194D01*
X0179853Y0030274D01*
X0179986Y0030350D01*
X0180121Y0030423D01*
X0180258Y0030492D01*
X0180397Y0030557D01*
X0180537Y0030619D01*
X0180679Y0030677D01*
X0180822Y0030732D01*
X0180967Y0030783D01*
X0181113Y0030830D01*
X0181260Y0030873D01*
X0181408Y0030912D01*
X0181557Y0030948D01*
X0181707Y0030979D01*
X0181858Y0031007D01*
X0182009Y0031031D01*
X0182162Y0031051D01*
X0182314Y0031067D01*
X0182467Y0031079D01*
X0182620Y0031087D01*
X0182773Y0031091D01*
X0182927Y0031091D01*
X0183080Y0031087D01*
X0183233Y0031079D01*
X0183386Y0031067D01*
X0183538Y0031051D01*
X0183691Y0031031D01*
X0183842Y0031007D01*
X0183993Y0030979D01*
X0184143Y0030948D01*
X0184292Y0030912D01*
X0184440Y0030873D01*
X0184587Y0030830D01*
X0184733Y0030783D01*
X0184878Y0030732D01*
X0185021Y0030677D01*
X0185163Y0030619D01*
X0185303Y0030557D01*
X0185442Y0030492D01*
X0185579Y0030423D01*
X0185714Y0030350D01*
X0185847Y0030274D01*
X0185978Y0030194D01*
X0186107Y0030112D01*
X0186234Y0030025D01*
X0186359Y0029936D01*
X0186481Y0029843D01*
X0186600Y0029747D01*
X0186718Y0029648D01*
X0186832Y0029547D01*
X0186944Y0029442D01*
X0187053Y0029334D01*
X0187159Y0029223D01*
X0187263Y0029110D01*
X0187363Y0028994D01*
X0187461Y0028876D01*
X0187555Y0028755D01*
X0187646Y0028632D01*
X0187734Y0028506D01*
X0187818Y0028378D01*
X0187900Y0028248D01*
X0187977Y0028116D01*
X0188052Y0027982D01*
X0188123Y0027846D01*
X0188190Y0027708D01*
X0188254Y0027568D01*
X0188314Y0027427D01*
X0188370Y0027285D01*
X0188423Y0027141D01*
X0188472Y0026995D01*
X0188517Y0026849D01*
X0188558Y0026701D01*
X0188595Y0026553D01*
X0188629Y0026403D01*
X0188659Y0026252D01*
X0188684Y0026101D01*
X0188706Y0025950D01*
X0188724Y0025797D01*
X0188738Y0025645D01*
X0188748Y0025492D01*
X0188754Y0025338D01*
X0188756Y0025185D01*
X0188754Y0025032D01*
X0188748Y0024878D01*
X0188738Y0024725D01*
X0188724Y0024573D01*
X0188706Y0024420D01*
X0188684Y0024269D01*
X0188659Y0024118D01*
X0188629Y0023967D01*
X0188595Y0023817D01*
X0188558Y0023669D01*
X0188517Y0023521D01*
X0188472Y0023375D01*
X0188423Y0023229D01*
X0188370Y0023085D01*
X0188314Y0022943D01*
X0188254Y0022802D01*
X0188190Y0022662D01*
X0188123Y0022524D01*
X0188052Y0022388D01*
X0187977Y0022254D01*
X0187900Y0022122D01*
X0187818Y0021992D01*
X0187734Y0021864D01*
X0187646Y0021738D01*
X0187555Y0021615D01*
X0187461Y0021494D01*
X0187363Y0021376D01*
X0187263Y0021260D01*
X0187159Y0021147D01*
X0187053Y0021036D01*
X0186944Y0020928D01*
X0186832Y0020823D01*
X0186718Y0020722D01*
X0186600Y0020623D01*
X0186481Y0020527D01*
X0186359Y0020434D01*
X0186234Y0020345D01*
X0186107Y0020258D01*
X0185978Y0020176D01*
X0185847Y0020096D01*
X0185714Y0020020D01*
X0185579Y0019947D01*
X0185442Y0019878D01*
X0185303Y0019813D01*
X0185163Y0019751D01*
X0185021Y0019693D01*
X0184878Y0019638D01*
X0184733Y0019587D01*
X0184587Y0019540D01*
X0184440Y0019497D01*
X0184292Y0019458D01*
X0184143Y0019422D01*
X0183993Y0019391D01*
X0183842Y0019363D01*
X0183691Y0019339D01*
X0183538Y0019319D01*
X0183386Y0019303D01*
X0183233Y0019291D01*
X0183080Y0019283D01*
X0182927Y0019279D01*
X0182773Y0019279D01*
X0182620Y0019283D01*
X0182467Y0019291D01*
X0182314Y0019303D01*
X0182162Y0019319D01*
X0182009Y0019339D01*
X0181858Y0019363D01*
X0181707Y0019391D01*
X0181557Y0019422D01*
X0181408Y0019458D01*
X0181260Y0019497D01*
X0181113Y0019540D01*
X0180967Y0019587D01*
X0180822Y0019638D01*
X0180679Y0019693D01*
X0180537Y0019751D01*
X0180397Y0019813D01*
X0180258Y0019878D01*
X0180121Y0019947D01*
X0179986Y0020020D01*
X0179853Y0020096D01*
X0179722Y0020176D01*
X0179593Y0020258D01*
X0179466Y0020345D01*
X0179341Y0020434D01*
X0179219Y0020527D01*
X0179100Y0020623D01*
X0178982Y0020722D01*
X0178868Y0020823D01*
X0178756Y0020928D01*
X0178647Y0021036D01*
X0178541Y0021147D01*
X0178437Y0021260D01*
X0178337Y0021376D01*
X0178239Y0021494D01*
X0178145Y0021615D01*
X0178054Y0021738D01*
X0177966Y0021864D01*
X0177882Y0021992D01*
X0177800Y0022122D01*
X0177723Y0022254D01*
X0177648Y0022388D01*
X0177577Y0022524D01*
X0177510Y0022662D01*
X0177446Y0022802D01*
X0177386Y0022943D01*
X0177330Y0023085D01*
X0177277Y0023229D01*
X0177228Y0023375D01*
X0177183Y0023521D01*
X0177142Y0023669D01*
X0177105Y0023817D01*
X0177071Y0023967D01*
X0177041Y0024118D01*
X0177016Y0024269D01*
X0176994Y0024420D01*
X0176976Y0024573D01*
X0176962Y0024725D01*
X0176952Y0024878D01*
X0176946Y0025032D01*
X0176944Y0025185D01*
X0176944Y0220185D02*
X0176946Y0220338D01*
X0176952Y0220492D01*
X0176962Y0220645D01*
X0176976Y0220797D01*
X0176994Y0220950D01*
X0177016Y0221101D01*
X0177041Y0221252D01*
X0177071Y0221403D01*
X0177105Y0221553D01*
X0177142Y0221701D01*
X0177183Y0221849D01*
X0177228Y0221995D01*
X0177277Y0222141D01*
X0177330Y0222285D01*
X0177386Y0222427D01*
X0177446Y0222568D01*
X0177510Y0222708D01*
X0177577Y0222846D01*
X0177648Y0222982D01*
X0177723Y0223116D01*
X0177800Y0223248D01*
X0177882Y0223378D01*
X0177966Y0223506D01*
X0178054Y0223632D01*
X0178145Y0223755D01*
X0178239Y0223876D01*
X0178337Y0223994D01*
X0178437Y0224110D01*
X0178541Y0224223D01*
X0178647Y0224334D01*
X0178756Y0224442D01*
X0178868Y0224547D01*
X0178982Y0224648D01*
X0179100Y0224747D01*
X0179219Y0224843D01*
X0179341Y0224936D01*
X0179466Y0225025D01*
X0179593Y0225112D01*
X0179722Y0225194D01*
X0179853Y0225274D01*
X0179986Y0225350D01*
X0180121Y0225423D01*
X0180258Y0225492D01*
X0180397Y0225557D01*
X0180537Y0225619D01*
X0180679Y0225677D01*
X0180822Y0225732D01*
X0180967Y0225783D01*
X0181113Y0225830D01*
X0181260Y0225873D01*
X0181408Y0225912D01*
X0181557Y0225948D01*
X0181707Y0225979D01*
X0181858Y0226007D01*
X0182009Y0226031D01*
X0182162Y0226051D01*
X0182314Y0226067D01*
X0182467Y0226079D01*
X0182620Y0226087D01*
X0182773Y0226091D01*
X0182927Y0226091D01*
X0183080Y0226087D01*
X0183233Y0226079D01*
X0183386Y0226067D01*
X0183538Y0226051D01*
X0183691Y0226031D01*
X0183842Y0226007D01*
X0183993Y0225979D01*
X0184143Y0225948D01*
X0184292Y0225912D01*
X0184440Y0225873D01*
X0184587Y0225830D01*
X0184733Y0225783D01*
X0184878Y0225732D01*
X0185021Y0225677D01*
X0185163Y0225619D01*
X0185303Y0225557D01*
X0185442Y0225492D01*
X0185579Y0225423D01*
X0185714Y0225350D01*
X0185847Y0225274D01*
X0185978Y0225194D01*
X0186107Y0225112D01*
X0186234Y0225025D01*
X0186359Y0224936D01*
X0186481Y0224843D01*
X0186600Y0224747D01*
X0186718Y0224648D01*
X0186832Y0224547D01*
X0186944Y0224442D01*
X0187053Y0224334D01*
X0187159Y0224223D01*
X0187263Y0224110D01*
X0187363Y0223994D01*
X0187461Y0223876D01*
X0187555Y0223755D01*
X0187646Y0223632D01*
X0187734Y0223506D01*
X0187818Y0223378D01*
X0187900Y0223248D01*
X0187977Y0223116D01*
X0188052Y0222982D01*
X0188123Y0222846D01*
X0188190Y0222708D01*
X0188254Y0222568D01*
X0188314Y0222427D01*
X0188370Y0222285D01*
X0188423Y0222141D01*
X0188472Y0221995D01*
X0188517Y0221849D01*
X0188558Y0221701D01*
X0188595Y0221553D01*
X0188629Y0221403D01*
X0188659Y0221252D01*
X0188684Y0221101D01*
X0188706Y0220950D01*
X0188724Y0220797D01*
X0188738Y0220645D01*
X0188748Y0220492D01*
X0188754Y0220338D01*
X0188756Y0220185D01*
X0188754Y0220032D01*
X0188748Y0219878D01*
X0188738Y0219725D01*
X0188724Y0219573D01*
X0188706Y0219420D01*
X0188684Y0219269D01*
X0188659Y0219118D01*
X0188629Y0218967D01*
X0188595Y0218817D01*
X0188558Y0218669D01*
X0188517Y0218521D01*
X0188472Y0218375D01*
X0188423Y0218229D01*
X0188370Y0218085D01*
X0188314Y0217943D01*
X0188254Y0217802D01*
X0188190Y0217662D01*
X0188123Y0217524D01*
X0188052Y0217388D01*
X0187977Y0217254D01*
X0187900Y0217122D01*
X0187818Y0216992D01*
X0187734Y0216864D01*
X0187646Y0216738D01*
X0187555Y0216615D01*
X0187461Y0216494D01*
X0187363Y0216376D01*
X0187263Y0216260D01*
X0187159Y0216147D01*
X0187053Y0216036D01*
X0186944Y0215928D01*
X0186832Y0215823D01*
X0186718Y0215722D01*
X0186600Y0215623D01*
X0186481Y0215527D01*
X0186359Y0215434D01*
X0186234Y0215345D01*
X0186107Y0215258D01*
X0185978Y0215176D01*
X0185847Y0215096D01*
X0185714Y0215020D01*
X0185579Y0214947D01*
X0185442Y0214878D01*
X0185303Y0214813D01*
X0185163Y0214751D01*
X0185021Y0214693D01*
X0184878Y0214638D01*
X0184733Y0214587D01*
X0184587Y0214540D01*
X0184440Y0214497D01*
X0184292Y0214458D01*
X0184143Y0214422D01*
X0183993Y0214391D01*
X0183842Y0214363D01*
X0183691Y0214339D01*
X0183538Y0214319D01*
X0183386Y0214303D01*
X0183233Y0214291D01*
X0183080Y0214283D01*
X0182927Y0214279D01*
X0182773Y0214279D01*
X0182620Y0214283D01*
X0182467Y0214291D01*
X0182314Y0214303D01*
X0182162Y0214319D01*
X0182009Y0214339D01*
X0181858Y0214363D01*
X0181707Y0214391D01*
X0181557Y0214422D01*
X0181408Y0214458D01*
X0181260Y0214497D01*
X0181113Y0214540D01*
X0180967Y0214587D01*
X0180822Y0214638D01*
X0180679Y0214693D01*
X0180537Y0214751D01*
X0180397Y0214813D01*
X0180258Y0214878D01*
X0180121Y0214947D01*
X0179986Y0215020D01*
X0179853Y0215096D01*
X0179722Y0215176D01*
X0179593Y0215258D01*
X0179466Y0215345D01*
X0179341Y0215434D01*
X0179219Y0215527D01*
X0179100Y0215623D01*
X0178982Y0215722D01*
X0178868Y0215823D01*
X0178756Y0215928D01*
X0178647Y0216036D01*
X0178541Y0216147D01*
X0178437Y0216260D01*
X0178337Y0216376D01*
X0178239Y0216494D01*
X0178145Y0216615D01*
X0178054Y0216738D01*
X0177966Y0216864D01*
X0177882Y0216992D01*
X0177800Y0217122D01*
X0177723Y0217254D01*
X0177648Y0217388D01*
X0177577Y0217524D01*
X0177510Y0217662D01*
X0177446Y0217802D01*
X0177386Y0217943D01*
X0177330Y0218085D01*
X0177277Y0218229D01*
X0177228Y0218375D01*
X0177183Y0218521D01*
X0177142Y0218669D01*
X0177105Y0218817D01*
X0177071Y0218967D01*
X0177041Y0219118D01*
X0177016Y0219269D01*
X0176994Y0219420D01*
X0176976Y0219573D01*
X0176962Y0219725D01*
X0176952Y0219878D01*
X0176946Y0220032D01*
X0176944Y0220185D01*
X0021944Y0220185D02*
X0021946Y0220338D01*
X0021952Y0220492D01*
X0021962Y0220645D01*
X0021976Y0220797D01*
X0021994Y0220950D01*
X0022016Y0221101D01*
X0022041Y0221252D01*
X0022071Y0221403D01*
X0022105Y0221553D01*
X0022142Y0221701D01*
X0022183Y0221849D01*
X0022228Y0221995D01*
X0022277Y0222141D01*
X0022330Y0222285D01*
X0022386Y0222427D01*
X0022446Y0222568D01*
X0022510Y0222708D01*
X0022577Y0222846D01*
X0022648Y0222982D01*
X0022723Y0223116D01*
X0022800Y0223248D01*
X0022882Y0223378D01*
X0022966Y0223506D01*
X0023054Y0223632D01*
X0023145Y0223755D01*
X0023239Y0223876D01*
X0023337Y0223994D01*
X0023437Y0224110D01*
X0023541Y0224223D01*
X0023647Y0224334D01*
X0023756Y0224442D01*
X0023868Y0224547D01*
X0023982Y0224648D01*
X0024100Y0224747D01*
X0024219Y0224843D01*
X0024341Y0224936D01*
X0024466Y0225025D01*
X0024593Y0225112D01*
X0024722Y0225194D01*
X0024853Y0225274D01*
X0024986Y0225350D01*
X0025121Y0225423D01*
X0025258Y0225492D01*
X0025397Y0225557D01*
X0025537Y0225619D01*
X0025679Y0225677D01*
X0025822Y0225732D01*
X0025967Y0225783D01*
X0026113Y0225830D01*
X0026260Y0225873D01*
X0026408Y0225912D01*
X0026557Y0225948D01*
X0026707Y0225979D01*
X0026858Y0226007D01*
X0027009Y0226031D01*
X0027162Y0226051D01*
X0027314Y0226067D01*
X0027467Y0226079D01*
X0027620Y0226087D01*
X0027773Y0226091D01*
X0027927Y0226091D01*
X0028080Y0226087D01*
X0028233Y0226079D01*
X0028386Y0226067D01*
X0028538Y0226051D01*
X0028691Y0226031D01*
X0028842Y0226007D01*
X0028993Y0225979D01*
X0029143Y0225948D01*
X0029292Y0225912D01*
X0029440Y0225873D01*
X0029587Y0225830D01*
X0029733Y0225783D01*
X0029878Y0225732D01*
X0030021Y0225677D01*
X0030163Y0225619D01*
X0030303Y0225557D01*
X0030442Y0225492D01*
X0030579Y0225423D01*
X0030714Y0225350D01*
X0030847Y0225274D01*
X0030978Y0225194D01*
X0031107Y0225112D01*
X0031234Y0225025D01*
X0031359Y0224936D01*
X0031481Y0224843D01*
X0031600Y0224747D01*
X0031718Y0224648D01*
X0031832Y0224547D01*
X0031944Y0224442D01*
X0032053Y0224334D01*
X0032159Y0224223D01*
X0032263Y0224110D01*
X0032363Y0223994D01*
X0032461Y0223876D01*
X0032555Y0223755D01*
X0032646Y0223632D01*
X0032734Y0223506D01*
X0032818Y0223378D01*
X0032900Y0223248D01*
X0032977Y0223116D01*
X0033052Y0222982D01*
X0033123Y0222846D01*
X0033190Y0222708D01*
X0033254Y0222568D01*
X0033314Y0222427D01*
X0033370Y0222285D01*
X0033423Y0222141D01*
X0033472Y0221995D01*
X0033517Y0221849D01*
X0033558Y0221701D01*
X0033595Y0221553D01*
X0033629Y0221403D01*
X0033659Y0221252D01*
X0033684Y0221101D01*
X0033706Y0220950D01*
X0033724Y0220797D01*
X0033738Y0220645D01*
X0033748Y0220492D01*
X0033754Y0220338D01*
X0033756Y0220185D01*
X0033754Y0220032D01*
X0033748Y0219878D01*
X0033738Y0219725D01*
X0033724Y0219573D01*
X0033706Y0219420D01*
X0033684Y0219269D01*
X0033659Y0219118D01*
X0033629Y0218967D01*
X0033595Y0218817D01*
X0033558Y0218669D01*
X0033517Y0218521D01*
X0033472Y0218375D01*
X0033423Y0218229D01*
X0033370Y0218085D01*
X0033314Y0217943D01*
X0033254Y0217802D01*
X0033190Y0217662D01*
X0033123Y0217524D01*
X0033052Y0217388D01*
X0032977Y0217254D01*
X0032900Y0217122D01*
X0032818Y0216992D01*
X0032734Y0216864D01*
X0032646Y0216738D01*
X0032555Y0216615D01*
X0032461Y0216494D01*
X0032363Y0216376D01*
X0032263Y0216260D01*
X0032159Y0216147D01*
X0032053Y0216036D01*
X0031944Y0215928D01*
X0031832Y0215823D01*
X0031718Y0215722D01*
X0031600Y0215623D01*
X0031481Y0215527D01*
X0031359Y0215434D01*
X0031234Y0215345D01*
X0031107Y0215258D01*
X0030978Y0215176D01*
X0030847Y0215096D01*
X0030714Y0215020D01*
X0030579Y0214947D01*
X0030442Y0214878D01*
X0030303Y0214813D01*
X0030163Y0214751D01*
X0030021Y0214693D01*
X0029878Y0214638D01*
X0029733Y0214587D01*
X0029587Y0214540D01*
X0029440Y0214497D01*
X0029292Y0214458D01*
X0029143Y0214422D01*
X0028993Y0214391D01*
X0028842Y0214363D01*
X0028691Y0214339D01*
X0028538Y0214319D01*
X0028386Y0214303D01*
X0028233Y0214291D01*
X0028080Y0214283D01*
X0027927Y0214279D01*
X0027773Y0214279D01*
X0027620Y0214283D01*
X0027467Y0214291D01*
X0027314Y0214303D01*
X0027162Y0214319D01*
X0027009Y0214339D01*
X0026858Y0214363D01*
X0026707Y0214391D01*
X0026557Y0214422D01*
X0026408Y0214458D01*
X0026260Y0214497D01*
X0026113Y0214540D01*
X0025967Y0214587D01*
X0025822Y0214638D01*
X0025679Y0214693D01*
X0025537Y0214751D01*
X0025397Y0214813D01*
X0025258Y0214878D01*
X0025121Y0214947D01*
X0024986Y0215020D01*
X0024853Y0215096D01*
X0024722Y0215176D01*
X0024593Y0215258D01*
X0024466Y0215345D01*
X0024341Y0215434D01*
X0024219Y0215527D01*
X0024100Y0215623D01*
X0023982Y0215722D01*
X0023868Y0215823D01*
X0023756Y0215928D01*
X0023647Y0216036D01*
X0023541Y0216147D01*
X0023437Y0216260D01*
X0023337Y0216376D01*
X0023239Y0216494D01*
X0023145Y0216615D01*
X0023054Y0216738D01*
X0022966Y0216864D01*
X0022882Y0216992D01*
X0022800Y0217122D01*
X0022723Y0217254D01*
X0022648Y0217388D01*
X0022577Y0217524D01*
X0022510Y0217662D01*
X0022446Y0217802D01*
X0022386Y0217943D01*
X0022330Y0218085D01*
X0022277Y0218229D01*
X0022228Y0218375D01*
X0022183Y0218521D01*
X0022142Y0218669D01*
X0022105Y0218817D01*
X0022071Y0218967D01*
X0022041Y0219118D01*
X0022016Y0219269D01*
X0021994Y0219420D01*
X0021976Y0219573D01*
X0021962Y0219725D01*
X0021952Y0219878D01*
X0021946Y0220032D01*
X0021944Y0220185D01*
D11*
X0019850Y0190185D02*
X0025850Y0190185D01*
X0025850Y0180185D02*
X0019850Y0180185D01*
X0019850Y0170185D02*
X0025850Y0170185D01*
X0025850Y0160185D02*
X0019850Y0160185D01*
X0037350Y0160185D02*
X0043350Y0160185D01*
X0043350Y0170185D02*
X0037350Y0170185D01*
X0037350Y0180185D02*
X0043350Y0180185D01*
X0087850Y0197185D02*
X0087850Y0203185D01*
X0087850Y0212185D02*
X0087850Y0218185D01*
X0087850Y0227185D02*
X0087850Y0233185D01*
X0097850Y0233185D02*
X0097850Y0227185D01*
X0097850Y0218185D02*
X0097850Y0212185D01*
X0097850Y0203185D02*
X0097850Y0197185D01*
X0107850Y0197185D02*
X0107850Y0203185D01*
X0107850Y0212185D02*
X0107850Y0218185D01*
X0107850Y0227185D02*
X0107850Y0233185D01*
X0117850Y0233185D02*
X0117850Y0227185D01*
X0117850Y0218185D02*
X0117850Y0212185D01*
X0117850Y0203185D02*
X0117850Y0197185D01*
X0127850Y0197185D02*
X0127850Y0203185D01*
X0127850Y0212185D02*
X0127850Y0218185D01*
X0127850Y0227185D02*
X0127850Y0233185D01*
X0137850Y0233185D02*
X0137850Y0227185D01*
X0137850Y0218185D02*
X0137850Y0212185D01*
X0137850Y0203185D02*
X0137850Y0197185D01*
X0147850Y0197185D02*
X0147850Y0203185D01*
X0147850Y0212185D02*
X0147850Y0218185D01*
X0147850Y0227185D02*
X0147850Y0233185D01*
X0157850Y0233185D02*
X0157850Y0227185D01*
X0157850Y0218185D02*
X0157850Y0212185D01*
X0157850Y0203185D02*
X0157850Y0197185D01*
X0157350Y0035185D02*
X0163350Y0035185D01*
X0163350Y0025185D02*
X0157350Y0025185D01*
X0157350Y0015185D02*
X0163350Y0015185D01*
X0136600Y0012185D02*
X0136600Y0018185D01*
X0126600Y0018185D02*
X0126600Y0012185D01*
X0116600Y0012185D02*
X0116600Y0018185D01*
X0106600Y0018185D02*
X0106600Y0012185D01*
D12*
X0136944Y0060185D03*
X0148756Y0060185D03*
X0073756Y0060185D03*
X0061944Y0060185D03*
X0116944Y0167685D03*
X0116944Y0177685D03*
X0128756Y0177685D03*
X0128756Y0167685D03*
D13*
X0160350Y0071091D03*
X0160350Y0059280D03*
X0085350Y0059280D03*
X0085350Y0071091D03*
D14*
X0111350Y0143685D03*
X0111350Y0146285D03*
X0111350Y0148885D03*
X0111350Y0151385D03*
X0111350Y0153985D03*
X0111350Y0156485D03*
X0111350Y0159085D03*
X0111350Y0161685D03*
X0134350Y0161685D03*
X0134350Y0159085D03*
X0134350Y0156485D03*
X0134350Y0153985D03*
X0134350Y0151385D03*
X0134350Y0148885D03*
X0134350Y0146285D03*
X0134350Y0143685D03*
D15*
X0182466Y0135028D02*
X0190734Y0135028D01*
X0190734Y0115343D02*
X0182466Y0115343D01*
X0182466Y0080028D02*
X0190734Y0080028D01*
X0190734Y0060343D02*
X0182466Y0060343D01*
X0080193Y0026819D02*
X0080193Y0018551D01*
X0060507Y0018551D02*
X0060507Y0026819D01*
X0029484Y0060343D02*
X0021216Y0060343D01*
X0021216Y0080028D02*
X0029484Y0080028D01*
X0029484Y0115343D02*
X0021216Y0115343D01*
X0021216Y0135028D02*
X0029484Y0135028D01*
D16*
X0106600Y0040783D03*
X0116600Y0040783D03*
X0126600Y0040783D03*
X0136600Y0040783D03*
X0136600Y0029587D03*
X0126600Y0029587D03*
X0116600Y0029587D03*
X0106600Y0029587D03*
X0147850Y0024587D03*
X0147850Y0035783D03*
D17*
X0148448Y0070185D03*
X0137252Y0070185D03*
X0073448Y0070185D03*
X0062252Y0070185D03*
D18*
X0062252Y0060492D01*
X0061944Y0060185D01*
X0057192Y0060317D02*
X0052900Y0060317D01*
X0052900Y0061515D02*
X0057192Y0061515D01*
X0057192Y0062714D02*
X0052900Y0062714D01*
X0052900Y0063912D02*
X0057192Y0063912D01*
X0057192Y0064868D02*
X0057192Y0055502D01*
X0058246Y0054448D01*
X0065643Y0054448D01*
X0066697Y0055502D01*
X0066697Y0064868D01*
X0066438Y0065127D01*
X0067201Y0065890D01*
X0067201Y0074480D01*
X0066147Y0075534D01*
X0058356Y0075534D01*
X0057302Y0074480D01*
X0057302Y0065890D01*
X0057758Y0065434D01*
X0057192Y0064868D01*
X0057435Y0065111D02*
X0052900Y0065111D01*
X0052900Y0066309D02*
X0057302Y0066309D01*
X0057302Y0067508D02*
X0052900Y0067508D01*
X0052900Y0068706D02*
X0057302Y0068706D01*
X0057302Y0069905D02*
X0052900Y0069905D01*
X0052900Y0071103D02*
X0057302Y0071103D01*
X0057302Y0072302D02*
X0052900Y0072302D01*
X0052900Y0073500D02*
X0057302Y0073500D01*
X0057521Y0074699D02*
X0052900Y0074699D01*
X0052900Y0075897D02*
X0071300Y0075897D01*
X0071300Y0075534D02*
X0069553Y0075534D01*
X0068499Y0074480D01*
X0068499Y0065890D01*
X0069435Y0064954D01*
X0069312Y0064740D01*
X0069203Y0064333D01*
X0069203Y0060785D01*
X0073155Y0060785D01*
X0073155Y0059585D01*
X0069203Y0059585D01*
X0069203Y0056037D01*
X0069312Y0055630D01*
X0069522Y0055266D01*
X0069820Y0054968D01*
X0070185Y0054757D01*
X0070592Y0054648D01*
X0073156Y0054648D01*
X0073156Y0059585D01*
X0074355Y0059585D01*
X0074355Y0054648D01*
X0076919Y0054648D01*
X0077326Y0054757D01*
X0077691Y0054968D01*
X0077989Y0055266D01*
X0078199Y0055630D01*
X0078308Y0056037D01*
X0078308Y0059585D01*
X0074356Y0059585D01*
X0074356Y0060785D01*
X0078308Y0060785D01*
X0078308Y0064333D01*
X0078199Y0064740D01*
X0077989Y0065104D01*
X0077800Y0065293D01*
X0078398Y0065890D01*
X0078398Y0068691D01*
X0079613Y0068691D01*
X0079613Y0067392D01*
X0080667Y0066338D01*
X0090033Y0066338D01*
X0091087Y0067392D01*
X0091087Y0072304D01*
X0097950Y0065441D01*
X0097950Y0052429D01*
X0096593Y0051072D01*
X0095926Y0051072D01*
X0094681Y0050557D01*
X0093728Y0049604D01*
X0093213Y0048359D01*
X0093213Y0047011D01*
X0093728Y0045766D01*
X0094681Y0044813D01*
X0095926Y0044298D01*
X0097274Y0044298D01*
X0098519Y0044813D01*
X0099100Y0045395D01*
X0099681Y0044813D01*
X0100926Y0044298D01*
X0101251Y0044298D01*
X0101251Y0036888D01*
X0102305Y0035834D01*
X0110895Y0035834D01*
X0111600Y0036539D01*
X0112305Y0035834D01*
X0120895Y0035834D01*
X0121600Y0036539D01*
X0122305Y0035834D01*
X0130895Y0035834D01*
X0131600Y0036539D01*
X0132305Y0035834D01*
X0140450Y0035834D01*
X0140450Y0034312D01*
X0140360Y0034336D01*
X0137200Y0034336D01*
X0137200Y0030187D01*
X0136000Y0030187D01*
X0136000Y0034336D01*
X0132840Y0034336D01*
X0132433Y0034227D01*
X0132068Y0034017D01*
X0131770Y0033719D01*
X0131600Y0033423D01*
X0131430Y0033719D01*
X0131132Y0034017D01*
X0130767Y0034227D01*
X0130360Y0034336D01*
X0127200Y0034336D01*
X0127200Y0030187D01*
X0126000Y0030187D01*
X0126000Y0034336D01*
X0122840Y0034336D01*
X0122433Y0034227D01*
X0122068Y0034017D01*
X0121770Y0033719D01*
X0121600Y0033423D01*
X0121430Y0033719D01*
X0121132Y0034017D01*
X0120767Y0034227D01*
X0120360Y0034336D01*
X0117200Y0034336D01*
X0117200Y0030187D01*
X0116000Y0030187D01*
X0116000Y0034336D01*
X0112840Y0034336D01*
X0112433Y0034227D01*
X0112068Y0034017D01*
X0111770Y0033719D01*
X0111600Y0033423D01*
X0111430Y0033719D01*
X0111132Y0034017D01*
X0110767Y0034227D01*
X0110360Y0034336D01*
X0107200Y0034336D01*
X0107200Y0030187D01*
X0106000Y0030187D01*
X0106000Y0034336D01*
X0102840Y0034336D01*
X0102433Y0034227D01*
X0102068Y0034017D01*
X0101770Y0033719D01*
X0101560Y0033354D01*
X0101451Y0032947D01*
X0101451Y0030187D01*
X0106000Y0030187D01*
X0106000Y0028987D01*
X0101451Y0028987D01*
X0101451Y0026226D01*
X0101560Y0025819D01*
X0101770Y0025455D01*
X0102068Y0025157D01*
X0102433Y0024946D01*
X0102840Y0024837D01*
X0106000Y0024837D01*
X0106000Y0028987D01*
X0107200Y0028987D01*
X0107200Y0030187D01*
X0111749Y0030187D01*
X0116000Y0030187D01*
X0116000Y0028987D01*
X0107200Y0028987D01*
X0107200Y0024837D01*
X0110360Y0024837D01*
X0110767Y0024946D01*
X0111132Y0025157D01*
X0111430Y0025455D01*
X0111600Y0025750D01*
X0111770Y0025455D01*
X0112068Y0025157D01*
X0112433Y0024946D01*
X0112840Y0024837D01*
X0116000Y0024837D01*
X0116000Y0028987D01*
X0117200Y0028987D01*
X0117200Y0030187D01*
X0121749Y0030187D01*
X0126000Y0030187D01*
X0126000Y0028987D01*
X0117200Y0028987D01*
X0117200Y0024837D01*
X0120360Y0024837D01*
X0120767Y0024946D01*
X0121132Y0025157D01*
X0121430Y0025455D01*
X0121600Y0025750D01*
X0121770Y0025455D01*
X0122068Y0025157D01*
X0122433Y0024946D01*
X0122840Y0024837D01*
X0126000Y0024837D01*
X0126000Y0028987D01*
X0127200Y0028987D01*
X0127200Y0030187D01*
X0131749Y0030187D01*
X0136000Y0030187D01*
X0136000Y0028987D01*
X0127200Y0028987D01*
X0127200Y0024837D01*
X0130360Y0024837D01*
X0130767Y0024946D01*
X0131132Y0025157D01*
X0131430Y0025455D01*
X0131600Y0025750D01*
X0131770Y0025455D01*
X0132068Y0025157D01*
X0132433Y0024946D01*
X0132840Y0024837D01*
X0136000Y0024837D01*
X0136000Y0028987D01*
X0137200Y0028987D01*
X0137200Y0030187D01*
X0140769Y0030187D01*
X0140815Y0030076D01*
X0141491Y0029400D01*
X0142065Y0028826D01*
X0142065Y0028826D01*
X0142501Y0028390D01*
X0142501Y0020691D01*
X0143555Y0019637D01*
X0152145Y0019637D01*
X0153199Y0020691D01*
X0153199Y0022187D01*
X0153560Y0022187D01*
X0154631Y0021116D01*
X0156395Y0020385D01*
X0164305Y0020385D01*
X0165659Y0020946D01*
X0165771Y0020170D01*
X0166528Y0018512D01*
X0166347Y0018694D01*
X0165761Y0019119D01*
X0165116Y0019448D01*
X0164427Y0019672D01*
X0163712Y0019785D01*
X0160750Y0019785D01*
X0160750Y0015585D01*
X0167865Y0015585D01*
X0167876Y0015562D01*
X0167876Y0015562D01*
X0171193Y0011733D01*
X0171193Y0011733D01*
X0174224Y0009785D01*
X0140801Y0009785D01*
X0141400Y0011230D01*
X0141400Y0019140D01*
X0140669Y0020904D01*
X0139319Y0022254D01*
X0137555Y0022985D01*
X0135645Y0022985D01*
X0133881Y0022254D01*
X0132531Y0020904D01*
X0131800Y0019140D01*
X0131800Y0011230D01*
X0132399Y0009785D01*
X0130801Y0009785D01*
X0131400Y0011230D01*
X0131400Y0019140D01*
X0130669Y0020904D01*
X0129319Y0022254D01*
X0127555Y0022985D01*
X0125645Y0022985D01*
X0123881Y0022254D01*
X0122531Y0020904D01*
X0121800Y0019140D01*
X0121800Y0011230D01*
X0122399Y0009785D01*
X0120801Y0009785D01*
X0121400Y0011230D01*
X0121400Y0019140D01*
X0120669Y0020904D01*
X0119319Y0022254D01*
X0117555Y0022985D01*
X0115645Y0022985D01*
X0113881Y0022254D01*
X0112531Y0020904D01*
X0111800Y0019140D01*
X0111800Y0011230D01*
X0112399Y0009785D01*
X0110801Y0009785D01*
X0111400Y0011230D01*
X0111400Y0019140D01*
X0110669Y0020904D01*
X0109319Y0022254D01*
X0107555Y0022985D01*
X0105645Y0022985D01*
X0103881Y0022254D01*
X0102531Y0020904D01*
X0101800Y0019140D01*
X0101800Y0011230D01*
X0102399Y0009785D01*
X0080324Y0009785D01*
X0083571Y0013033D01*
X0083929Y0013896D01*
X0085223Y0015190D01*
X0086126Y0017371D01*
X0086126Y0027999D01*
X0085223Y0030180D01*
X0083554Y0031849D01*
X0081373Y0032753D01*
X0079012Y0032753D01*
X0076831Y0031849D01*
X0075162Y0030180D01*
X0074259Y0027999D01*
X0074259Y0017371D01*
X0075109Y0015318D01*
X0074776Y0014985D01*
X0065004Y0014985D01*
X0065412Y0015546D01*
X0065821Y0016350D01*
X0066100Y0017208D01*
X0066241Y0018100D01*
X0066241Y0022085D01*
X0061108Y0022085D01*
X0061108Y0023285D01*
X0066241Y0023285D01*
X0066241Y0027270D01*
X0066100Y0028162D01*
X0065821Y0029020D01*
X0065412Y0029824D01*
X0064881Y0030554D01*
X0064243Y0031192D01*
X0063513Y0031723D01*
X0062709Y0032133D01*
X0061850Y0032412D01*
X0061107Y0032529D01*
X0061107Y0023285D01*
X0059907Y0023285D01*
X0059907Y0022085D01*
X0054774Y0022085D01*
X0054774Y0018100D01*
X0054915Y0017208D01*
X0055194Y0016350D01*
X0055603Y0015546D01*
X0056011Y0014985D01*
X0055674Y0014985D01*
X0052900Y0017759D01*
X0052900Y0121111D01*
X0060674Y0128885D01*
X0154406Y0128885D01*
X0154356Y0128835D01*
X0118623Y0128835D01*
X0117741Y0128470D01*
X0117065Y0127795D01*
X0116495Y0127224D01*
X0115946Y0127224D01*
X0114737Y0126723D01*
X0113928Y0125914D01*
X0113119Y0126723D01*
X0111910Y0127224D01*
X0111354Y0127224D01*
X0110483Y0127585D01*
X0095101Y0127585D01*
X0094713Y0127973D01*
X0093504Y0128474D01*
X0092196Y0128474D01*
X0090987Y0127973D01*
X0090062Y0127048D01*
X0089561Y0125839D01*
X0089561Y0124531D01*
X0090062Y0123322D01*
X0090799Y0122585D01*
X0069873Y0122585D01*
X0068991Y0122220D01*
X0065815Y0119045D01*
X0065450Y0118162D01*
X0065450Y0116186D01*
X0065062Y0115798D01*
X0064561Y0114589D01*
X0064561Y0113281D01*
X0065062Y0112072D01*
X0065987Y0111147D01*
X0067196Y0110646D01*
X0068504Y0110646D01*
X0068800Y0110769D01*
X0068800Y0083378D01*
X0069226Y0082349D01*
X0070014Y0081561D01*
X0071529Y0080046D01*
X0071300Y0079492D01*
X0071300Y0075534D01*
X0071300Y0077096D02*
X0052900Y0077096D01*
X0052900Y0078294D02*
X0071300Y0078294D01*
X0071300Y0079493D02*
X0052900Y0079493D01*
X0052900Y0080691D02*
X0070884Y0080691D01*
X0069685Y0081890D02*
X0052900Y0081890D01*
X0052900Y0083088D02*
X0068920Y0083088D01*
X0068800Y0084287D02*
X0052900Y0084287D01*
X0052900Y0085485D02*
X0068800Y0085485D01*
X0068800Y0086684D02*
X0052900Y0086684D01*
X0052900Y0087882D02*
X0068800Y0087882D01*
X0068800Y0089081D02*
X0052900Y0089081D01*
X0052900Y0090279D02*
X0068800Y0090279D01*
X0068800Y0091478D02*
X0052900Y0091478D01*
X0052900Y0092676D02*
X0068800Y0092676D01*
X0068800Y0093875D02*
X0052900Y0093875D01*
X0052900Y0095073D02*
X0068800Y0095073D01*
X0068800Y0096272D02*
X0052900Y0096272D01*
X0052900Y0097470D02*
X0068800Y0097470D01*
X0068800Y0098669D02*
X0052900Y0098669D01*
X0052900Y0099867D02*
X0068800Y0099867D01*
X0068800Y0101066D02*
X0052900Y0101066D01*
X0052900Y0102264D02*
X0068800Y0102264D01*
X0068800Y0103463D02*
X0052900Y0103463D01*
X0052900Y0104661D02*
X0068800Y0104661D01*
X0068800Y0105860D02*
X0052900Y0105860D01*
X0052900Y0107059D02*
X0068800Y0107059D01*
X0068800Y0108257D02*
X0052900Y0108257D01*
X0052900Y0109456D02*
X0068800Y0109456D01*
X0068800Y0110654D02*
X0068523Y0110654D01*
X0067177Y0110654D02*
X0052900Y0110654D01*
X0052900Y0111853D02*
X0065281Y0111853D01*
X0064656Y0113051D02*
X0052900Y0113051D01*
X0052900Y0114250D02*
X0064561Y0114250D01*
X0064917Y0115448D02*
X0052900Y0115448D01*
X0052900Y0116647D02*
X0065450Y0116647D01*
X0065450Y0117845D02*
X0052900Y0117845D01*
X0052900Y0119044D02*
X0065815Y0119044D01*
X0067013Y0120242D02*
X0052900Y0120242D01*
X0053230Y0121441D02*
X0068211Y0121441D01*
X0070350Y0120185D02*
X0067850Y0117685D01*
X0067850Y0113935D01*
X0070350Y0120185D02*
X0125350Y0120185D01*
X0127850Y0117685D01*
X0127850Y0101435D01*
X0131600Y0097685D01*
X0135350Y0097685D01*
X0135350Y0086435D01*
X0139100Y0082685D01*
X0164100Y0082685D01*
X0170350Y0076435D01*
X0170350Y0045185D01*
X0160350Y0035185D01*
X0159752Y0035783D01*
X0147850Y0035783D01*
X0145250Y0040733D02*
X0145250Y0049412D01*
X0144885Y0050295D01*
X0141135Y0054045D01*
X0140687Y0054492D01*
X0141697Y0055502D01*
X0141697Y0064868D01*
X0141438Y0065127D01*
X0142201Y0065890D01*
X0142201Y0074480D01*
X0141396Y0075285D01*
X0144304Y0075285D01*
X0143499Y0074480D01*
X0143499Y0065890D01*
X0144435Y0064954D01*
X0144312Y0064740D01*
X0144203Y0064333D01*
X0144203Y0060785D01*
X0148155Y0060785D01*
X0148155Y0059585D01*
X0144203Y0059585D01*
X0144203Y0056037D01*
X0144312Y0055630D01*
X0144522Y0055266D01*
X0144820Y0054968D01*
X0145185Y0054757D01*
X0145592Y0054648D01*
X0148156Y0054648D01*
X0148156Y0059585D01*
X0149355Y0059585D01*
X0149355Y0054648D01*
X0151919Y0054648D01*
X0152326Y0054757D01*
X0152691Y0054968D01*
X0152989Y0055266D01*
X0153199Y0055630D01*
X0153308Y0056037D01*
X0153308Y0059585D01*
X0149356Y0059585D01*
X0149356Y0060785D01*
X0153308Y0060785D01*
X0153308Y0064333D01*
X0153199Y0064740D01*
X0152989Y0065104D01*
X0152800Y0065293D01*
X0153398Y0065890D01*
X0153398Y0067785D01*
X0154613Y0067785D01*
X0154613Y0067392D01*
X0155667Y0066338D01*
X0165033Y0066338D01*
X0166087Y0067392D01*
X0166087Y0074789D01*
X0165033Y0075843D01*
X0162675Y0075843D01*
X0162389Y0076534D01*
X0162389Y0077089D01*
X0161888Y0078298D01*
X0160963Y0079223D01*
X0159754Y0079724D01*
X0158446Y0079724D01*
X0157389Y0079286D01*
X0157389Y0079589D01*
X0157101Y0080285D01*
X0163106Y0080285D01*
X0167950Y0075441D01*
X0167950Y0046179D01*
X0161756Y0039985D01*
X0156395Y0039985D01*
X0154631Y0039254D01*
X0153560Y0038183D01*
X0153199Y0038183D01*
X0153199Y0039679D01*
X0152145Y0040733D01*
X0145250Y0040733D01*
X0145250Y0041140D02*
X0162911Y0041140D01*
X0164110Y0042339D02*
X0145250Y0042339D01*
X0145250Y0043537D02*
X0165308Y0043537D01*
X0166507Y0044736D02*
X0145250Y0044736D01*
X0145250Y0045934D02*
X0167705Y0045934D01*
X0167950Y0047133D02*
X0145250Y0047133D01*
X0145250Y0048331D02*
X0167950Y0048331D01*
X0167950Y0049530D02*
X0145201Y0049530D01*
X0144451Y0050728D02*
X0167950Y0050728D01*
X0167950Y0051927D02*
X0143252Y0051927D01*
X0142054Y0053125D02*
X0167950Y0053125D01*
X0167950Y0054324D02*
X0140855Y0054324D01*
X0141697Y0055523D02*
X0144374Y0055523D01*
X0144203Y0056721D02*
X0141697Y0056721D01*
X0141697Y0057920D02*
X0144203Y0057920D01*
X0144203Y0059118D02*
X0141697Y0059118D01*
X0141697Y0060317D02*
X0148155Y0060317D01*
X0148756Y0060185D02*
X0144100Y0060185D01*
X0142459Y0061826D01*
X0141697Y0061515D02*
X0144203Y0061515D01*
X0144203Y0062714D02*
X0141697Y0062714D01*
X0141697Y0063912D02*
X0144203Y0063912D01*
X0144278Y0065111D02*
X0141454Y0065111D01*
X0142201Y0066309D02*
X0143499Y0066309D01*
X0143499Y0067508D02*
X0142201Y0067508D01*
X0142201Y0068706D02*
X0143499Y0068706D01*
X0143499Y0069905D02*
X0142201Y0069905D01*
X0142201Y0071103D02*
X0143499Y0071103D01*
X0143499Y0072302D02*
X0142201Y0072302D01*
X0142201Y0073500D02*
X0143499Y0073500D01*
X0143718Y0074699D02*
X0141982Y0074699D01*
X0137252Y0070185D02*
X0137252Y0060492D01*
X0136944Y0060185D01*
X0139100Y0052685D02*
X0132850Y0052685D01*
X0130350Y0055185D01*
X0130350Y0075185D01*
X0132850Y0077685D01*
X0152850Y0077685D01*
X0154100Y0078935D01*
X0157389Y0079493D02*
X0157887Y0079493D01*
X0160313Y0079493D02*
X0163898Y0079493D01*
X0165097Y0078294D02*
X0161890Y0078294D01*
X0162386Y0077096D02*
X0166295Y0077096D01*
X0167494Y0075897D02*
X0162653Y0075897D01*
X0160350Y0075185D02*
X0159100Y0076435D01*
X0160350Y0075185D02*
X0160350Y0071091D01*
X0159444Y0070185D01*
X0148448Y0070185D01*
X0152982Y0065111D02*
X0167950Y0065111D01*
X0167950Y0066309D02*
X0153398Y0066309D01*
X0153398Y0067508D02*
X0154613Y0067508D01*
X0153308Y0063912D02*
X0167950Y0063912D01*
X0167950Y0062714D02*
X0165814Y0062714D01*
X0165778Y0062850D02*
X0165567Y0063215D01*
X0165269Y0063513D01*
X0164905Y0063723D01*
X0164498Y0063832D01*
X0160950Y0063832D01*
X0160950Y0059880D01*
X0159750Y0059880D01*
X0159750Y0063832D01*
X0156202Y0063832D01*
X0155795Y0063723D01*
X0155431Y0063513D01*
X0155133Y0063215D01*
X0154922Y0062850D01*
X0154813Y0062443D01*
X0154813Y0059879D01*
X0159750Y0059879D01*
X0159750Y0058680D01*
X0154813Y0058680D01*
X0154813Y0056116D01*
X0154922Y0055709D01*
X0155133Y0055344D01*
X0155431Y0055046D01*
X0155795Y0054836D01*
X0156202Y0054727D01*
X0159750Y0054727D01*
X0159750Y0058679D01*
X0160950Y0058679D01*
X0160950Y0054727D01*
X0164498Y0054727D01*
X0164905Y0054836D01*
X0165269Y0055046D01*
X0165567Y0055344D01*
X0165778Y0055709D01*
X0165887Y0056116D01*
X0165887Y0058680D01*
X0160950Y0058680D01*
X0160950Y0059879D01*
X0165887Y0059879D01*
X0165887Y0062443D01*
X0165778Y0062850D01*
X0165887Y0061515D02*
X0167950Y0061515D01*
X0167950Y0060317D02*
X0165887Y0060317D01*
X0167950Y0059118D02*
X0160950Y0059118D01*
X0160350Y0059280D02*
X0149661Y0059280D01*
X0148756Y0060185D01*
X0149356Y0060317D02*
X0154813Y0060317D01*
X0154813Y0061515D02*
X0153308Y0061515D01*
X0153308Y0062714D02*
X0154886Y0062714D01*
X0153308Y0059118D02*
X0159750Y0059118D01*
X0159750Y0057920D02*
X0160950Y0057920D01*
X0160950Y0056721D02*
X0159750Y0056721D01*
X0159750Y0055523D02*
X0160950Y0055523D01*
X0165670Y0055523D02*
X0167950Y0055523D01*
X0167950Y0056721D02*
X0165887Y0056721D01*
X0165887Y0057920D02*
X0167950Y0057920D01*
X0172750Y0057920D02*
X0177047Y0057920D01*
X0177436Y0056981D02*
X0179105Y0055312D01*
X0181286Y0054409D01*
X0191914Y0054409D01*
X0194095Y0055312D01*
X0195764Y0056981D01*
X0196668Y0059162D01*
X0196668Y0061523D01*
X0195764Y0063704D01*
X0194095Y0065373D01*
X0191914Y0066276D01*
X0181286Y0066276D01*
X0179105Y0065373D01*
X0177436Y0063704D01*
X0176532Y0061523D01*
X0176532Y0059162D01*
X0177436Y0056981D01*
X0177696Y0056721D02*
X0172750Y0056721D01*
X0172750Y0055523D02*
X0178894Y0055523D01*
X0176551Y0059118D02*
X0172750Y0059118D01*
X0172750Y0060317D02*
X0176532Y0060317D01*
X0176532Y0061515D02*
X0172750Y0061515D01*
X0172750Y0062714D02*
X0177026Y0062714D01*
X0177644Y0063912D02*
X0172750Y0063912D01*
X0172750Y0065111D02*
X0178842Y0065111D01*
X0172750Y0066309D02*
X0200100Y0066309D01*
X0200100Y0065111D02*
X0194358Y0065111D01*
X0195556Y0063912D02*
X0200100Y0063912D01*
X0200100Y0062714D02*
X0196174Y0062714D01*
X0196668Y0061515D02*
X0200100Y0061515D01*
X0200100Y0060317D02*
X0196668Y0060317D01*
X0196649Y0059118D02*
X0200100Y0059118D01*
X0200100Y0057920D02*
X0196153Y0057920D01*
X0195504Y0056721D02*
X0200100Y0056721D01*
X0200100Y0055523D02*
X0194306Y0055523D01*
X0200100Y0054324D02*
X0172750Y0054324D01*
X0172750Y0053125D02*
X0200100Y0053125D01*
X0200100Y0051927D02*
X0172750Y0051927D01*
X0172750Y0050728D02*
X0200100Y0050728D01*
X0200100Y0049530D02*
X0172750Y0049530D01*
X0172750Y0048331D02*
X0200100Y0048331D01*
X0200100Y0047133D02*
X0172750Y0047133D01*
X0172750Y0045934D02*
X0200100Y0045934D01*
X0200100Y0044736D02*
X0172750Y0044736D01*
X0172750Y0044708D02*
X0172750Y0076912D01*
X0172385Y0077795D01*
X0171709Y0078470D01*
X0165459Y0084720D01*
X0164577Y0085085D01*
X0140094Y0085085D01*
X0137750Y0087429D01*
X0137750Y0095295D01*
X0138222Y0095766D01*
X0138737Y0097011D01*
X0138737Y0098359D01*
X0138222Y0099604D01*
X0137269Y0100557D01*
X0136024Y0101072D01*
X0134676Y0101072D01*
X0133431Y0100557D01*
X0132959Y0100085D01*
X0132594Y0100085D01*
X0130250Y0102429D01*
X0130250Y0118162D01*
X0130183Y0118324D01*
X0130963Y0118647D01*
X0131351Y0119035D01*
X0136099Y0119035D01*
X0135811Y0118339D01*
X0135811Y0117031D01*
X0136312Y0115822D01*
X0136700Y0115434D01*
X0136700Y0109936D01*
X0136312Y0109548D01*
X0135811Y0108339D01*
X0135811Y0107031D01*
X0136312Y0105822D01*
X0137237Y0104897D01*
X0138446Y0104396D01*
X0139754Y0104396D01*
X0140963Y0104897D01*
X0141888Y0105822D01*
X0142389Y0107031D01*
X0142389Y0108339D01*
X0141888Y0109548D01*
X0141500Y0109936D01*
X0141500Y0115434D01*
X0141888Y0115822D01*
X0142389Y0117031D01*
X0142389Y0118339D01*
X0142101Y0119035D01*
X0154577Y0119035D01*
X0155449Y0119396D01*
X0156004Y0119396D01*
X0157213Y0119897D01*
X0158138Y0120822D01*
X0158639Y0122031D01*
X0158639Y0123339D01*
X0158138Y0124548D01*
X0157498Y0125189D01*
X0157955Y0125646D01*
X0158504Y0125646D01*
X0159713Y0126147D01*
X0160638Y0127072D01*
X0161139Y0128281D01*
X0161139Y0129589D01*
X0160638Y0130798D01*
X0159713Y0131723D01*
X0158864Y0132075D01*
X0163753Y0136964D01*
X0164821Y0138033D01*
X0165400Y0139429D01*
X0165400Y0162820D01*
X0165645Y0163066D01*
X0166309Y0164668D01*
X0166309Y0166402D01*
X0165645Y0168004D01*
X0164419Y0169230D01*
X0162817Y0169894D01*
X0161083Y0169894D01*
X0159481Y0169230D01*
X0158255Y0168004D01*
X0157591Y0166402D01*
X0157591Y0164668D01*
X0157800Y0164163D01*
X0157800Y0141759D01*
X0152526Y0136485D01*
X0151201Y0136485D01*
X0151500Y0137208D01*
X0151500Y0150662D01*
X0151135Y0151545D01*
X0150459Y0152220D01*
X0149259Y0153420D01*
X0148377Y0153785D01*
X0144844Y0153785D01*
X0147959Y0156900D01*
X0147959Y0156900D01*
X0148635Y0157576D01*
X0149000Y0158458D01*
X0149000Y0180441D01*
X0159209Y0190650D01*
X0159885Y0191326D01*
X0160250Y0192208D01*
X0160250Y0192984D01*
X0160569Y0193116D01*
X0161919Y0194466D01*
X0162650Y0196230D01*
X0162650Y0204140D01*
X0161919Y0205904D01*
X0160569Y0207254D01*
X0159529Y0207685D01*
X0160569Y0208116D01*
X0161919Y0209466D01*
X0162650Y0211230D01*
X0162650Y0219140D01*
X0161919Y0220904D01*
X0160569Y0222254D01*
X0159246Y0222802D01*
X0159616Y0222922D01*
X0160261Y0223251D01*
X0160847Y0223676D01*
X0161359Y0224188D01*
X0161784Y0224774D01*
X0162113Y0225419D01*
X0162337Y0226108D01*
X0162450Y0226823D01*
X0162450Y0229785D01*
X0158250Y0229785D01*
X0158250Y0230585D01*
X0162450Y0230585D01*
X0162450Y0233547D01*
X0162337Y0234262D01*
X0162113Y0234951D01*
X0161784Y0235596D01*
X0161359Y0236182D01*
X0160847Y0236694D01*
X0160693Y0236806D01*
X0176917Y0236806D01*
X0175456Y0236376D01*
X0175456Y0236376D01*
X0171193Y0233637D01*
X0167876Y0229808D01*
X0165771Y0225200D01*
X0165771Y0225200D01*
X0165050Y0220185D01*
X0165771Y0215170D01*
X0167876Y0210562D01*
X0167876Y0210562D01*
X0171193Y0206733D01*
X0171193Y0206733D01*
X0175456Y0203994D01*
X0180317Y0202566D01*
X0185383Y0202566D01*
X0190244Y0203994D01*
X0190244Y0203994D01*
X0194506Y0206733D01*
X0194507Y0206733D02*
X0197824Y0210562D01*
X0199929Y0215170D01*
X0199929Y0215170D01*
X0200100Y0216363D01*
X0200100Y0029007D01*
X0199929Y0030200D01*
X0197824Y0034808D01*
X0197824Y0034808D01*
X0194507Y0038637D01*
X0194506Y0038637D01*
X0190244Y0041376D01*
X0185383Y0042804D01*
X0180317Y0042804D01*
X0175456Y0041376D01*
X0175456Y0041376D01*
X0171193Y0038637D01*
X0168150Y0035125D01*
X0168150Y0036140D01*
X0167419Y0037904D01*
X0166941Y0038382D01*
X0171709Y0043150D01*
X0172385Y0043826D01*
X0172750Y0044708D01*
X0172096Y0043537D02*
X0200100Y0043537D01*
X0200100Y0042339D02*
X0186967Y0042339D01*
X0190244Y0041376D02*
X0190244Y0041376D01*
X0190612Y0041140D02*
X0200100Y0041140D01*
X0200100Y0039942D02*
X0192477Y0039942D01*
X0194342Y0038743D02*
X0200100Y0038743D01*
X0200100Y0037545D02*
X0195453Y0037545D01*
X0196492Y0036346D02*
X0200100Y0036346D01*
X0200100Y0035148D02*
X0197530Y0035148D01*
X0198217Y0033949D02*
X0200100Y0033949D01*
X0200100Y0032751D02*
X0198764Y0032751D01*
X0199311Y0031552D02*
X0200100Y0031552D01*
X0200100Y0030354D02*
X0199859Y0030354D01*
X0199929Y0030200D02*
X0199929Y0030200D01*
X0200079Y0029155D02*
X0200100Y0029155D01*
X0178733Y0042339D02*
X0170898Y0042339D01*
X0169699Y0041140D02*
X0175088Y0041140D01*
X0173223Y0039942D02*
X0168501Y0039942D01*
X0167302Y0038743D02*
X0171358Y0038743D01*
X0171193Y0038637D02*
X0171193Y0038637D01*
X0171193Y0038637D01*
X0170247Y0037545D02*
X0167568Y0037545D01*
X0168064Y0036346D02*
X0169208Y0036346D01*
X0168170Y0035148D02*
X0168150Y0035148D01*
X0160350Y0025185D02*
X0159752Y0024587D01*
X0147850Y0024587D01*
X0147850Y0028935D01*
X0146600Y0030185D01*
X0144100Y0030185D01*
X0142850Y0031435D01*
X0142850Y0048935D01*
X0139100Y0052685D01*
X0136600Y0047685D02*
X0136600Y0040783D01*
X0131793Y0036346D02*
X0131407Y0036346D01*
X0131199Y0033949D02*
X0132001Y0033949D01*
X0136000Y0033949D02*
X0137200Y0033949D01*
X0137200Y0032751D02*
X0136000Y0032751D01*
X0136000Y0031552D02*
X0137200Y0031552D01*
X0137200Y0030354D02*
X0136000Y0030354D01*
X0136600Y0029587D02*
X0139698Y0029587D01*
X0141600Y0027685D01*
X0141600Y0020185D01*
X0146600Y0015185D01*
X0160350Y0015185D01*
X0160750Y0014785D02*
X0160750Y0010585D01*
X0163712Y0010585D01*
X0164427Y0010698D01*
X0165116Y0010922D01*
X0165761Y0011251D01*
X0166347Y0011676D01*
X0166859Y0012188D01*
X0167284Y0012774D01*
X0167613Y0013419D01*
X0167837Y0014108D01*
X0167944Y0014785D01*
X0160750Y0014785D01*
X0159950Y0014785D01*
X0159950Y0010585D01*
X0156988Y0010585D01*
X0156273Y0010698D01*
X0155584Y0010922D01*
X0154939Y0011251D01*
X0154353Y0011676D01*
X0153841Y0012188D01*
X0153416Y0012774D01*
X0153087Y0013419D01*
X0152863Y0014108D01*
X0152756Y0014785D01*
X0159950Y0014785D01*
X0159950Y0015585D01*
X0152756Y0015585D01*
X0152863Y0016262D01*
X0153087Y0016951D01*
X0153416Y0017596D01*
X0153841Y0018182D01*
X0154353Y0018694D01*
X0154939Y0019119D01*
X0155584Y0019448D01*
X0156273Y0019672D01*
X0156988Y0019785D01*
X0159950Y0019785D01*
X0159950Y0015585D01*
X0160750Y0015585D01*
X0160750Y0014785D01*
X0160750Y0014773D02*
X0159950Y0014773D01*
X0159950Y0013575D02*
X0160750Y0013575D01*
X0160750Y0012376D02*
X0159950Y0012376D01*
X0159950Y0011178D02*
X0160750Y0011178D01*
X0160750Y0015972D02*
X0159950Y0015972D01*
X0159950Y0017170D02*
X0160750Y0017170D01*
X0160750Y0018369D02*
X0159950Y0018369D01*
X0159950Y0019567D02*
X0160750Y0019567D01*
X0164749Y0019567D02*
X0166046Y0019567D01*
X0165771Y0020170D02*
X0165771Y0020170D01*
X0165685Y0020766D02*
X0165224Y0020766D01*
X0167942Y0014773D02*
X0168559Y0014773D01*
X0167663Y0013575D02*
X0169597Y0013575D01*
X0170636Y0012376D02*
X0166995Y0012376D01*
X0165617Y0011178D02*
X0172057Y0011178D01*
X0173922Y0009979D02*
X0140882Y0009979D01*
X0141378Y0011178D02*
X0155083Y0011178D01*
X0153705Y0012376D02*
X0141400Y0012376D01*
X0141400Y0013575D02*
X0153037Y0013575D01*
X0152758Y0014773D02*
X0141400Y0014773D01*
X0141400Y0015972D02*
X0152817Y0015972D01*
X0153199Y0017170D02*
X0141400Y0017170D01*
X0141400Y0018369D02*
X0154028Y0018369D01*
X0155951Y0019567D02*
X0141223Y0019567D01*
X0140727Y0020766D02*
X0142501Y0020766D01*
X0142501Y0021964D02*
X0139609Y0021964D01*
X0140360Y0024837D02*
X0137200Y0024837D01*
X0137200Y0028987D01*
X0141749Y0028987D01*
X0141749Y0026226D01*
X0141640Y0025819D01*
X0141430Y0025455D01*
X0141132Y0025157D01*
X0140767Y0024946D01*
X0140360Y0024837D01*
X0141490Y0025560D02*
X0142501Y0025560D01*
X0142501Y0026758D02*
X0141749Y0026758D01*
X0141749Y0027957D02*
X0142501Y0027957D01*
X0141736Y0029155D02*
X0137200Y0029155D01*
X0136600Y0029587D02*
X0126600Y0029587D01*
X0116600Y0029587D01*
X0106600Y0029587D01*
X0094698Y0029587D01*
X0089100Y0035185D01*
X0089100Y0046435D01*
X0085350Y0046435D02*
X0085350Y0059280D01*
X0074661Y0059280D01*
X0073756Y0060185D01*
X0074356Y0060317D02*
X0079813Y0060317D01*
X0079813Y0059879D02*
X0084750Y0059879D01*
X0084750Y0058680D01*
X0079813Y0058680D01*
X0079813Y0056116D01*
X0079922Y0055709D01*
X0080133Y0055344D01*
X0080431Y0055046D01*
X0080795Y0054836D01*
X0081202Y0054727D01*
X0084750Y0054727D01*
X0084750Y0058679D01*
X0085950Y0058679D01*
X0085950Y0054727D01*
X0089498Y0054727D01*
X0089905Y0054836D01*
X0090269Y0055046D01*
X0090567Y0055344D01*
X0090778Y0055709D01*
X0090887Y0056116D01*
X0090887Y0058680D01*
X0085950Y0058680D01*
X0085950Y0059879D01*
X0090887Y0059879D01*
X0090887Y0062443D01*
X0090778Y0062850D01*
X0090567Y0063215D01*
X0090269Y0063513D01*
X0089905Y0063723D01*
X0089498Y0063832D01*
X0085950Y0063832D01*
X0085950Y0059880D01*
X0084750Y0059880D01*
X0084750Y0063832D01*
X0081202Y0063832D01*
X0080795Y0063723D01*
X0080431Y0063513D01*
X0080133Y0063215D01*
X0079922Y0062850D01*
X0079813Y0062443D01*
X0079813Y0059879D01*
X0079813Y0061515D02*
X0078308Y0061515D01*
X0078308Y0062714D02*
X0079886Y0062714D01*
X0078308Y0063912D02*
X0097950Y0063912D01*
X0097950Y0062714D02*
X0090814Y0062714D01*
X0090887Y0061515D02*
X0097950Y0061515D01*
X0097950Y0060317D02*
X0090887Y0060317D01*
X0090887Y0057920D02*
X0097950Y0057920D01*
X0097950Y0059118D02*
X0085950Y0059118D01*
X0085950Y0057920D02*
X0084750Y0057920D01*
X0084750Y0059118D02*
X0078308Y0059118D01*
X0078308Y0057920D02*
X0079813Y0057920D01*
X0079813Y0056721D02*
X0078308Y0056721D01*
X0078137Y0055523D02*
X0080030Y0055523D01*
X0084750Y0055523D02*
X0085950Y0055523D01*
X0085950Y0056721D02*
X0084750Y0056721D01*
X0084750Y0060317D02*
X0085950Y0060317D01*
X0085950Y0061515D02*
X0084750Y0061515D01*
X0084750Y0062714D02*
X0085950Y0062714D01*
X0091087Y0067508D02*
X0095883Y0067508D01*
X0094685Y0068706D02*
X0091087Y0068706D01*
X0091087Y0069905D02*
X0093486Y0069905D01*
X0092288Y0071103D02*
X0091087Y0071103D01*
X0091087Y0072302D02*
X0091089Y0072302D01*
X0085350Y0071091D02*
X0074354Y0071091D01*
X0074100Y0070837D01*
X0073448Y0070185D01*
X0078398Y0067508D02*
X0079613Y0067508D01*
X0078398Y0066309D02*
X0097082Y0066309D01*
X0097950Y0065111D02*
X0077982Y0065111D01*
X0073155Y0060317D02*
X0066697Y0060317D01*
X0066697Y0061515D02*
X0069203Y0061515D01*
X0069203Y0062714D02*
X0066697Y0062714D01*
X0066697Y0063912D02*
X0069203Y0063912D01*
X0069278Y0065111D02*
X0066454Y0065111D01*
X0067201Y0066309D02*
X0068499Y0066309D01*
X0068499Y0067508D02*
X0067201Y0067508D01*
X0067201Y0068706D02*
X0068499Y0068706D01*
X0068499Y0069905D02*
X0067201Y0069905D01*
X0067201Y0071103D02*
X0068499Y0071103D01*
X0068499Y0072302D02*
X0067201Y0072302D01*
X0067201Y0073500D02*
X0068499Y0073500D01*
X0068718Y0074699D02*
X0066982Y0074699D01*
X0066697Y0059118D02*
X0069203Y0059118D01*
X0069203Y0057920D02*
X0066697Y0057920D01*
X0066697Y0056721D02*
X0069203Y0056721D01*
X0069374Y0055523D02*
X0066697Y0055523D01*
X0073156Y0055523D02*
X0074355Y0055523D01*
X0074355Y0056721D02*
X0073156Y0056721D01*
X0073156Y0057920D02*
X0074355Y0057920D01*
X0074355Y0059118D02*
X0073156Y0059118D01*
X0057192Y0059118D02*
X0052900Y0059118D01*
X0052900Y0057920D02*
X0057192Y0057920D01*
X0057192Y0056721D02*
X0052900Y0056721D01*
X0052900Y0055523D02*
X0057192Y0055523D01*
X0052900Y0054324D02*
X0097950Y0054324D01*
X0097950Y0055523D02*
X0090670Y0055523D01*
X0090887Y0056721D02*
X0097950Y0056721D01*
X0097950Y0053125D02*
X0052900Y0053125D01*
X0052900Y0051927D02*
X0097448Y0051927D01*
X0095096Y0050728D02*
X0052900Y0050728D01*
X0052900Y0049530D02*
X0093698Y0049530D01*
X0093213Y0048331D02*
X0052900Y0048331D01*
X0052900Y0047133D02*
X0093213Y0047133D01*
X0093659Y0045934D02*
X0052900Y0045934D01*
X0052900Y0044736D02*
X0094868Y0044736D01*
X0096600Y0047685D02*
X0100350Y0051435D01*
X0100350Y0066435D01*
X0075350Y0091435D01*
X0075350Y0110185D01*
X0076600Y0111435D01*
X0089848Y0123838D02*
X0055627Y0123838D01*
X0056825Y0125036D02*
X0089561Y0125036D01*
X0089725Y0126235D02*
X0058024Y0126235D01*
X0059222Y0127433D02*
X0090447Y0127433D01*
X0092850Y0125185D02*
X0110006Y0125185D01*
X0111256Y0123935D01*
X0113607Y0126235D02*
X0114248Y0126235D01*
X0116704Y0127433D02*
X0110849Y0127433D01*
X0116600Y0123935D02*
X0119100Y0126435D01*
X0155350Y0126435D01*
X0157850Y0128935D01*
X0160788Y0127433D02*
X0200100Y0127433D01*
X0200100Y0126235D02*
X0159801Y0126235D01*
X0157650Y0125036D02*
X0200100Y0125036D01*
X0200100Y0123838D02*
X0158433Y0123838D01*
X0158639Y0122639D02*
X0200100Y0122639D01*
X0200100Y0121441D02*
X0158395Y0121441D01*
X0157558Y0120242D02*
X0178974Y0120242D01*
X0179105Y0120373D02*
X0177436Y0118704D01*
X0176532Y0116523D01*
X0176532Y0114162D01*
X0177436Y0111981D01*
X0179105Y0110312D01*
X0181286Y0109409D01*
X0191914Y0109409D01*
X0194095Y0110312D01*
X0195764Y0111981D01*
X0196668Y0114162D01*
X0196668Y0116523D01*
X0195764Y0118704D01*
X0194095Y0120373D01*
X0191914Y0121276D01*
X0181286Y0121276D01*
X0179105Y0120373D01*
X0177775Y0119044D02*
X0154598Y0119044D01*
X0154100Y0121435D02*
X0155350Y0122685D01*
X0154100Y0121435D02*
X0129100Y0121435D01*
X0130250Y0117845D02*
X0135811Y0117845D01*
X0135970Y0116647D02*
X0130250Y0116647D01*
X0130250Y0115448D02*
X0136686Y0115448D01*
X0136700Y0114250D02*
X0130250Y0114250D01*
X0130250Y0113051D02*
X0136700Y0113051D01*
X0136700Y0111853D02*
X0130250Y0111853D01*
X0130250Y0110654D02*
X0136700Y0110654D01*
X0136273Y0109456D02*
X0130250Y0109456D01*
X0130250Y0108257D02*
X0135811Y0108257D01*
X0135811Y0107059D02*
X0130250Y0107059D01*
X0130250Y0105860D02*
X0136296Y0105860D01*
X0137805Y0104661D02*
X0130250Y0104661D01*
X0130250Y0103463D02*
X0200100Y0103463D01*
X0200100Y0104661D02*
X0140395Y0104661D01*
X0141904Y0105860D02*
X0200100Y0105860D01*
X0200100Y0107059D02*
X0142389Y0107059D01*
X0142389Y0108257D02*
X0200100Y0108257D01*
X0200100Y0109456D02*
X0192027Y0109456D01*
X0194437Y0110654D02*
X0200100Y0110654D01*
X0200100Y0111853D02*
X0195636Y0111853D01*
X0196207Y0113051D02*
X0200100Y0113051D01*
X0200100Y0114250D02*
X0196668Y0114250D01*
X0196668Y0115448D02*
X0200100Y0115448D01*
X0200100Y0116647D02*
X0196616Y0116647D01*
X0196120Y0117845D02*
X0200100Y0117845D01*
X0200100Y0119044D02*
X0195424Y0119044D01*
X0194226Y0120242D02*
X0200100Y0120242D01*
X0200100Y0128632D02*
X0161139Y0128632D01*
X0161039Y0129830D02*
X0179508Y0129830D01*
X0179105Y0129997D02*
X0181286Y0129094D01*
X0191914Y0129094D01*
X0194095Y0129997D01*
X0195764Y0131666D01*
X0196668Y0133847D01*
X0196668Y0136208D01*
X0195764Y0138389D01*
X0194095Y0140058D01*
X0191914Y0140961D01*
X0181286Y0140961D01*
X0179105Y0140058D01*
X0177436Y0138389D01*
X0176532Y0136208D01*
X0176532Y0133847D01*
X0177436Y0131666D01*
X0179105Y0129997D01*
X0178073Y0131029D02*
X0160408Y0131029D01*
X0159016Y0132227D02*
X0177203Y0132227D01*
X0176707Y0133426D02*
X0160215Y0133426D01*
X0161413Y0134624D02*
X0176532Y0134624D01*
X0176532Y0135823D02*
X0162612Y0135823D01*
X0163810Y0137021D02*
X0176869Y0137021D01*
X0177366Y0138220D02*
X0164899Y0138220D01*
X0165395Y0139418D02*
X0178465Y0139418D01*
X0180454Y0140617D02*
X0165400Y0140617D01*
X0165400Y0141815D02*
X0200100Y0141815D01*
X0200100Y0140617D02*
X0192746Y0140617D01*
X0194735Y0139418D02*
X0200100Y0139418D01*
X0200100Y0138220D02*
X0195834Y0138220D01*
X0196331Y0137021D02*
X0200100Y0137021D01*
X0200100Y0135823D02*
X0196668Y0135823D01*
X0196668Y0134624D02*
X0200100Y0134624D01*
X0200100Y0133426D02*
X0196493Y0133426D01*
X0195997Y0132227D02*
X0200100Y0132227D01*
X0200100Y0131029D02*
X0195127Y0131029D01*
X0193692Y0129830D02*
X0200100Y0129830D01*
X0200100Y0143014D02*
X0165400Y0143014D01*
X0165400Y0144212D02*
X0200100Y0144212D01*
X0200100Y0145411D02*
X0165400Y0145411D01*
X0165400Y0146609D02*
X0200100Y0146609D01*
X0200100Y0147808D02*
X0165400Y0147808D01*
X0165400Y0149006D02*
X0200100Y0149006D01*
X0200100Y0150205D02*
X0165400Y0150205D01*
X0165400Y0151403D02*
X0200100Y0151403D01*
X0200100Y0152602D02*
X0165400Y0152602D01*
X0165400Y0153800D02*
X0200100Y0153800D01*
X0200100Y0154999D02*
X0165400Y0154999D01*
X0165400Y0156197D02*
X0200100Y0156197D01*
X0200100Y0157396D02*
X0165400Y0157396D01*
X0165400Y0158594D02*
X0200100Y0158594D01*
X0200100Y0159793D02*
X0165400Y0159793D01*
X0165400Y0160992D02*
X0200100Y0160992D01*
X0200100Y0162190D02*
X0165400Y0162190D01*
X0165779Y0163389D02*
X0200100Y0163389D01*
X0200100Y0164587D02*
X0166276Y0164587D01*
X0166309Y0165786D02*
X0200100Y0165786D01*
X0200100Y0166984D02*
X0166068Y0166984D01*
X0165467Y0168183D02*
X0200100Y0168183D01*
X0200100Y0169381D02*
X0164056Y0169381D01*
X0159844Y0169381D02*
X0149000Y0169381D01*
X0149000Y0168183D02*
X0158433Y0168183D01*
X0157832Y0166984D02*
X0149000Y0166984D01*
X0149000Y0165786D02*
X0157591Y0165786D01*
X0157624Y0164587D02*
X0149000Y0164587D01*
X0149000Y0163389D02*
X0157800Y0163389D01*
X0157800Y0162190D02*
X0149000Y0162190D01*
X0149000Y0160992D02*
X0157800Y0160992D01*
X0157800Y0159793D02*
X0149000Y0159793D01*
X0149000Y0158594D02*
X0157800Y0158594D01*
X0157800Y0157396D02*
X0148455Y0157396D01*
X0147257Y0156197D02*
X0157800Y0156197D01*
X0157800Y0154999D02*
X0146058Y0154999D01*
X0144859Y0153800D02*
X0157800Y0153800D01*
X0157800Y0152602D02*
X0150077Y0152602D01*
X0151193Y0151403D02*
X0157800Y0151403D01*
X0157800Y0150205D02*
X0151500Y0150205D01*
X0151500Y0149006D02*
X0157800Y0149006D01*
X0157800Y0147808D02*
X0151500Y0147808D01*
X0151500Y0146609D02*
X0157800Y0146609D01*
X0157800Y0145411D02*
X0151500Y0145411D01*
X0151500Y0144212D02*
X0157800Y0144212D01*
X0157800Y0143014D02*
X0151500Y0143014D01*
X0151500Y0141815D02*
X0157800Y0141815D01*
X0156658Y0140617D02*
X0151500Y0140617D01*
X0151500Y0139418D02*
X0155459Y0139418D01*
X0154261Y0138220D02*
X0151500Y0138220D01*
X0151423Y0137021D02*
X0153062Y0137021D01*
X0149100Y0137685D02*
X0147850Y0136435D01*
X0054100Y0136435D01*
X0050350Y0140185D01*
X0050350Y0167685D01*
X0047850Y0170185D01*
X0040350Y0170185D01*
X0039950Y0164785D02*
X0036988Y0164785D01*
X0036273Y0164672D01*
X0035584Y0164448D01*
X0034939Y0164119D01*
X0034353Y0163694D01*
X0033841Y0163182D01*
X0033416Y0162596D01*
X0033087Y0161951D01*
X0032863Y0161262D01*
X0032756Y0160585D01*
X0039950Y0160585D01*
X0039950Y0159785D01*
X0040750Y0159785D01*
X0040750Y0155585D01*
X0043712Y0155585D01*
X0044427Y0155698D01*
X0045116Y0155922D01*
X0045761Y0156251D01*
X0046347Y0156676D01*
X0046859Y0157188D01*
X0047284Y0157774D01*
X0047613Y0158419D01*
X0047837Y0159108D01*
X0047944Y0159785D01*
X0040750Y0159785D01*
X0040750Y0160585D01*
X0047944Y0160585D01*
X0047837Y0161262D01*
X0047613Y0161951D01*
X0047284Y0162596D01*
X0046859Y0163182D01*
X0046347Y0163694D01*
X0045761Y0164119D01*
X0045116Y0164448D01*
X0044427Y0164672D01*
X0043712Y0164785D01*
X0040750Y0164785D01*
X0040750Y0160585D01*
X0039950Y0160585D01*
X0039950Y0164785D01*
X0039950Y0164587D02*
X0040750Y0164587D01*
X0040750Y0163389D02*
X0039950Y0163389D01*
X0039950Y0162190D02*
X0040750Y0162190D01*
X0040750Y0160992D02*
X0039950Y0160992D01*
X0039950Y0159793D02*
X0023250Y0159793D01*
X0023250Y0159785D02*
X0023250Y0160585D01*
X0030444Y0160585D01*
X0030337Y0161262D01*
X0030113Y0161951D01*
X0029784Y0162596D01*
X0029359Y0163182D01*
X0028847Y0163694D01*
X0028261Y0164119D01*
X0027616Y0164448D01*
X0026927Y0164672D01*
X0026212Y0164785D01*
X0023250Y0164785D01*
X0023250Y0160585D01*
X0022450Y0160585D01*
X0022450Y0159785D01*
X0023250Y0159785D01*
X0023250Y0155585D01*
X0026212Y0155585D01*
X0026927Y0155698D01*
X0027616Y0155922D01*
X0028261Y0156251D01*
X0028847Y0156676D01*
X0029359Y0157188D01*
X0029784Y0157774D01*
X0030113Y0158419D01*
X0030337Y0159108D01*
X0030444Y0159785D01*
X0023250Y0159785D01*
X0022450Y0159785D02*
X0022450Y0155585D01*
X0019488Y0155585D01*
X0018773Y0155698D01*
X0018084Y0155922D01*
X0017439Y0156251D01*
X0016853Y0156676D01*
X0016341Y0157188D01*
X0015916Y0157774D01*
X0015587Y0158419D01*
X0015363Y0159108D01*
X0015256Y0159785D01*
X0022450Y0159785D01*
X0022450Y0159793D02*
X0012450Y0159793D01*
X0012450Y0158594D02*
X0015530Y0158594D01*
X0016190Y0157396D02*
X0012450Y0157396D01*
X0012450Y0156197D02*
X0017544Y0156197D01*
X0022450Y0156197D02*
X0023250Y0156197D01*
X0023250Y0157396D02*
X0022450Y0157396D01*
X0022450Y0158594D02*
X0023250Y0158594D01*
X0022450Y0160585D02*
X0015256Y0160585D01*
X0015363Y0161262D01*
X0015587Y0161951D01*
X0015916Y0162596D01*
X0016341Y0163182D01*
X0016853Y0163694D01*
X0017439Y0164119D01*
X0018084Y0164448D01*
X0018773Y0164672D01*
X0019488Y0164785D01*
X0022450Y0164785D01*
X0022450Y0160585D01*
X0022450Y0160992D02*
X0023250Y0160992D01*
X0023250Y0162190D02*
X0022450Y0162190D01*
X0022450Y0163389D02*
X0023250Y0163389D01*
X0023250Y0164587D02*
X0022450Y0164587D01*
X0018895Y0165385D02*
X0026805Y0165385D01*
X0028569Y0166116D01*
X0029919Y0167466D01*
X0030650Y0169230D01*
X0030650Y0171140D01*
X0030371Y0171812D01*
X0033635Y0175076D01*
X0034000Y0175958D01*
X0034000Y0176747D01*
X0034631Y0176116D01*
X0036395Y0175385D01*
X0044305Y0175385D01*
X0046069Y0176116D01*
X0047419Y0177466D01*
X0047551Y0177785D01*
X0055606Y0177785D01*
X0060450Y0172941D01*
X0060450Y0154729D01*
X0058635Y0156545D01*
X0058143Y0157036D01*
X0058138Y0157048D01*
X0057213Y0157973D01*
X0056004Y0158474D01*
X0054696Y0158474D01*
X0053487Y0157973D01*
X0052750Y0157236D01*
X0052750Y0168162D01*
X0052385Y0169045D01*
X0051709Y0169720D01*
X0049885Y0171545D01*
X0049209Y0172220D01*
X0048327Y0172585D01*
X0047551Y0172585D01*
X0047419Y0172904D01*
X0046069Y0174254D01*
X0044305Y0174985D01*
X0036395Y0174985D01*
X0034631Y0174254D01*
X0033281Y0172904D01*
X0032550Y0171140D01*
X0032550Y0169230D01*
X0033281Y0167466D01*
X0034631Y0166116D01*
X0036395Y0165385D01*
X0044305Y0165385D01*
X0046069Y0166116D01*
X0047297Y0167344D01*
X0047950Y0166691D01*
X0047950Y0139708D01*
X0048315Y0138826D01*
X0048991Y0138150D01*
X0052741Y0134400D01*
X0053623Y0134035D01*
X0055076Y0134035D01*
X0045879Y0124838D01*
X0045300Y0123441D01*
X0045300Y0027619D01*
X0044929Y0030200D01*
X0042824Y0034808D01*
X0039507Y0038637D01*
X0035244Y0041376D01*
X0030383Y0042804D01*
X0025317Y0042804D01*
X0020456Y0041376D01*
X0020456Y0041376D01*
X0016193Y0038637D01*
X0012876Y0034808D01*
X0012450Y0033876D01*
X0012450Y0211494D01*
X0012876Y0210562D01*
X0016193Y0206733D01*
X0016193Y0206733D01*
X0020456Y0203994D01*
X0025317Y0202566D01*
X0030383Y0202566D01*
X0035244Y0203994D01*
X0035244Y0203994D01*
X0039506Y0206733D01*
X0039507Y0206733D02*
X0042824Y0210562D01*
X0044929Y0215170D01*
X0044929Y0215170D01*
X0045650Y0220185D01*
X0044929Y0225200D01*
X0042824Y0229808D01*
X0042824Y0229808D01*
X0039507Y0233637D01*
X0039506Y0233637D01*
X0035244Y0236376D01*
X0033783Y0236806D01*
X0085007Y0236806D01*
X0084853Y0236694D01*
X0084341Y0236182D01*
X0083916Y0235596D01*
X0083587Y0234951D01*
X0083363Y0234262D01*
X0083250Y0233547D01*
X0083250Y0230585D01*
X0087450Y0230585D01*
X0087450Y0229785D01*
X0083250Y0229785D01*
X0083250Y0226823D01*
X0083363Y0226108D01*
X0083587Y0225419D01*
X0083916Y0224774D01*
X0084341Y0224188D01*
X0084853Y0223676D01*
X0085439Y0223251D01*
X0086084Y0222922D01*
X0086454Y0222802D01*
X0085131Y0222254D01*
X0083781Y0220904D01*
X0083050Y0219140D01*
X0083050Y0211230D01*
X0083781Y0209466D01*
X0085131Y0208116D01*
X0086171Y0207685D01*
X0085131Y0207254D01*
X0083781Y0205904D01*
X0083050Y0204140D01*
X0083050Y0196230D01*
X0083781Y0194466D01*
X0085131Y0193116D01*
X0085450Y0192984D01*
X0085450Y0190958D01*
X0085815Y0190076D01*
X0086491Y0189400D01*
X0092950Y0182941D01*
X0092950Y0158458D01*
X0093315Y0157576D01*
X0093991Y0156900D01*
X0101541Y0149350D01*
X0102423Y0148985D01*
X0106850Y0148985D01*
X0106850Y0148885D01*
X0106850Y0147974D01*
X0106954Y0147585D01*
X0106850Y0147196D01*
X0106850Y0146285D01*
X0106850Y0145374D01*
X0106859Y0145340D01*
X0106650Y0145131D01*
X0106650Y0143835D01*
X0098651Y0143835D01*
X0099388Y0144572D01*
X0099889Y0145781D01*
X0099889Y0147089D01*
X0099388Y0148298D01*
X0098463Y0149223D01*
X0097254Y0149724D01*
X0095946Y0149724D01*
X0094737Y0149223D01*
X0093812Y0148298D01*
X0093311Y0147089D01*
X0093311Y0146540D01*
X0093106Y0146335D01*
X0065250Y0146335D01*
X0065250Y0174412D01*
X0064885Y0175295D01*
X0064209Y0175970D01*
X0057959Y0182220D01*
X0057077Y0182585D01*
X0047551Y0182585D01*
X0047419Y0182904D01*
X0046288Y0184035D01*
X0063106Y0184035D01*
X0065450Y0181691D01*
X0065450Y0181186D01*
X0065062Y0180798D01*
X0064561Y0179589D01*
X0064561Y0178281D01*
X0065062Y0177072D01*
X0065987Y0176147D01*
X0067196Y0175646D01*
X0068504Y0175646D01*
X0069685Y0176135D01*
X0076690Y0176135D01*
X0080823Y0172002D01*
X0081312Y0170822D01*
X0082237Y0169897D01*
X0083446Y0169396D01*
X0084754Y0169396D01*
X0085963Y0169897D01*
X0086888Y0170822D01*
X0087389Y0172031D01*
X0087389Y0173339D01*
X0086888Y0174548D01*
X0085963Y0175473D01*
X0084783Y0175962D01*
X0080224Y0180521D01*
X0079436Y0181309D01*
X0078407Y0181735D01*
X0070250Y0181735D01*
X0070250Y0183162D01*
X0069885Y0184045D01*
X0069209Y0184720D01*
X0066135Y0187795D01*
X0065459Y0188470D01*
X0064577Y0188835D01*
X0033623Y0188835D01*
X0032741Y0188470D01*
X0032065Y0187795D01*
X0032065Y0187795D01*
X0029565Y0185295D01*
X0029200Y0184412D01*
X0029200Y0183623D01*
X0028569Y0184254D01*
X0026805Y0184985D01*
X0018895Y0184985D01*
X0017131Y0184254D01*
X0015781Y0182904D01*
X0015050Y0181140D01*
X0015050Y0179230D01*
X0015781Y0177466D01*
X0017131Y0176116D01*
X0018895Y0175385D01*
X0026805Y0175385D01*
X0027404Y0175633D01*
X0026756Y0174985D01*
X0018895Y0174985D01*
X0017131Y0174254D01*
X0015781Y0172904D01*
X0015050Y0171140D01*
X0015050Y0169230D01*
X0015781Y0167466D01*
X0017131Y0166116D01*
X0018895Y0165385D01*
X0018512Y0164587D02*
X0012450Y0164587D01*
X0012450Y0163389D02*
X0016548Y0163389D01*
X0015709Y0162190D02*
X0012450Y0162190D01*
X0012450Y0160992D02*
X0015320Y0160992D01*
X0017928Y0165786D02*
X0012450Y0165786D01*
X0012450Y0166984D02*
X0016263Y0166984D01*
X0015484Y0168183D02*
X0012450Y0168183D01*
X0012450Y0169381D02*
X0015050Y0169381D01*
X0015050Y0170580D02*
X0012450Y0170580D01*
X0012450Y0171778D02*
X0015314Y0171778D01*
X0015853Y0172977D02*
X0012450Y0172977D01*
X0012450Y0174175D02*
X0017052Y0174175D01*
X0016675Y0176572D02*
X0012450Y0176572D01*
X0012450Y0175374D02*
X0027145Y0175374D01*
X0031600Y0176435D02*
X0025350Y0170185D01*
X0022850Y0170185D01*
X0027772Y0165786D02*
X0035428Y0165786D01*
X0036012Y0164587D02*
X0027188Y0164587D01*
X0029152Y0163389D02*
X0034048Y0163389D01*
X0033209Y0162190D02*
X0029991Y0162190D01*
X0030380Y0160992D02*
X0032820Y0160992D01*
X0032756Y0159785D02*
X0032863Y0159108D01*
X0033087Y0158419D01*
X0033416Y0157774D01*
X0033841Y0157188D01*
X0034353Y0156676D01*
X0034939Y0156251D01*
X0035584Y0155922D01*
X0036273Y0155698D01*
X0036988Y0155585D01*
X0039950Y0155585D01*
X0039950Y0159785D01*
X0032756Y0159785D01*
X0033030Y0158594D02*
X0030170Y0158594D01*
X0029510Y0157396D02*
X0033690Y0157396D01*
X0035044Y0156197D02*
X0028156Y0156197D01*
X0029437Y0166984D02*
X0033763Y0166984D01*
X0032984Y0168183D02*
X0030216Y0168183D01*
X0030650Y0169381D02*
X0032550Y0169381D01*
X0032550Y0170580D02*
X0030650Y0170580D01*
X0030386Y0171778D02*
X0032814Y0171778D01*
X0033353Y0172977D02*
X0031536Y0172977D01*
X0032734Y0174175D02*
X0034552Y0174175D01*
X0033758Y0175374D02*
X0058017Y0175374D01*
X0056819Y0176572D02*
X0046525Y0176572D01*
X0047545Y0177771D02*
X0055620Y0177771D01*
X0056600Y0180185D02*
X0062850Y0173935D01*
X0062850Y0145185D01*
X0064100Y0143935D01*
X0094100Y0143935D01*
X0096600Y0146435D01*
X0093609Y0147808D02*
X0065250Y0147808D01*
X0065250Y0149006D02*
X0094520Y0149006D01*
X0093311Y0146609D02*
X0065250Y0146609D01*
X0065250Y0150205D02*
X0100686Y0150205D01*
X0100350Y0148935D02*
X0106600Y0148935D01*
X0106600Y0146435D01*
X0106750Y0146285D01*
X0111350Y0146285D01*
X0111350Y0146285D01*
X0115850Y0146285D01*
X0115850Y0146085D01*
X0117163Y0146085D01*
X0117562Y0147048D01*
X0118487Y0147973D01*
X0119696Y0148474D01*
X0121004Y0148474D01*
X0122213Y0147973D01*
X0123138Y0147048D01*
X0123537Y0146085D01*
X0126356Y0146085D01*
X0126356Y0161948D01*
X0125057Y0161948D01*
X0124003Y0163002D01*
X0124003Y0172368D01*
X0124320Y0172685D01*
X0124003Y0173002D01*
X0124003Y0182368D01*
X0124781Y0183146D01*
X0124696Y0183146D01*
X0123487Y0183647D01*
X0122562Y0184572D01*
X0122061Y0185781D01*
X0122061Y0187089D01*
X0122562Y0188298D01*
X0123487Y0189223D01*
X0124696Y0189724D01*
X0126004Y0189724D01*
X0127213Y0189223D01*
X0128138Y0188298D01*
X0128639Y0187089D01*
X0128639Y0186540D01*
X0130790Y0184389D01*
X0131155Y0183507D01*
X0131155Y0183422D01*
X0132454Y0183422D01*
X0133508Y0182368D01*
X0133508Y0173002D01*
X0133191Y0172685D01*
X0133508Y0172368D01*
X0133508Y0164185D01*
X0136700Y0164185D01*
X0136700Y0180441D01*
X0125815Y0191326D01*
X0125450Y0192208D01*
X0125450Y0192984D01*
X0125131Y0193116D01*
X0123781Y0194466D01*
X0123050Y0196230D01*
X0123050Y0204140D01*
X0123781Y0205904D01*
X0125131Y0207254D01*
X0126171Y0207685D01*
X0125131Y0208116D01*
X0123781Y0209466D01*
X0123050Y0211230D01*
X0123050Y0219140D01*
X0123781Y0220904D01*
X0125131Y0222254D01*
X0126454Y0222802D01*
X0126084Y0222922D01*
X0125439Y0223251D01*
X0124853Y0223676D01*
X0124341Y0224188D01*
X0123916Y0224774D01*
X0123587Y0225419D01*
X0123363Y0226108D01*
X0123250Y0226823D01*
X0123250Y0229785D01*
X0127450Y0229785D01*
X0127450Y0230585D01*
X0123250Y0230585D01*
X0123250Y0233547D01*
X0123363Y0234262D01*
X0123587Y0234951D01*
X0123916Y0235596D01*
X0124341Y0236182D01*
X0124853Y0236694D01*
X0125007Y0236806D01*
X0120693Y0236806D01*
X0120847Y0236694D01*
X0121359Y0236182D01*
X0121784Y0235596D01*
X0122113Y0234951D01*
X0122337Y0234262D01*
X0122450Y0233547D01*
X0122450Y0230585D01*
X0118250Y0230585D01*
X0118250Y0229785D01*
X0122450Y0229785D01*
X0122450Y0226823D01*
X0122337Y0226108D01*
X0122113Y0225419D01*
X0121784Y0224774D01*
X0121359Y0224188D01*
X0120847Y0223676D01*
X0120261Y0223251D01*
X0119616Y0222922D01*
X0119246Y0222802D01*
X0120569Y0222254D01*
X0121919Y0220904D01*
X0122650Y0219140D01*
X0122650Y0211230D01*
X0121919Y0209466D01*
X0120569Y0208116D01*
X0119529Y0207685D01*
X0120569Y0207254D01*
X0121919Y0205904D01*
X0122650Y0204140D01*
X0122650Y0196230D01*
X0121919Y0194466D01*
X0120569Y0193116D01*
X0120250Y0192984D01*
X0120250Y0192208D01*
X0119885Y0191326D01*
X0119209Y0190650D01*
X0106500Y0177941D01*
X0106500Y0162429D01*
X0106850Y0162079D01*
X0106850Y0162596D01*
X0106959Y0163003D01*
X0107170Y0163367D01*
X0107468Y0163665D01*
X0107832Y0163876D01*
X0108239Y0163985D01*
X0111350Y0163985D01*
X0111350Y0161685D01*
X0115600Y0161685D01*
X0116600Y0160685D01*
X0116600Y0158236D01*
X0116050Y0158594D02*
X0126356Y0158594D01*
X0126356Y0157396D02*
X0116050Y0157396D01*
X0116050Y0156197D02*
X0126356Y0156197D01*
X0126356Y0154999D02*
X0116050Y0154999D01*
X0116050Y0153800D02*
X0126356Y0153800D01*
X0126356Y0152602D02*
X0116050Y0152602D01*
X0116050Y0151403D02*
X0126356Y0151403D01*
X0126356Y0150205D02*
X0116050Y0150205D01*
X0116050Y0149939D02*
X0116050Y0160531D01*
X0115841Y0160740D01*
X0115850Y0160774D01*
X0115850Y0161685D01*
X0111350Y0161685D01*
X0111350Y0161685D01*
X0115850Y0161685D01*
X0115850Y0162148D01*
X0116345Y0162148D01*
X0116345Y0167085D01*
X0117544Y0167085D01*
X0117544Y0162148D01*
X0120108Y0162148D01*
X0120515Y0162257D01*
X0120880Y0162468D01*
X0121178Y0162766D01*
X0121388Y0163130D01*
X0121497Y0163537D01*
X0121497Y0167085D01*
X0117545Y0167085D01*
X0117545Y0168285D01*
X0121497Y0168285D01*
X0121497Y0171833D01*
X0121388Y0172240D01*
X0121178Y0172604D01*
X0121097Y0172685D01*
X0121178Y0172766D01*
X0121388Y0173130D01*
X0121497Y0173537D01*
X0121497Y0177085D01*
X0117545Y0177085D01*
X0117545Y0178285D01*
X0121497Y0178285D01*
X0121497Y0181833D01*
X0121388Y0182240D01*
X0121178Y0182604D01*
X0120880Y0182902D01*
X0120515Y0183113D01*
X0120108Y0183222D01*
X0117544Y0183222D01*
X0117544Y0178285D01*
X0116345Y0178285D01*
X0116345Y0183222D01*
X0113781Y0183222D01*
X0113374Y0183113D01*
X0113009Y0182902D01*
X0112711Y0182604D01*
X0112501Y0182240D01*
X0112392Y0181833D01*
X0112392Y0178285D01*
X0116344Y0178285D01*
X0116344Y0177085D01*
X0112392Y0177085D01*
X0112392Y0173537D01*
X0112501Y0173130D01*
X0112711Y0172766D01*
X0112792Y0172685D01*
X0112711Y0172604D01*
X0112501Y0172240D01*
X0112392Y0171833D01*
X0112392Y0168285D01*
X0116344Y0168285D01*
X0116344Y0167085D01*
X0112392Y0167085D01*
X0112392Y0163985D01*
X0111350Y0163985D01*
X0111350Y0161685D01*
X0111350Y0161685D01*
X0111350Y0162190D02*
X0111350Y0162190D01*
X0111350Y0163389D02*
X0111350Y0163389D01*
X0112392Y0164587D02*
X0106500Y0164587D01*
X0106500Y0163389D02*
X0107191Y0163389D01*
X0106850Y0162190D02*
X0106739Y0162190D01*
X0104100Y0161435D02*
X0106450Y0159085D01*
X0111350Y0159085D01*
X0111350Y0156485D02*
X0105300Y0156485D01*
X0101600Y0160185D01*
X0101600Y0182685D01*
X0107850Y0188935D01*
X0107850Y0200185D01*
X0112650Y0200542D02*
X0113050Y0200542D01*
X0113050Y0199344D02*
X0112650Y0199344D01*
X0112650Y0198145D02*
X0113050Y0198145D01*
X0113050Y0196947D02*
X0112650Y0196947D01*
X0112650Y0196230D02*
X0112650Y0204140D01*
X0111919Y0205904D01*
X0110569Y0207254D01*
X0109529Y0207685D01*
X0110569Y0208116D01*
X0111919Y0209466D01*
X0112650Y0211230D01*
X0112650Y0219140D01*
X0111919Y0220904D01*
X0110569Y0222254D01*
X0109246Y0222802D01*
X0109616Y0222922D01*
X0110261Y0223251D01*
X0110847Y0223676D01*
X0111359Y0224188D01*
X0111784Y0224774D01*
X0112113Y0225419D01*
X0112337Y0226108D01*
X0112450Y0226823D01*
X0112450Y0229785D01*
X0108250Y0229785D01*
X0108250Y0230585D01*
X0112450Y0230585D01*
X0112450Y0233547D01*
X0112337Y0234262D01*
X0112113Y0234951D01*
X0111784Y0235596D01*
X0111359Y0236182D01*
X0110847Y0236694D01*
X0110693Y0236806D01*
X0115007Y0236806D01*
X0114853Y0236694D01*
X0114341Y0236182D01*
X0113916Y0235596D01*
X0113587Y0234951D01*
X0113363Y0234262D01*
X0113250Y0233547D01*
X0113250Y0230585D01*
X0117450Y0230585D01*
X0117450Y0229785D01*
X0113250Y0229785D01*
X0113250Y0226823D01*
X0113363Y0226108D01*
X0113587Y0225419D01*
X0113916Y0224774D01*
X0114341Y0224188D01*
X0114853Y0223676D01*
X0115439Y0223251D01*
X0116084Y0222922D01*
X0116454Y0222802D01*
X0115131Y0222254D01*
X0113781Y0220904D01*
X0113050Y0219140D01*
X0113050Y0211230D01*
X0113781Y0209466D01*
X0115131Y0208116D01*
X0116171Y0207685D01*
X0115131Y0207254D01*
X0113781Y0205904D01*
X0113050Y0204140D01*
X0113050Y0196230D01*
X0113781Y0194466D01*
X0115009Y0193238D01*
X0110250Y0188479D01*
X0110250Y0192984D01*
X0110569Y0193116D01*
X0111919Y0194466D01*
X0112650Y0196230D01*
X0112450Y0195748D02*
X0113250Y0195748D01*
X0113746Y0194550D02*
X0111954Y0194550D01*
X0110804Y0193351D02*
X0114895Y0193351D01*
X0113924Y0192153D02*
X0110250Y0192153D01*
X0110250Y0190954D02*
X0112725Y0190954D01*
X0111527Y0189756D02*
X0110250Y0189756D01*
X0110250Y0188557D02*
X0110328Y0188557D01*
X0113521Y0184962D02*
X0122400Y0184962D01*
X0122061Y0186160D02*
X0114719Y0186160D01*
X0115918Y0187359D02*
X0122173Y0187359D01*
X0122821Y0188557D02*
X0117116Y0188557D01*
X0118315Y0189756D02*
X0127385Y0189756D01*
X0127879Y0188557D02*
X0128584Y0188557D01*
X0128527Y0187359D02*
X0129782Y0187359D01*
X0129019Y0186160D02*
X0130981Y0186160D01*
X0130217Y0184962D02*
X0132179Y0184962D01*
X0131049Y0183763D02*
X0133378Y0183763D01*
X0133311Y0182565D02*
X0134576Y0182565D01*
X0133508Y0181366D02*
X0135775Y0181366D01*
X0136700Y0180168D02*
X0133508Y0180168D01*
X0133508Y0178969D02*
X0136700Y0178969D01*
X0136700Y0177771D02*
X0133508Y0177771D01*
X0133508Y0176572D02*
X0136700Y0176572D01*
X0136700Y0175374D02*
X0133508Y0175374D01*
X0133508Y0174175D02*
X0136700Y0174175D01*
X0136700Y0172977D02*
X0133482Y0172977D01*
X0133508Y0171778D02*
X0136700Y0171778D01*
X0136700Y0170580D02*
X0133508Y0170580D01*
X0133508Y0169381D02*
X0136700Y0169381D01*
X0136700Y0168183D02*
X0133508Y0168183D01*
X0133508Y0166984D02*
X0136700Y0166984D01*
X0136700Y0165786D02*
X0133508Y0165786D01*
X0133508Y0164587D02*
X0136700Y0164587D01*
X0139100Y0162685D02*
X0139100Y0181435D01*
X0127850Y0192685D01*
X0127850Y0200185D01*
X0132650Y0200542D02*
X0133050Y0200542D01*
X0133050Y0199344D02*
X0132650Y0199344D01*
X0132650Y0198145D02*
X0133050Y0198145D01*
X0133050Y0196947D02*
X0132650Y0196947D01*
X0132650Y0196230D02*
X0132650Y0204140D01*
X0131919Y0205904D01*
X0130569Y0207254D01*
X0129529Y0207685D01*
X0130569Y0208116D01*
X0131919Y0209466D01*
X0132650Y0211230D01*
X0132650Y0219140D01*
X0131919Y0220904D01*
X0130569Y0222254D01*
X0129246Y0222802D01*
X0129616Y0222922D01*
X0130261Y0223251D01*
X0130847Y0223676D01*
X0131359Y0224188D01*
X0131784Y0224774D01*
X0132113Y0225419D01*
X0132337Y0226108D01*
X0132450Y0226823D01*
X0132450Y0229785D01*
X0128250Y0229785D01*
X0128250Y0230585D01*
X0132450Y0230585D01*
X0132450Y0233547D01*
X0132337Y0234262D01*
X0132113Y0234951D01*
X0131784Y0235596D01*
X0131359Y0236182D01*
X0130847Y0236694D01*
X0130693Y0236806D01*
X0135007Y0236806D01*
X0134853Y0236694D01*
X0134341Y0236182D01*
X0133916Y0235596D01*
X0133587Y0234951D01*
X0133363Y0234262D01*
X0133250Y0233547D01*
X0133250Y0230585D01*
X0137450Y0230585D01*
X0137450Y0229785D01*
X0133250Y0229785D01*
X0133250Y0226823D01*
X0133363Y0226108D01*
X0133587Y0225419D01*
X0133916Y0224774D01*
X0134341Y0224188D01*
X0134853Y0223676D01*
X0135439Y0223251D01*
X0136084Y0222922D01*
X0136454Y0222802D01*
X0135131Y0222254D01*
X0133781Y0220904D01*
X0133050Y0219140D01*
X0133050Y0211230D01*
X0133781Y0209466D01*
X0135131Y0208116D01*
X0136171Y0207685D01*
X0135131Y0207254D01*
X0133781Y0205904D01*
X0133050Y0204140D01*
X0133050Y0196230D01*
X0133781Y0194466D01*
X0135131Y0193116D01*
X0135450Y0192984D01*
X0135450Y0188479D01*
X0130691Y0193238D01*
X0131919Y0194466D01*
X0132650Y0196230D01*
X0132450Y0195748D02*
X0133250Y0195748D01*
X0133746Y0194550D02*
X0131954Y0194550D01*
X0130804Y0193351D02*
X0134895Y0193351D01*
X0135450Y0192153D02*
X0131776Y0192153D01*
X0132975Y0190954D02*
X0135450Y0190954D01*
X0135450Y0189756D02*
X0134173Y0189756D01*
X0135372Y0188557D02*
X0135450Y0188557D01*
X0137850Y0186435D02*
X0137850Y0200185D01*
X0133050Y0201741D02*
X0132650Y0201741D01*
X0132650Y0202939D02*
X0133050Y0202939D01*
X0133050Y0204138D02*
X0132650Y0204138D01*
X0132154Y0205336D02*
X0133546Y0205336D01*
X0134412Y0206535D02*
X0131288Y0206535D01*
X0129646Y0207733D02*
X0136054Y0207733D01*
X0134315Y0208932D02*
X0131385Y0208932D01*
X0132194Y0210130D02*
X0133506Y0210130D01*
X0133050Y0211329D02*
X0132650Y0211329D01*
X0132650Y0212527D02*
X0133050Y0212527D01*
X0133050Y0213726D02*
X0132650Y0213726D01*
X0132650Y0214925D02*
X0133050Y0214925D01*
X0133050Y0216123D02*
X0132650Y0216123D01*
X0132650Y0217322D02*
X0133050Y0217322D01*
X0133050Y0218520D02*
X0132650Y0218520D01*
X0132410Y0219719D02*
X0133290Y0219719D01*
X0133794Y0220917D02*
X0131906Y0220917D01*
X0130708Y0222116D02*
X0134992Y0222116D01*
X0135352Y0223314D02*
X0130348Y0223314D01*
X0131594Y0224513D02*
X0134106Y0224513D01*
X0133492Y0225711D02*
X0132208Y0225711D01*
X0132450Y0226910D02*
X0133250Y0226910D01*
X0133250Y0228108D02*
X0132450Y0228108D01*
X0132450Y0229307D02*
X0133250Y0229307D01*
X0133250Y0231704D02*
X0132450Y0231704D01*
X0132450Y0232902D02*
X0133250Y0232902D01*
X0133338Y0234101D02*
X0132362Y0234101D01*
X0131935Y0235299D02*
X0133765Y0235299D01*
X0134657Y0236498D02*
X0131043Y0236498D01*
X0128250Y0230505D02*
X0137450Y0230505D01*
X0138250Y0230505D02*
X0147450Y0230505D01*
X0147450Y0230585D02*
X0147450Y0229785D01*
X0143250Y0229785D01*
X0143250Y0226823D01*
X0143363Y0226108D01*
X0143587Y0225419D01*
X0143916Y0224774D01*
X0144341Y0224188D01*
X0144853Y0223676D01*
X0145439Y0223251D01*
X0146084Y0222922D01*
X0146454Y0222802D01*
X0145131Y0222254D01*
X0143781Y0220904D01*
X0143050Y0219140D01*
X0143050Y0211230D01*
X0143781Y0209466D01*
X0145131Y0208116D01*
X0146171Y0207685D01*
X0145131Y0207254D01*
X0143781Y0205904D01*
X0143050Y0204140D01*
X0143050Y0196230D01*
X0143781Y0194466D01*
X0145131Y0193116D01*
X0145450Y0192984D01*
X0145450Y0188679D01*
X0142225Y0185454D01*
X0140250Y0187429D01*
X0140250Y0192984D01*
X0140569Y0193116D01*
X0141919Y0194466D01*
X0142650Y0196230D01*
X0142650Y0204140D01*
X0141919Y0205904D01*
X0140569Y0207254D01*
X0139529Y0207685D01*
X0140569Y0208116D01*
X0141919Y0209466D01*
X0142650Y0211230D01*
X0142650Y0219140D01*
X0141919Y0220904D01*
X0140569Y0222254D01*
X0139246Y0222802D01*
X0139616Y0222922D01*
X0140261Y0223251D01*
X0140847Y0223676D01*
X0141359Y0224188D01*
X0141784Y0224774D01*
X0142113Y0225419D01*
X0142337Y0226108D01*
X0142450Y0226823D01*
X0142450Y0229785D01*
X0138250Y0229785D01*
X0138250Y0230585D01*
X0142450Y0230585D01*
X0142450Y0233547D01*
X0142337Y0234262D01*
X0142113Y0234951D01*
X0141784Y0235596D01*
X0141359Y0236182D01*
X0140847Y0236694D01*
X0140693Y0236806D01*
X0145007Y0236806D01*
X0144853Y0236694D01*
X0144341Y0236182D01*
X0143916Y0235596D01*
X0143587Y0234951D01*
X0143363Y0234262D01*
X0143250Y0233547D01*
X0143250Y0230585D01*
X0147450Y0230585D01*
X0148250Y0230585D02*
X0152450Y0230585D01*
X0152450Y0233547D01*
X0152337Y0234262D01*
X0152113Y0234951D01*
X0151784Y0235596D01*
X0151359Y0236182D01*
X0150847Y0236694D01*
X0150693Y0236806D01*
X0155007Y0236806D01*
X0154853Y0236694D01*
X0154341Y0236182D01*
X0153916Y0235596D01*
X0153587Y0234951D01*
X0153363Y0234262D01*
X0153250Y0233547D01*
X0153250Y0230585D01*
X0157450Y0230585D01*
X0157450Y0229785D01*
X0153250Y0229785D01*
X0153250Y0226823D01*
X0153363Y0226108D01*
X0153587Y0225419D01*
X0153916Y0224774D01*
X0154341Y0224188D01*
X0154853Y0223676D01*
X0155439Y0223251D01*
X0156084Y0222922D01*
X0156454Y0222802D01*
X0155131Y0222254D01*
X0153781Y0220904D01*
X0153050Y0219140D01*
X0153050Y0211230D01*
X0153781Y0209466D01*
X0155131Y0208116D01*
X0156171Y0207685D01*
X0155131Y0207254D01*
X0153781Y0205904D01*
X0153050Y0204140D01*
X0153050Y0196230D01*
X0153781Y0194466D01*
X0155009Y0193238D01*
X0150250Y0188479D01*
X0150250Y0192984D01*
X0150569Y0193116D01*
X0151919Y0194466D01*
X0152650Y0196230D01*
X0152650Y0204140D01*
X0151919Y0205904D01*
X0150569Y0207254D01*
X0149529Y0207685D01*
X0150569Y0208116D01*
X0151919Y0209466D01*
X0152650Y0211230D01*
X0152650Y0219140D01*
X0151919Y0220904D01*
X0150569Y0222254D01*
X0149246Y0222802D01*
X0149616Y0222922D01*
X0150261Y0223251D01*
X0150847Y0223676D01*
X0151359Y0224188D01*
X0151784Y0224774D01*
X0152113Y0225419D01*
X0152337Y0226108D01*
X0152450Y0226823D01*
X0152450Y0229785D01*
X0148250Y0229785D01*
X0148250Y0230585D01*
X0148250Y0230505D02*
X0157450Y0230505D01*
X0158250Y0230505D02*
X0168479Y0230505D01*
X0167876Y0229808D02*
X0167876Y0229808D01*
X0167647Y0229307D02*
X0162450Y0229307D01*
X0162450Y0228108D02*
X0167099Y0228108D01*
X0166552Y0226910D02*
X0162450Y0226910D01*
X0162208Y0225711D02*
X0166005Y0225711D01*
X0165672Y0224513D02*
X0161594Y0224513D01*
X0160348Y0223314D02*
X0165500Y0223314D01*
X0165328Y0222116D02*
X0160708Y0222116D01*
X0161906Y0220917D02*
X0165155Y0220917D01*
X0165050Y0220185D02*
X0165050Y0220185D01*
X0165117Y0219719D02*
X0162410Y0219719D01*
X0162650Y0218520D02*
X0165289Y0218520D01*
X0165462Y0217322D02*
X0162650Y0217322D01*
X0162650Y0216123D02*
X0165634Y0216123D01*
X0165771Y0215170D02*
X0165771Y0215170D01*
X0165883Y0214925D02*
X0162650Y0214925D01*
X0162650Y0213726D02*
X0166431Y0213726D01*
X0166978Y0212527D02*
X0162650Y0212527D01*
X0162650Y0211329D02*
X0167525Y0211329D01*
X0168249Y0210130D02*
X0162194Y0210130D01*
X0161385Y0208932D02*
X0169288Y0208932D01*
X0170326Y0207733D02*
X0159646Y0207733D01*
X0161288Y0206535D02*
X0171501Y0206535D01*
X0173366Y0205336D02*
X0162154Y0205336D01*
X0162650Y0204138D02*
X0175231Y0204138D01*
X0175456Y0203994D02*
X0175456Y0203994D01*
X0179046Y0202939D02*
X0162650Y0202939D01*
X0162650Y0201741D02*
X0200100Y0201741D01*
X0200100Y0202939D02*
X0186654Y0202939D01*
X0190469Y0204138D02*
X0200100Y0204138D01*
X0200100Y0205336D02*
X0192334Y0205336D01*
X0194199Y0206535D02*
X0200100Y0206535D01*
X0200100Y0207733D02*
X0195374Y0207733D01*
X0194507Y0206733D02*
X0194507Y0206733D01*
X0194506Y0206733D01*
X0196412Y0208932D02*
X0200100Y0208932D01*
X0200100Y0210130D02*
X0197451Y0210130D01*
X0197824Y0210562D02*
X0197824Y0210562D01*
X0198175Y0211329D02*
X0200100Y0211329D01*
X0200100Y0212527D02*
X0198722Y0212527D01*
X0199269Y0213726D02*
X0200100Y0213726D01*
X0200100Y0214925D02*
X0199817Y0214925D01*
X0200066Y0216123D02*
X0200100Y0216123D01*
X0200100Y0200542D02*
X0162650Y0200542D01*
X0162650Y0199344D02*
X0200100Y0199344D01*
X0200100Y0198145D02*
X0162650Y0198145D01*
X0162650Y0196947D02*
X0200100Y0196947D01*
X0200100Y0195748D02*
X0162450Y0195748D01*
X0161954Y0194550D02*
X0200100Y0194550D01*
X0200100Y0193351D02*
X0160804Y0193351D01*
X0160227Y0192153D02*
X0200100Y0192153D01*
X0200100Y0190954D02*
X0159513Y0190954D01*
X0158315Y0189756D02*
X0200100Y0189756D01*
X0200100Y0188557D02*
X0157116Y0188557D01*
X0155918Y0187359D02*
X0200100Y0187359D01*
X0200100Y0186160D02*
X0154719Y0186160D01*
X0153521Y0184962D02*
X0200100Y0184962D01*
X0200100Y0183763D02*
X0152322Y0183763D01*
X0151124Y0182565D02*
X0200100Y0182565D01*
X0200100Y0181366D02*
X0149925Y0181366D01*
X0149000Y0180168D02*
X0200100Y0180168D01*
X0200100Y0178969D02*
X0149000Y0178969D01*
X0149000Y0177771D02*
X0200100Y0177771D01*
X0200100Y0176572D02*
X0149000Y0176572D01*
X0149000Y0175374D02*
X0200100Y0175374D01*
X0200100Y0174175D02*
X0149000Y0174175D01*
X0149000Y0172977D02*
X0200100Y0172977D01*
X0200100Y0171778D02*
X0149000Y0171778D01*
X0149000Y0170580D02*
X0200100Y0170580D01*
X0157850Y0192685D02*
X0157850Y0200185D01*
X0153250Y0195748D02*
X0152450Y0195748D01*
X0152650Y0196947D02*
X0153050Y0196947D01*
X0153050Y0198145D02*
X0152650Y0198145D01*
X0152650Y0199344D02*
X0153050Y0199344D01*
X0153050Y0200542D02*
X0152650Y0200542D01*
X0152650Y0201741D02*
X0153050Y0201741D01*
X0153050Y0202939D02*
X0152650Y0202939D01*
X0152650Y0204138D02*
X0153050Y0204138D01*
X0153546Y0205336D02*
X0152154Y0205336D01*
X0151288Y0206535D02*
X0154412Y0206535D01*
X0156054Y0207733D02*
X0149646Y0207733D01*
X0151385Y0208932D02*
X0154315Y0208932D01*
X0153506Y0210130D02*
X0152194Y0210130D01*
X0152650Y0211329D02*
X0153050Y0211329D01*
X0153050Y0212527D02*
X0152650Y0212527D01*
X0152650Y0213726D02*
X0153050Y0213726D01*
X0153050Y0214925D02*
X0152650Y0214925D01*
X0152650Y0216123D02*
X0153050Y0216123D01*
X0153050Y0217322D02*
X0152650Y0217322D01*
X0152650Y0218520D02*
X0153050Y0218520D01*
X0153290Y0219719D02*
X0152410Y0219719D01*
X0151906Y0220917D02*
X0153794Y0220917D01*
X0154992Y0222116D02*
X0150708Y0222116D01*
X0150348Y0223314D02*
X0155352Y0223314D01*
X0154106Y0224513D02*
X0151594Y0224513D01*
X0152208Y0225711D02*
X0153492Y0225711D01*
X0153250Y0226910D02*
X0152450Y0226910D01*
X0152450Y0228108D02*
X0153250Y0228108D01*
X0153250Y0229307D02*
X0152450Y0229307D01*
X0152450Y0231704D02*
X0153250Y0231704D01*
X0153250Y0232902D02*
X0152450Y0232902D01*
X0152362Y0234101D02*
X0153338Y0234101D01*
X0153765Y0235299D02*
X0151935Y0235299D01*
X0151043Y0236498D02*
X0154657Y0236498D01*
X0161043Y0236498D02*
X0175869Y0236498D01*
X0173779Y0235299D02*
X0161935Y0235299D01*
X0162362Y0234101D02*
X0171914Y0234101D01*
X0171193Y0233637D02*
X0171193Y0233637D01*
X0171193Y0233637D01*
X0170556Y0232902D02*
X0162450Y0232902D01*
X0162450Y0231704D02*
X0169518Y0231704D01*
X0144657Y0236498D02*
X0141043Y0236498D01*
X0141935Y0235299D02*
X0143765Y0235299D01*
X0143338Y0234101D02*
X0142362Y0234101D01*
X0142450Y0232902D02*
X0143250Y0232902D01*
X0143250Y0231704D02*
X0142450Y0231704D01*
X0142450Y0229307D02*
X0143250Y0229307D01*
X0143250Y0228108D02*
X0142450Y0228108D01*
X0142450Y0226910D02*
X0143250Y0226910D01*
X0143492Y0225711D02*
X0142208Y0225711D01*
X0141594Y0224513D02*
X0144106Y0224513D01*
X0145352Y0223314D02*
X0140348Y0223314D01*
X0140708Y0222116D02*
X0144992Y0222116D01*
X0143794Y0220917D02*
X0141906Y0220917D01*
X0142410Y0219719D02*
X0143290Y0219719D01*
X0143050Y0218520D02*
X0142650Y0218520D01*
X0142650Y0217322D02*
X0143050Y0217322D01*
X0143050Y0216123D02*
X0142650Y0216123D01*
X0142650Y0214925D02*
X0143050Y0214925D01*
X0143050Y0213726D02*
X0142650Y0213726D01*
X0142650Y0212527D02*
X0143050Y0212527D01*
X0143050Y0211329D02*
X0142650Y0211329D01*
X0142194Y0210130D02*
X0143506Y0210130D01*
X0144315Y0208932D02*
X0141385Y0208932D01*
X0139646Y0207733D02*
X0146054Y0207733D01*
X0144412Y0206535D02*
X0141288Y0206535D01*
X0142154Y0205336D02*
X0143546Y0205336D01*
X0143050Y0204138D02*
X0142650Y0204138D01*
X0142650Y0202939D02*
X0143050Y0202939D01*
X0143050Y0201741D02*
X0142650Y0201741D01*
X0142650Y0200542D02*
X0143050Y0200542D01*
X0143050Y0199344D02*
X0142650Y0199344D01*
X0142650Y0198145D02*
X0143050Y0198145D01*
X0143050Y0196947D02*
X0142650Y0196947D01*
X0142450Y0195748D02*
X0143250Y0195748D01*
X0143746Y0194550D02*
X0141954Y0194550D01*
X0140804Y0193351D02*
X0144895Y0193351D01*
X0145450Y0192153D02*
X0140250Y0192153D01*
X0140250Y0190954D02*
X0145450Y0190954D01*
X0145450Y0189756D02*
X0140250Y0189756D01*
X0140250Y0188557D02*
X0145328Y0188557D01*
X0144130Y0187359D02*
X0140320Y0187359D01*
X0141519Y0186160D02*
X0142931Y0186160D01*
X0144100Y0183935D02*
X0147850Y0187685D01*
X0147850Y0200185D01*
X0151954Y0194550D02*
X0153746Y0194550D01*
X0154895Y0193351D02*
X0150804Y0193351D01*
X0150250Y0192153D02*
X0153924Y0192153D01*
X0152725Y0190954D02*
X0150250Y0190954D01*
X0150250Y0189756D02*
X0151527Y0189756D01*
X0150328Y0188557D02*
X0150250Y0188557D01*
X0144100Y0183935D02*
X0144100Y0160185D01*
X0140400Y0156485D01*
X0134350Y0156485D01*
X0134350Y0153985D02*
X0141650Y0153985D01*
X0146600Y0158935D01*
X0146600Y0181435D01*
X0157850Y0192685D01*
X0141600Y0182685D02*
X0137850Y0186435D01*
X0141600Y0182685D02*
X0141600Y0161435D01*
X0139250Y0159085D01*
X0134350Y0159085D01*
X0134350Y0161685D02*
X0138100Y0161685D01*
X0139100Y0162685D01*
X0134350Y0151385D02*
X0147900Y0151385D01*
X0149100Y0150185D01*
X0149100Y0137685D01*
X0145350Y0139124D02*
X0144289Y0140185D01*
X0144100Y0140185D01*
X0142850Y0138935D01*
X0057850Y0138935D01*
X0054100Y0142685D01*
X0054100Y0148935D01*
X0059100Y0152685D02*
X0056600Y0155185D01*
X0055350Y0155185D01*
X0052910Y0157396D02*
X0052750Y0157396D01*
X0052750Y0158594D02*
X0060450Y0158594D01*
X0060450Y0157396D02*
X0057790Y0157396D01*
X0058982Y0156197D02*
X0060450Y0156197D01*
X0060450Y0154999D02*
X0060180Y0154999D01*
X0059100Y0152685D02*
X0059100Y0143935D01*
X0061600Y0141435D01*
X0139100Y0141435D01*
X0139100Y0141624D01*
X0139100Y0141435D02*
X0140350Y0141435D01*
X0141600Y0142685D01*
X0141600Y0145185D01*
X0140500Y0146285D01*
X0134350Y0146285D01*
X0134350Y0143685D02*
X0130350Y0143685D01*
X0128756Y0145280D01*
X0128756Y0167685D01*
X0128756Y0177685D01*
X0128756Y0183030D01*
X0125350Y0186435D01*
X0123370Y0183763D02*
X0112322Y0183763D01*
X0112688Y0182565D02*
X0111124Y0182565D01*
X0109925Y0181366D02*
X0112392Y0181366D01*
X0112392Y0180168D02*
X0108727Y0180168D01*
X0107528Y0178969D02*
X0112392Y0178969D01*
X0112392Y0176572D02*
X0106500Y0176572D01*
X0106500Y0175374D02*
X0112392Y0175374D01*
X0112392Y0174175D02*
X0106500Y0174175D01*
X0106500Y0172977D02*
X0112590Y0172977D01*
X0112392Y0171778D02*
X0106500Y0171778D01*
X0106500Y0170580D02*
X0112392Y0170580D01*
X0112392Y0169381D02*
X0106500Y0169381D01*
X0106500Y0168183D02*
X0116344Y0168183D01*
X0116345Y0168285D02*
X0116345Y0173222D01*
X0116345Y0177085D01*
X0117544Y0177085D01*
X0117544Y0168285D01*
X0116345Y0168285D01*
X0116944Y0167685D02*
X0116944Y0177685D01*
X0116344Y0177771D02*
X0106500Y0177771D01*
X0104100Y0178935D02*
X0117850Y0192685D01*
X0117850Y0200185D01*
X0122650Y0200542D02*
X0123050Y0200542D01*
X0123050Y0199344D02*
X0122650Y0199344D01*
X0122650Y0198145D02*
X0123050Y0198145D01*
X0123050Y0196947D02*
X0122650Y0196947D01*
X0122450Y0195748D02*
X0123250Y0195748D01*
X0123746Y0194550D02*
X0121954Y0194550D01*
X0120804Y0193351D02*
X0124895Y0193351D01*
X0125473Y0192153D02*
X0120227Y0192153D01*
X0119513Y0190954D02*
X0126187Y0190954D01*
X0124200Y0182565D02*
X0121201Y0182565D01*
X0121497Y0181366D02*
X0124003Y0181366D01*
X0124003Y0180168D02*
X0121497Y0180168D01*
X0121497Y0178969D02*
X0124003Y0178969D01*
X0124003Y0177771D02*
X0117545Y0177771D01*
X0117544Y0178969D02*
X0116345Y0178969D01*
X0116345Y0180168D02*
X0117544Y0180168D01*
X0117544Y0181366D02*
X0116345Y0181366D01*
X0116345Y0182565D02*
X0117544Y0182565D01*
X0117544Y0176572D02*
X0116345Y0176572D01*
X0116345Y0175374D02*
X0117544Y0175374D01*
X0117544Y0174175D02*
X0116345Y0174175D01*
X0116345Y0172977D02*
X0117544Y0172977D01*
X0117544Y0171778D02*
X0116345Y0171778D01*
X0116345Y0170580D02*
X0117544Y0170580D01*
X0117544Y0169381D02*
X0116345Y0169381D01*
X0117545Y0168183D02*
X0124003Y0168183D01*
X0124003Y0169381D02*
X0121497Y0169381D01*
X0121497Y0170580D02*
X0124003Y0170580D01*
X0124003Y0171778D02*
X0121497Y0171778D01*
X0121299Y0172977D02*
X0124029Y0172977D01*
X0124003Y0174175D02*
X0121497Y0174175D01*
X0121497Y0175374D02*
X0124003Y0175374D01*
X0124003Y0176572D02*
X0121497Y0176572D01*
X0121497Y0166984D02*
X0124003Y0166984D01*
X0124003Y0165786D02*
X0121497Y0165786D01*
X0121497Y0164587D02*
X0124003Y0164587D01*
X0124003Y0163389D02*
X0121457Y0163389D01*
X0120265Y0162190D02*
X0124815Y0162190D01*
X0126356Y0160992D02*
X0115850Y0160992D01*
X0115600Y0161685D02*
X0116944Y0163030D01*
X0116944Y0167685D01*
X0116345Y0166984D02*
X0117544Y0166984D01*
X0117544Y0165786D02*
X0116345Y0165786D01*
X0116345Y0164587D02*
X0117544Y0164587D01*
X0117544Y0163389D02*
X0116345Y0163389D01*
X0116345Y0162190D02*
X0117544Y0162190D01*
X0116050Y0159793D02*
X0126356Y0159793D01*
X0126356Y0149006D02*
X0115850Y0149006D01*
X0115850Y0148885D02*
X0115850Y0149739D01*
X0116050Y0149939D01*
X0115850Y0148885D02*
X0114996Y0148885D01*
X0114996Y0148885D01*
X0111350Y0148885D01*
X0111400Y0148935D01*
X0121600Y0148935D01*
X0122378Y0147808D02*
X0126356Y0147808D01*
X0126356Y0146609D02*
X0123320Y0146609D01*
X0121600Y0143935D02*
X0121600Y0143685D01*
X0130350Y0143685D01*
X0134350Y0148885D02*
X0142900Y0148885D01*
X0144100Y0147685D01*
X0144100Y0140185D01*
X0142389Y0117845D02*
X0177080Y0117845D01*
X0176584Y0116647D02*
X0142230Y0116647D01*
X0141514Y0115448D02*
X0176532Y0115448D01*
X0176532Y0114250D02*
X0141500Y0114250D01*
X0141500Y0113051D02*
X0176993Y0113051D01*
X0177564Y0111853D02*
X0141500Y0111853D01*
X0141500Y0110654D02*
X0178763Y0110654D01*
X0181173Y0109456D02*
X0141927Y0109456D01*
X0139100Y0107685D02*
X0139100Y0117685D01*
X0135376Y0101461D02*
X0150324Y0101461D01*
X0150350Y0101435D01*
X0138609Y0098669D02*
X0200100Y0098669D01*
X0200100Y0099867D02*
X0137958Y0099867D01*
X0136039Y0101066D02*
X0200100Y0101066D01*
X0200100Y0102264D02*
X0130415Y0102264D01*
X0131613Y0101066D02*
X0134661Y0101066D01*
X0138737Y0097470D02*
X0200100Y0097470D01*
X0200100Y0096272D02*
X0138431Y0096272D01*
X0137750Y0095073D02*
X0200100Y0095073D01*
X0200100Y0093875D02*
X0137750Y0093875D01*
X0137750Y0092676D02*
X0200100Y0092676D01*
X0200100Y0091478D02*
X0137750Y0091478D01*
X0137750Y0090279D02*
X0200100Y0090279D01*
X0200100Y0089081D02*
X0137750Y0089081D01*
X0137750Y0087882D02*
X0200100Y0087882D01*
X0200100Y0086684D02*
X0138495Y0086684D01*
X0139694Y0085485D02*
X0180136Y0085485D01*
X0179105Y0085058D02*
X0177436Y0083389D01*
X0176532Y0081208D01*
X0176532Y0078847D01*
X0177436Y0076666D01*
X0179105Y0074997D01*
X0181286Y0074094D01*
X0191914Y0074094D01*
X0194095Y0074997D01*
X0195764Y0076666D01*
X0196668Y0078847D01*
X0196668Y0081208D01*
X0195764Y0083389D01*
X0194095Y0085058D01*
X0191914Y0085961D01*
X0181286Y0085961D01*
X0179105Y0085058D01*
X0178334Y0084287D02*
X0165892Y0084287D01*
X0167091Y0083088D02*
X0177311Y0083088D01*
X0176815Y0081890D02*
X0168289Y0081890D01*
X0169488Y0080691D02*
X0176532Y0080691D01*
X0176532Y0079493D02*
X0170686Y0079493D01*
X0171885Y0078294D02*
X0176761Y0078294D01*
X0177258Y0077096D02*
X0172674Y0077096D01*
X0172750Y0075897D02*
X0178205Y0075897D01*
X0179825Y0074699D02*
X0172750Y0074699D01*
X0172750Y0073500D02*
X0200100Y0073500D01*
X0200100Y0072302D02*
X0172750Y0072302D01*
X0172750Y0071103D02*
X0200100Y0071103D01*
X0200100Y0069905D02*
X0172750Y0069905D01*
X0172750Y0068706D02*
X0200100Y0068706D01*
X0200100Y0067508D02*
X0172750Y0067508D01*
X0167950Y0067508D02*
X0166087Y0067508D01*
X0166087Y0068706D02*
X0167950Y0068706D01*
X0167950Y0069905D02*
X0166087Y0069905D01*
X0166087Y0071103D02*
X0167950Y0071103D01*
X0167950Y0072302D02*
X0166087Y0072302D01*
X0166087Y0073500D02*
X0167950Y0073500D01*
X0167950Y0074699D02*
X0166087Y0074699D01*
X0160950Y0062714D02*
X0159750Y0062714D01*
X0159750Y0061515D02*
X0160950Y0061515D01*
X0160950Y0060317D02*
X0159750Y0060317D01*
X0154813Y0057920D02*
X0153308Y0057920D01*
X0153308Y0056721D02*
X0154813Y0056721D01*
X0155030Y0055523D02*
X0153137Y0055523D01*
X0149355Y0055523D02*
X0148156Y0055523D01*
X0148156Y0056721D02*
X0149355Y0056721D01*
X0149355Y0057920D02*
X0148156Y0057920D01*
X0148156Y0059118D02*
X0149355Y0059118D01*
X0152936Y0039942D02*
X0156291Y0039942D01*
X0154120Y0038743D02*
X0153199Y0038743D01*
X0140450Y0035148D02*
X0052900Y0035148D01*
X0052900Y0036346D02*
X0101793Y0036346D01*
X0101251Y0037545D02*
X0052900Y0037545D01*
X0052900Y0038743D02*
X0101251Y0038743D01*
X0101251Y0039942D02*
X0052900Y0039942D01*
X0052900Y0041140D02*
X0101251Y0041140D01*
X0101251Y0042339D02*
X0052900Y0042339D01*
X0052900Y0043537D02*
X0101251Y0043537D01*
X0099868Y0044736D02*
X0098332Y0044736D01*
X0101600Y0047685D02*
X0104100Y0050185D01*
X0104100Y0067685D01*
X0089100Y0082685D01*
X0107850Y0102874D02*
X0108911Y0102874D01*
X0109100Y0102685D01*
X0111600Y0102685D01*
X0112850Y0103935D01*
X0116600Y0103935D01*
X0119100Y0106435D01*
X0119100Y0113935D01*
X0121600Y0116435D01*
X0116600Y0116435D02*
X0116600Y0107685D01*
X0115350Y0106435D01*
X0110350Y0106435D01*
X0122850Y0111435D02*
X0122850Y0085185D01*
X0111600Y0073935D01*
X0111600Y0047685D01*
X0106600Y0047685D02*
X0106600Y0040783D01*
X0111407Y0036346D02*
X0111793Y0036346D01*
X0112001Y0033949D02*
X0111199Y0033949D01*
X0107200Y0033949D02*
X0106000Y0033949D01*
X0106000Y0032751D02*
X0107200Y0032751D01*
X0107200Y0031552D02*
X0106000Y0031552D01*
X0106000Y0030354D02*
X0107200Y0030354D01*
X0107200Y0029155D02*
X0116000Y0029155D01*
X0116000Y0027957D02*
X0117200Y0027957D01*
X0117200Y0029155D02*
X0126000Y0029155D01*
X0126000Y0027957D02*
X0127200Y0027957D01*
X0127200Y0029155D02*
X0136000Y0029155D01*
X0136000Y0027957D02*
X0137200Y0027957D01*
X0137200Y0026758D02*
X0136000Y0026758D01*
X0136000Y0025560D02*
X0137200Y0025560D01*
X0133591Y0021964D02*
X0129609Y0021964D01*
X0130727Y0020766D02*
X0132473Y0020766D01*
X0131977Y0019567D02*
X0131223Y0019567D01*
X0131400Y0018369D02*
X0131800Y0018369D01*
X0131800Y0017170D02*
X0131400Y0017170D01*
X0131400Y0015972D02*
X0131800Y0015972D01*
X0131800Y0014773D02*
X0131400Y0014773D01*
X0131400Y0013575D02*
X0131800Y0013575D01*
X0131800Y0012376D02*
X0131400Y0012376D01*
X0131378Y0011178D02*
X0131822Y0011178D01*
X0132318Y0009979D02*
X0130882Y0009979D01*
X0122318Y0009979D02*
X0120882Y0009979D01*
X0121378Y0011178D02*
X0121822Y0011178D01*
X0121800Y0012376D02*
X0121400Y0012376D01*
X0121400Y0013575D02*
X0121800Y0013575D01*
X0121800Y0014773D02*
X0121400Y0014773D01*
X0121400Y0015972D02*
X0121800Y0015972D01*
X0121800Y0017170D02*
X0121400Y0017170D01*
X0121400Y0018369D02*
X0121800Y0018369D01*
X0121977Y0019567D02*
X0121223Y0019567D01*
X0120727Y0020766D02*
X0122473Y0020766D01*
X0123591Y0021964D02*
X0119609Y0021964D01*
X0121490Y0025560D02*
X0121710Y0025560D01*
X0126000Y0025560D02*
X0127200Y0025560D01*
X0127200Y0026758D02*
X0126000Y0026758D01*
X0126000Y0030354D02*
X0127200Y0030354D01*
X0127200Y0031552D02*
X0126000Y0031552D01*
X0126000Y0032751D02*
X0127200Y0032751D01*
X0127200Y0033949D02*
X0126000Y0033949D01*
X0122001Y0033949D02*
X0121199Y0033949D01*
X0121407Y0036346D02*
X0121793Y0036346D01*
X0117200Y0033949D02*
X0116000Y0033949D01*
X0116000Y0032751D02*
X0117200Y0032751D01*
X0117200Y0031552D02*
X0116000Y0031552D01*
X0116000Y0030354D02*
X0117200Y0030354D01*
X0117200Y0026758D02*
X0116000Y0026758D01*
X0116000Y0025560D02*
X0117200Y0025560D01*
X0113591Y0021964D02*
X0109609Y0021964D01*
X0110727Y0020766D02*
X0112473Y0020766D01*
X0111977Y0019567D02*
X0111223Y0019567D01*
X0111400Y0018369D02*
X0111800Y0018369D01*
X0111800Y0017170D02*
X0111400Y0017170D01*
X0111400Y0015972D02*
X0111800Y0015972D01*
X0111800Y0014773D02*
X0111400Y0014773D01*
X0111400Y0013575D02*
X0111800Y0013575D01*
X0111800Y0012376D02*
X0111400Y0012376D01*
X0111378Y0011178D02*
X0111822Y0011178D01*
X0112318Y0009979D02*
X0110882Y0009979D01*
X0102318Y0009979D02*
X0080518Y0009979D01*
X0081717Y0011178D02*
X0101822Y0011178D01*
X0101800Y0012376D02*
X0082915Y0012376D01*
X0083796Y0013575D02*
X0101800Y0013575D01*
X0101800Y0014773D02*
X0084806Y0014773D01*
X0085547Y0015972D02*
X0101800Y0015972D01*
X0101800Y0017170D02*
X0086043Y0017170D01*
X0086126Y0018369D02*
X0101800Y0018369D01*
X0101977Y0019567D02*
X0086126Y0019567D01*
X0086126Y0020766D02*
X0102473Y0020766D01*
X0103591Y0021964D02*
X0086126Y0021964D01*
X0086126Y0023163D02*
X0142501Y0023163D01*
X0142501Y0024361D02*
X0086126Y0024361D01*
X0086126Y0025560D02*
X0101710Y0025560D01*
X0101451Y0026758D02*
X0086126Y0026758D01*
X0086126Y0027957D02*
X0101451Y0027957D01*
X0101451Y0030354D02*
X0085049Y0030354D01*
X0085648Y0029155D02*
X0106000Y0029155D01*
X0106000Y0027957D02*
X0107200Y0027957D01*
X0107200Y0026758D02*
X0106000Y0026758D01*
X0106000Y0025560D02*
X0107200Y0025560D01*
X0111490Y0025560D02*
X0111710Y0025560D01*
X0101451Y0031552D02*
X0083851Y0031552D01*
X0081378Y0032751D02*
X0101451Y0032751D01*
X0102001Y0033949D02*
X0052900Y0033949D01*
X0052900Y0032751D02*
X0079008Y0032751D01*
X0076534Y0031552D02*
X0063748Y0031552D01*
X0065027Y0030354D02*
X0075336Y0030354D01*
X0074738Y0029155D02*
X0065752Y0029155D01*
X0066133Y0027957D02*
X0074259Y0027957D01*
X0074259Y0026758D02*
X0066241Y0026758D01*
X0066241Y0025560D02*
X0074259Y0025560D01*
X0074259Y0024361D02*
X0066241Y0024361D01*
X0066241Y0021964D02*
X0074259Y0021964D01*
X0074259Y0020766D02*
X0066241Y0020766D01*
X0066241Y0019567D02*
X0074259Y0019567D01*
X0074259Y0018369D02*
X0066241Y0018369D01*
X0066088Y0017170D02*
X0074342Y0017170D01*
X0074838Y0015972D02*
X0065628Y0015972D01*
X0061108Y0023163D02*
X0074259Y0023163D01*
X0061107Y0024361D02*
X0059907Y0024361D01*
X0059907Y0023285D02*
X0059907Y0032529D01*
X0059165Y0032412D01*
X0058306Y0032133D01*
X0057502Y0031723D01*
X0056772Y0031192D01*
X0056134Y0030554D01*
X0055603Y0029824D01*
X0055194Y0029020D01*
X0054915Y0028162D01*
X0054774Y0027270D01*
X0054774Y0023285D01*
X0059907Y0023285D01*
X0059907Y0023163D02*
X0052900Y0023163D01*
X0052900Y0024361D02*
X0054774Y0024361D01*
X0054774Y0025560D02*
X0052900Y0025560D01*
X0052900Y0026758D02*
X0054774Y0026758D01*
X0054882Y0027957D02*
X0052900Y0027957D01*
X0052900Y0029155D02*
X0055263Y0029155D01*
X0055988Y0030354D02*
X0052900Y0030354D01*
X0052900Y0031552D02*
X0057267Y0031552D01*
X0059907Y0031552D02*
X0061107Y0031552D01*
X0061107Y0030354D02*
X0059907Y0030354D01*
X0059907Y0029155D02*
X0061107Y0029155D01*
X0061107Y0027957D02*
X0059907Y0027957D01*
X0059907Y0026758D02*
X0061107Y0026758D01*
X0061107Y0025560D02*
X0059907Y0025560D01*
X0054774Y0021964D02*
X0052900Y0021964D01*
X0052900Y0020766D02*
X0054774Y0020766D01*
X0054774Y0019567D02*
X0052900Y0019567D01*
X0052900Y0018369D02*
X0054774Y0018369D01*
X0054927Y0017170D02*
X0053489Y0017170D01*
X0054687Y0015972D02*
X0055387Y0015972D01*
X0045300Y0027957D02*
X0045251Y0027957D01*
X0045300Y0029155D02*
X0045079Y0029155D01*
X0044859Y0030354D02*
X0045300Y0030354D01*
X0045300Y0031552D02*
X0044311Y0031552D01*
X0043764Y0032751D02*
X0045300Y0032751D01*
X0045300Y0033949D02*
X0043217Y0033949D01*
X0042824Y0034808D02*
X0042824Y0034808D01*
X0042530Y0035148D02*
X0045300Y0035148D01*
X0045300Y0036346D02*
X0041492Y0036346D01*
X0040453Y0037545D02*
X0045300Y0037545D01*
X0045300Y0038743D02*
X0039342Y0038743D01*
X0039507Y0038637D02*
X0039507Y0038637D01*
X0037477Y0039942D02*
X0045300Y0039942D01*
X0045300Y0041140D02*
X0035612Y0041140D01*
X0035244Y0041376D02*
X0035244Y0041376D01*
X0031967Y0042339D02*
X0045300Y0042339D01*
X0045300Y0043537D02*
X0012450Y0043537D01*
X0012450Y0042339D02*
X0023733Y0042339D01*
X0020088Y0041140D02*
X0012450Y0041140D01*
X0012450Y0039942D02*
X0018223Y0039942D01*
X0016358Y0038743D02*
X0012450Y0038743D01*
X0012450Y0037545D02*
X0015247Y0037545D01*
X0016193Y0038637D02*
X0016193Y0038637D01*
X0016193Y0038637D01*
X0014208Y0036346D02*
X0012450Y0036346D01*
X0012450Y0035148D02*
X0013170Y0035148D01*
X0012876Y0034808D02*
X0012876Y0034808D01*
X0012483Y0033949D02*
X0012450Y0033949D01*
X0012450Y0044736D02*
X0045300Y0044736D01*
X0045300Y0045934D02*
X0012450Y0045934D01*
X0012450Y0047133D02*
X0045300Y0047133D01*
X0045300Y0048331D02*
X0012450Y0048331D01*
X0012450Y0049530D02*
X0045300Y0049530D01*
X0045300Y0050728D02*
X0012450Y0050728D01*
X0012450Y0051927D02*
X0045300Y0051927D01*
X0045300Y0053125D02*
X0012450Y0053125D01*
X0012450Y0054324D02*
X0045300Y0054324D01*
X0045300Y0055523D02*
X0033056Y0055523D01*
X0032845Y0055312D02*
X0034514Y0056981D01*
X0035418Y0059162D01*
X0035418Y0061523D01*
X0034514Y0063704D01*
X0032845Y0065373D01*
X0030664Y0066276D01*
X0020036Y0066276D01*
X0017855Y0065373D01*
X0016186Y0063704D01*
X0015282Y0061523D01*
X0015282Y0059162D01*
X0016186Y0056981D01*
X0017855Y0055312D01*
X0020036Y0054409D01*
X0030664Y0054409D01*
X0032845Y0055312D01*
X0034254Y0056721D02*
X0045300Y0056721D01*
X0045300Y0057920D02*
X0034903Y0057920D01*
X0035399Y0059118D02*
X0045300Y0059118D01*
X0045300Y0060317D02*
X0035418Y0060317D01*
X0035418Y0061515D02*
X0045300Y0061515D01*
X0045300Y0062714D02*
X0034924Y0062714D01*
X0034306Y0063912D02*
X0045300Y0063912D01*
X0045300Y0065111D02*
X0033108Y0065111D01*
X0030664Y0074094D02*
X0032845Y0074997D01*
X0034514Y0076666D01*
X0035418Y0078847D01*
X0035418Y0081208D01*
X0034514Y0083389D01*
X0032845Y0085058D01*
X0030664Y0085961D01*
X0020036Y0085961D01*
X0017855Y0085058D01*
X0016186Y0083389D01*
X0015282Y0081208D01*
X0015282Y0078847D01*
X0016186Y0076666D01*
X0017855Y0074997D01*
X0020036Y0074094D01*
X0030664Y0074094D01*
X0032125Y0074699D02*
X0045300Y0074699D01*
X0045300Y0075897D02*
X0033745Y0075897D01*
X0034692Y0077096D02*
X0045300Y0077096D01*
X0045300Y0078294D02*
X0035189Y0078294D01*
X0035418Y0079493D02*
X0045300Y0079493D01*
X0045300Y0080691D02*
X0035418Y0080691D01*
X0035135Y0081890D02*
X0045300Y0081890D01*
X0045300Y0083088D02*
X0034639Y0083088D01*
X0033616Y0084287D02*
X0045300Y0084287D01*
X0045300Y0085485D02*
X0031814Y0085485D01*
X0018886Y0085485D02*
X0012450Y0085485D01*
X0012450Y0084287D02*
X0017084Y0084287D01*
X0016061Y0083088D02*
X0012450Y0083088D01*
X0012450Y0081890D02*
X0015565Y0081890D01*
X0015282Y0080691D02*
X0012450Y0080691D01*
X0012450Y0079493D02*
X0015282Y0079493D01*
X0015511Y0078294D02*
X0012450Y0078294D01*
X0012450Y0077096D02*
X0016008Y0077096D01*
X0016955Y0075897D02*
X0012450Y0075897D01*
X0012450Y0074699D02*
X0018575Y0074699D01*
X0012450Y0073500D02*
X0045300Y0073500D01*
X0045300Y0072302D02*
X0012450Y0072302D01*
X0012450Y0071103D02*
X0045300Y0071103D01*
X0045300Y0069905D02*
X0012450Y0069905D01*
X0012450Y0068706D02*
X0045300Y0068706D01*
X0045300Y0067508D02*
X0012450Y0067508D01*
X0012450Y0066309D02*
X0045300Y0066309D01*
X0045300Y0086684D02*
X0012450Y0086684D01*
X0012450Y0087882D02*
X0045300Y0087882D01*
X0045300Y0089081D02*
X0012450Y0089081D01*
X0012450Y0090279D02*
X0045300Y0090279D01*
X0045300Y0091478D02*
X0012450Y0091478D01*
X0012450Y0092676D02*
X0045300Y0092676D01*
X0045300Y0093875D02*
X0012450Y0093875D01*
X0012450Y0095073D02*
X0045300Y0095073D01*
X0045300Y0096272D02*
X0012450Y0096272D01*
X0012450Y0097470D02*
X0045300Y0097470D01*
X0045300Y0098669D02*
X0012450Y0098669D01*
X0012450Y0099867D02*
X0045300Y0099867D01*
X0045300Y0101066D02*
X0012450Y0101066D01*
X0012450Y0102264D02*
X0045300Y0102264D01*
X0045300Y0103463D02*
X0012450Y0103463D01*
X0012450Y0104661D02*
X0045300Y0104661D01*
X0045300Y0105860D02*
X0012450Y0105860D01*
X0012450Y0107059D02*
X0045300Y0107059D01*
X0045300Y0108257D02*
X0012450Y0108257D01*
X0012450Y0109456D02*
X0019923Y0109456D01*
X0020036Y0109409D02*
X0030664Y0109409D01*
X0032845Y0110312D01*
X0034514Y0111981D01*
X0035418Y0114162D01*
X0035418Y0116523D01*
X0034514Y0118704D01*
X0032845Y0120373D01*
X0030664Y0121276D01*
X0020036Y0121276D01*
X0017855Y0120373D01*
X0016186Y0118704D01*
X0015282Y0116523D01*
X0015282Y0114162D01*
X0016186Y0111981D01*
X0017855Y0110312D01*
X0020036Y0109409D01*
X0017513Y0110654D02*
X0012450Y0110654D01*
X0012450Y0111853D02*
X0016314Y0111853D01*
X0015743Y0113051D02*
X0012450Y0113051D01*
X0012450Y0114250D02*
X0015282Y0114250D01*
X0015282Y0115448D02*
X0012450Y0115448D01*
X0012450Y0116647D02*
X0015334Y0116647D01*
X0015830Y0117845D02*
X0012450Y0117845D01*
X0012450Y0119044D02*
X0016525Y0119044D01*
X0017724Y0120242D02*
X0012450Y0120242D01*
X0012450Y0121441D02*
X0045300Y0121441D01*
X0045300Y0122639D02*
X0012450Y0122639D01*
X0012450Y0123838D02*
X0045464Y0123838D01*
X0046077Y0125036D02*
X0012450Y0125036D01*
X0012450Y0126235D02*
X0047276Y0126235D01*
X0048474Y0127433D02*
X0012450Y0127433D01*
X0012450Y0128632D02*
X0049673Y0128632D01*
X0050871Y0129830D02*
X0032442Y0129830D01*
X0032845Y0129997D02*
X0034514Y0131666D01*
X0035418Y0133847D01*
X0035418Y0136208D01*
X0034514Y0138389D01*
X0032845Y0140058D01*
X0030664Y0140961D01*
X0020036Y0140961D01*
X0017855Y0140058D01*
X0016186Y0138389D01*
X0015282Y0136208D01*
X0015282Y0133847D01*
X0016186Y0131666D01*
X0017855Y0129997D01*
X0020036Y0129094D01*
X0030664Y0129094D01*
X0032845Y0129997D01*
X0033877Y0131029D02*
X0052070Y0131029D01*
X0053268Y0132227D02*
X0034747Y0132227D01*
X0035243Y0133426D02*
X0054467Y0133426D01*
X0052517Y0134624D02*
X0035418Y0134624D01*
X0035418Y0135823D02*
X0051318Y0135823D01*
X0050120Y0137021D02*
X0035081Y0137021D01*
X0034584Y0138220D02*
X0048921Y0138220D01*
X0048070Y0139418D02*
X0033485Y0139418D01*
X0031496Y0140617D02*
X0047950Y0140617D01*
X0047950Y0141815D02*
X0012450Y0141815D01*
X0012450Y0140617D02*
X0019204Y0140617D01*
X0017215Y0139418D02*
X0012450Y0139418D01*
X0012450Y0138220D02*
X0016116Y0138220D01*
X0015619Y0137021D02*
X0012450Y0137021D01*
X0012450Y0135823D02*
X0015282Y0135823D01*
X0015282Y0134624D02*
X0012450Y0134624D01*
X0012450Y0133426D02*
X0015457Y0133426D01*
X0015953Y0132227D02*
X0012450Y0132227D01*
X0012450Y0131029D02*
X0016823Y0131029D01*
X0018258Y0129830D02*
X0012450Y0129830D01*
X0012450Y0143014D02*
X0047950Y0143014D01*
X0047950Y0144212D02*
X0012450Y0144212D01*
X0012450Y0145411D02*
X0047950Y0145411D01*
X0047950Y0146609D02*
X0012450Y0146609D01*
X0012450Y0147808D02*
X0047950Y0147808D01*
X0047950Y0149006D02*
X0012450Y0149006D01*
X0012450Y0150205D02*
X0047950Y0150205D01*
X0047950Y0151403D02*
X0012450Y0151403D01*
X0012450Y0152602D02*
X0047950Y0152602D01*
X0047950Y0153800D02*
X0012450Y0153800D01*
X0012450Y0154999D02*
X0047950Y0154999D01*
X0047950Y0156197D02*
X0045656Y0156197D01*
X0047010Y0157396D02*
X0047950Y0157396D01*
X0047950Y0158594D02*
X0047670Y0158594D01*
X0047950Y0159793D02*
X0040750Y0159793D01*
X0040750Y0158594D02*
X0039950Y0158594D01*
X0039950Y0157396D02*
X0040750Y0157396D01*
X0040750Y0156197D02*
X0039950Y0156197D01*
X0044688Y0164587D02*
X0047950Y0164587D01*
X0047950Y0163389D02*
X0046652Y0163389D01*
X0047491Y0162190D02*
X0047950Y0162190D01*
X0047950Y0160992D02*
X0047880Y0160992D01*
X0047950Y0165786D02*
X0045272Y0165786D01*
X0046937Y0166984D02*
X0047657Y0166984D01*
X0051709Y0169720D02*
X0051709Y0169720D01*
X0052048Y0169381D02*
X0060450Y0169381D01*
X0060450Y0168183D02*
X0052742Y0168183D01*
X0052750Y0166984D02*
X0060450Y0166984D01*
X0060450Y0165786D02*
X0052750Y0165786D01*
X0052750Y0164587D02*
X0060450Y0164587D01*
X0060450Y0163389D02*
X0052750Y0163389D01*
X0052750Y0162190D02*
X0060450Y0162190D01*
X0060450Y0160992D02*
X0052750Y0160992D01*
X0052750Y0159793D02*
X0060450Y0159793D01*
X0065250Y0159793D02*
X0092950Y0159793D01*
X0092950Y0158594D02*
X0065250Y0158594D01*
X0065250Y0157396D02*
X0093495Y0157396D01*
X0094693Y0156197D02*
X0065250Y0156197D01*
X0065250Y0154999D02*
X0095892Y0154999D01*
X0097090Y0153800D02*
X0065250Y0153800D01*
X0065250Y0152602D02*
X0098289Y0152602D01*
X0099487Y0151403D02*
X0065250Y0151403D01*
X0065250Y0160992D02*
X0092950Y0160992D01*
X0092950Y0162190D02*
X0065250Y0162190D01*
X0065250Y0163389D02*
X0092950Y0163389D01*
X0092950Y0164587D02*
X0065250Y0164587D01*
X0065250Y0165786D02*
X0092950Y0165786D01*
X0092950Y0166984D02*
X0065250Y0166984D01*
X0065250Y0168183D02*
X0092950Y0168183D01*
X0092950Y0169381D02*
X0065250Y0169381D01*
X0065250Y0170580D02*
X0081554Y0170580D01*
X0080916Y0171778D02*
X0065250Y0171778D01*
X0065250Y0172977D02*
X0079849Y0172977D01*
X0078650Y0174175D02*
X0065250Y0174175D01*
X0064805Y0175374D02*
X0077452Y0175374D01*
X0081776Y0178969D02*
X0092950Y0178969D01*
X0092950Y0177771D02*
X0082974Y0177771D01*
X0084173Y0176572D02*
X0092950Y0176572D01*
X0092950Y0175374D02*
X0086063Y0175374D01*
X0087043Y0174175D02*
X0092950Y0174175D01*
X0092950Y0172977D02*
X0087389Y0172977D01*
X0087284Y0171778D02*
X0092950Y0171778D01*
X0092950Y0170580D02*
X0086646Y0170580D01*
X0080577Y0180168D02*
X0092950Y0180168D01*
X0092950Y0181366D02*
X0079297Y0181366D01*
X0086135Y0189756D02*
X0030650Y0189756D01*
X0030650Y0189230D02*
X0030650Y0191140D01*
X0029919Y0192904D01*
X0028569Y0194254D01*
X0026805Y0194985D01*
X0018895Y0194985D01*
X0017131Y0194254D01*
X0015781Y0192904D01*
X0015050Y0191140D01*
X0015050Y0189230D01*
X0015781Y0187466D01*
X0017131Y0186116D01*
X0018895Y0185385D01*
X0026805Y0185385D01*
X0028569Y0186116D01*
X0029919Y0187466D01*
X0030650Y0189230D01*
X0030371Y0188557D02*
X0032952Y0188557D01*
X0031630Y0187359D02*
X0029812Y0187359D01*
X0030431Y0186160D02*
X0028613Y0186160D01*
X0029428Y0184962D02*
X0026861Y0184962D01*
X0029060Y0183763D02*
X0029200Y0183763D01*
X0031600Y0183935D02*
X0034100Y0186435D01*
X0064100Y0186435D01*
X0067850Y0182685D01*
X0067850Y0178935D01*
X0064801Y0180168D02*
X0060011Y0180168D01*
X0058813Y0181366D02*
X0065450Y0181366D01*
X0064576Y0182565D02*
X0057126Y0182565D01*
X0056600Y0180185D02*
X0040350Y0180185D01*
X0034175Y0176572D02*
X0034000Y0176572D01*
X0031600Y0176435D02*
X0031600Y0183935D01*
X0030650Y0190954D02*
X0085451Y0190954D01*
X0085450Y0192153D02*
X0030230Y0192153D01*
X0029472Y0193351D02*
X0084895Y0193351D01*
X0083746Y0194550D02*
X0027855Y0194550D01*
X0031654Y0202939D02*
X0083050Y0202939D01*
X0083050Y0201741D02*
X0012450Y0201741D01*
X0012450Y0202939D02*
X0024046Y0202939D01*
X0020456Y0203994D02*
X0020456Y0203994D01*
X0020231Y0204138D02*
X0012450Y0204138D01*
X0012450Y0205336D02*
X0018366Y0205336D01*
X0016501Y0206535D02*
X0012450Y0206535D01*
X0012450Y0207733D02*
X0015326Y0207733D01*
X0014288Y0208932D02*
X0012450Y0208932D01*
X0012450Y0210130D02*
X0013249Y0210130D01*
X0012525Y0211329D02*
X0012450Y0211329D01*
X0012450Y0200542D02*
X0083050Y0200542D01*
X0083050Y0199344D02*
X0012450Y0199344D01*
X0012450Y0198145D02*
X0083050Y0198145D01*
X0083050Y0196947D02*
X0012450Y0196947D01*
X0012450Y0195748D02*
X0083250Y0195748D01*
X0087850Y0191435D02*
X0087850Y0200185D01*
X0092650Y0200542D02*
X0093050Y0200542D01*
X0093050Y0199344D02*
X0092650Y0199344D01*
X0092650Y0198145D02*
X0093050Y0198145D01*
X0093050Y0196947D02*
X0092650Y0196947D01*
X0092650Y0196230D02*
X0092650Y0204140D01*
X0091919Y0205904D01*
X0090569Y0207254D01*
X0089529Y0207685D01*
X0090569Y0208116D01*
X0091919Y0209466D01*
X0092650Y0211230D01*
X0092650Y0219140D01*
X0091919Y0220904D01*
X0090569Y0222254D01*
X0089246Y0222802D01*
X0089616Y0222922D01*
X0090261Y0223251D01*
X0090847Y0223676D01*
X0091359Y0224188D01*
X0091784Y0224774D01*
X0092113Y0225419D01*
X0092337Y0226108D01*
X0092450Y0226823D01*
X0092450Y0229785D01*
X0088250Y0229785D01*
X0088250Y0230585D01*
X0092450Y0230585D01*
X0092450Y0233547D01*
X0092337Y0234262D01*
X0092113Y0234951D01*
X0091784Y0235596D01*
X0091359Y0236182D01*
X0090847Y0236694D01*
X0090693Y0236806D01*
X0095007Y0236806D01*
X0094853Y0236694D01*
X0094341Y0236182D01*
X0093916Y0235596D01*
X0093587Y0234951D01*
X0093363Y0234262D01*
X0093250Y0233547D01*
X0093250Y0230585D01*
X0097450Y0230585D01*
X0097450Y0229785D01*
X0093250Y0229785D01*
X0093250Y0226823D01*
X0093363Y0226108D01*
X0093587Y0225419D01*
X0093916Y0224774D01*
X0094341Y0224188D01*
X0094853Y0223676D01*
X0095439Y0223251D01*
X0096084Y0222922D01*
X0096454Y0222802D01*
X0095131Y0222254D01*
X0093781Y0220904D01*
X0093050Y0219140D01*
X0093050Y0211230D01*
X0093781Y0209466D01*
X0095131Y0208116D01*
X0096171Y0207685D01*
X0095131Y0207254D01*
X0093781Y0205904D01*
X0093050Y0204140D01*
X0093050Y0196230D01*
X0093781Y0194466D01*
X0095131Y0193116D01*
X0095450Y0192984D01*
X0095450Y0187229D01*
X0090250Y0192429D01*
X0090250Y0192984D01*
X0090569Y0193116D01*
X0091919Y0194466D01*
X0092650Y0196230D01*
X0092450Y0195748D02*
X0093250Y0195748D01*
X0093746Y0194550D02*
X0091954Y0194550D01*
X0090804Y0193351D02*
X0094895Y0193351D01*
X0095450Y0192153D02*
X0090526Y0192153D01*
X0091725Y0190954D02*
X0095450Y0190954D01*
X0095450Y0189756D02*
X0092923Y0189756D01*
X0094122Y0188557D02*
X0095450Y0188557D01*
X0095450Y0187359D02*
X0095320Y0187359D01*
X0095350Y0183935D02*
X0087850Y0191435D01*
X0087334Y0188557D02*
X0065248Y0188557D01*
X0066135Y0187795D02*
X0066135Y0187795D01*
X0066570Y0187359D02*
X0088532Y0187359D01*
X0089731Y0186160D02*
X0067769Y0186160D01*
X0068967Y0184962D02*
X0090929Y0184962D01*
X0092128Y0183763D02*
X0070001Y0183763D01*
X0070250Y0182565D02*
X0092950Y0182565D01*
X0095350Y0183935D02*
X0095350Y0158935D01*
X0102900Y0151385D01*
X0111350Y0151385D01*
X0111300Y0148935D02*
X0106600Y0148935D01*
X0106850Y0148885D02*
X0107704Y0148885D01*
X0107704Y0148885D01*
X0111350Y0148885D01*
X0111300Y0148935D01*
X0111350Y0148885D02*
X0111350Y0148885D01*
X0111350Y0146585D01*
X0111350Y0146285D01*
X0106850Y0146285D01*
X0111350Y0146285D01*
X0111350Y0146285D01*
X0115850Y0146285D01*
X0115850Y0147196D01*
X0115746Y0147585D01*
X0115850Y0147974D01*
X0115850Y0148885D01*
X0111350Y0148885D01*
X0111350Y0148885D01*
X0111350Y0148885D01*
X0111350Y0146285D01*
X0111350Y0146285D01*
X0111350Y0146609D02*
X0111350Y0146609D01*
X0111350Y0147808D02*
X0111350Y0147808D01*
X0111350Y0148885D02*
X0106850Y0148885D01*
X0106895Y0147808D02*
X0099591Y0147808D01*
X0099889Y0146609D02*
X0106850Y0146609D01*
X0106850Y0145411D02*
X0099736Y0145411D01*
X0099029Y0144212D02*
X0106650Y0144212D01*
X0111350Y0143685D02*
X0121600Y0143685D01*
X0121600Y0143935D02*
X0120350Y0145185D01*
X0117380Y0146609D02*
X0115850Y0146609D01*
X0115805Y0147808D02*
X0118322Y0147808D01*
X0111350Y0153985D02*
X0104050Y0153985D01*
X0097850Y0160185D01*
X0097850Y0200185D01*
X0102650Y0200542D02*
X0103050Y0200542D01*
X0103050Y0199344D02*
X0102650Y0199344D01*
X0102650Y0198145D02*
X0103050Y0198145D01*
X0103050Y0196947D02*
X0102650Y0196947D01*
X0102650Y0196230D02*
X0102650Y0204140D01*
X0101919Y0205904D01*
X0100569Y0207254D01*
X0099529Y0207685D01*
X0100569Y0208116D01*
X0101919Y0209466D01*
X0102650Y0211230D01*
X0102650Y0219140D01*
X0101919Y0220904D01*
X0100569Y0222254D01*
X0099246Y0222802D01*
X0099616Y0222922D01*
X0100261Y0223251D01*
X0100847Y0223676D01*
X0101359Y0224188D01*
X0101784Y0224774D01*
X0102113Y0225419D01*
X0102337Y0226108D01*
X0102450Y0226823D01*
X0102450Y0229785D01*
X0098250Y0229785D01*
X0098250Y0230585D01*
X0102450Y0230585D01*
X0102450Y0233547D01*
X0102337Y0234262D01*
X0102113Y0234951D01*
X0101784Y0235596D01*
X0101359Y0236182D01*
X0100847Y0236694D01*
X0100693Y0236806D01*
X0105007Y0236806D01*
X0104853Y0236694D01*
X0104341Y0236182D01*
X0103916Y0235596D01*
X0103587Y0234951D01*
X0103363Y0234262D01*
X0103250Y0233547D01*
X0103250Y0230585D01*
X0107450Y0230585D01*
X0107450Y0229785D01*
X0103250Y0229785D01*
X0103250Y0226823D01*
X0103363Y0226108D01*
X0103587Y0225419D01*
X0103916Y0224774D01*
X0104341Y0224188D01*
X0104853Y0223676D01*
X0105439Y0223251D01*
X0106084Y0222922D01*
X0106454Y0222802D01*
X0105131Y0222254D01*
X0103781Y0220904D01*
X0103050Y0219140D01*
X0103050Y0211230D01*
X0103781Y0209466D01*
X0105131Y0208116D01*
X0106171Y0207685D01*
X0105131Y0207254D01*
X0103781Y0205904D01*
X0103050Y0204140D01*
X0103050Y0196230D01*
X0103781Y0194466D01*
X0105131Y0193116D01*
X0105450Y0192984D01*
X0105450Y0189929D01*
X0100250Y0184729D01*
X0100250Y0192984D01*
X0100569Y0193116D01*
X0101919Y0194466D01*
X0102650Y0196230D01*
X0102450Y0195748D02*
X0103250Y0195748D01*
X0103746Y0194550D02*
X0101954Y0194550D01*
X0100804Y0193351D02*
X0104895Y0193351D01*
X0105450Y0192153D02*
X0100250Y0192153D01*
X0100250Y0190954D02*
X0105450Y0190954D01*
X0105277Y0189756D02*
X0100250Y0189756D01*
X0100250Y0188557D02*
X0104078Y0188557D01*
X0102880Y0187359D02*
X0100250Y0187359D01*
X0100250Y0186160D02*
X0101681Y0186160D01*
X0100483Y0184962D02*
X0100250Y0184962D01*
X0104100Y0178935D02*
X0104100Y0161435D01*
X0106500Y0165786D02*
X0112392Y0165786D01*
X0112392Y0166984D02*
X0106500Y0166984D01*
X0099100Y0150185D02*
X0100350Y0148935D01*
X0098680Y0149006D02*
X0102371Y0149006D01*
X0118132Y0128632D02*
X0060421Y0128632D01*
X0054428Y0122639D02*
X0090745Y0122639D01*
X0121600Y0077685D02*
X0121600Y0047685D01*
X0116600Y0047685D02*
X0116600Y0040783D01*
X0126600Y0040783D02*
X0126600Y0047685D01*
X0131490Y0025560D02*
X0131710Y0025560D01*
X0153199Y0021964D02*
X0153783Y0021964D01*
X0153199Y0020766D02*
X0155476Y0020766D01*
X0193375Y0074699D02*
X0200100Y0074699D01*
X0200100Y0075897D02*
X0194995Y0075897D01*
X0195942Y0077096D02*
X0200100Y0077096D01*
X0200100Y0078294D02*
X0196439Y0078294D01*
X0196668Y0079493D02*
X0200100Y0079493D01*
X0200100Y0080691D02*
X0196668Y0080691D01*
X0196385Y0081890D02*
X0200100Y0081890D01*
X0200100Y0083088D02*
X0195889Y0083088D01*
X0194866Y0084287D02*
X0200100Y0084287D01*
X0200100Y0085485D02*
X0193064Y0085485D01*
X0123050Y0201741D02*
X0122650Y0201741D01*
X0122650Y0202939D02*
X0123050Y0202939D01*
X0123050Y0204138D02*
X0122650Y0204138D01*
X0122154Y0205336D02*
X0123546Y0205336D01*
X0124412Y0206535D02*
X0121288Y0206535D01*
X0119646Y0207733D02*
X0126054Y0207733D01*
X0124315Y0208932D02*
X0121385Y0208932D01*
X0122194Y0210130D02*
X0123506Y0210130D01*
X0123050Y0211329D02*
X0122650Y0211329D01*
X0122650Y0212527D02*
X0123050Y0212527D01*
X0123050Y0213726D02*
X0122650Y0213726D01*
X0122650Y0214925D02*
X0123050Y0214925D01*
X0123050Y0216123D02*
X0122650Y0216123D01*
X0122650Y0217322D02*
X0123050Y0217322D01*
X0123050Y0218520D02*
X0122650Y0218520D01*
X0122410Y0219719D02*
X0123290Y0219719D01*
X0123794Y0220917D02*
X0121906Y0220917D01*
X0120708Y0222116D02*
X0124992Y0222116D01*
X0125352Y0223314D02*
X0120348Y0223314D01*
X0121594Y0224513D02*
X0124106Y0224513D01*
X0123492Y0225711D02*
X0122208Y0225711D01*
X0122450Y0226910D02*
X0123250Y0226910D01*
X0123250Y0228108D02*
X0122450Y0228108D01*
X0122450Y0229307D02*
X0123250Y0229307D01*
X0123250Y0231704D02*
X0122450Y0231704D01*
X0122450Y0232902D02*
X0123250Y0232902D01*
X0123338Y0234101D02*
X0122362Y0234101D01*
X0121935Y0235299D02*
X0123765Y0235299D01*
X0124657Y0236498D02*
X0121043Y0236498D01*
X0118250Y0230505D02*
X0127450Y0230505D01*
X0117450Y0230505D02*
X0108250Y0230505D01*
X0107450Y0230505D02*
X0098250Y0230505D01*
X0097450Y0230505D02*
X0088250Y0230505D01*
X0087450Y0230505D02*
X0042221Y0230505D01*
X0043053Y0229307D02*
X0083250Y0229307D01*
X0083250Y0228108D02*
X0043601Y0228108D01*
X0044148Y0226910D02*
X0083250Y0226910D01*
X0083492Y0225711D02*
X0044695Y0225711D01*
X0044929Y0225200D02*
X0044929Y0225200D01*
X0045028Y0224513D02*
X0084106Y0224513D01*
X0085352Y0223314D02*
X0045200Y0223314D01*
X0045372Y0222116D02*
X0084992Y0222116D01*
X0083794Y0220917D02*
X0045545Y0220917D01*
X0045583Y0219719D02*
X0083290Y0219719D01*
X0083050Y0218520D02*
X0045411Y0218520D01*
X0045238Y0217322D02*
X0083050Y0217322D01*
X0083050Y0216123D02*
X0045066Y0216123D01*
X0044817Y0214925D02*
X0083050Y0214925D01*
X0083050Y0213726D02*
X0044269Y0213726D01*
X0043722Y0212527D02*
X0083050Y0212527D01*
X0083050Y0211329D02*
X0043175Y0211329D01*
X0042824Y0210562D02*
X0042824Y0210562D01*
X0042451Y0210130D02*
X0083506Y0210130D01*
X0084315Y0208932D02*
X0041412Y0208932D01*
X0040374Y0207733D02*
X0086054Y0207733D01*
X0084412Y0206535D02*
X0039199Y0206535D01*
X0039506Y0206733D02*
X0039507Y0206733D01*
X0039507Y0206733D01*
X0037334Y0205336D02*
X0083546Y0205336D01*
X0083050Y0204138D02*
X0035469Y0204138D01*
X0017845Y0194550D02*
X0012450Y0194550D01*
X0012450Y0193351D02*
X0016228Y0193351D01*
X0015470Y0192153D02*
X0012450Y0192153D01*
X0012450Y0190954D02*
X0015050Y0190954D01*
X0015050Y0189756D02*
X0012450Y0189756D01*
X0012450Y0188557D02*
X0015329Y0188557D01*
X0015888Y0187359D02*
X0012450Y0187359D01*
X0012450Y0186160D02*
X0017087Y0186160D01*
X0018839Y0184962D02*
X0012450Y0184962D01*
X0012450Y0183763D02*
X0016640Y0183763D01*
X0015640Y0182565D02*
X0012450Y0182565D01*
X0012450Y0181366D02*
X0015144Y0181366D01*
X0015050Y0180168D02*
X0012450Y0180168D01*
X0012450Y0178969D02*
X0015158Y0178969D01*
X0015655Y0177771D02*
X0012450Y0177771D01*
X0046148Y0174175D02*
X0059216Y0174175D01*
X0060414Y0172977D02*
X0047347Y0172977D01*
X0049651Y0171778D02*
X0060450Y0171778D01*
X0060450Y0170580D02*
X0050850Y0170580D01*
X0049885Y0171545D02*
X0049885Y0171545D01*
X0046560Y0183763D02*
X0063378Y0183763D01*
X0064561Y0178969D02*
X0061210Y0178969D01*
X0062408Y0177771D02*
X0064772Y0177771D01*
X0065562Y0176572D02*
X0063607Y0176572D01*
X0092650Y0201741D02*
X0093050Y0201741D01*
X0093050Y0202939D02*
X0092650Y0202939D01*
X0092650Y0204138D02*
X0093050Y0204138D01*
X0093546Y0205336D02*
X0092154Y0205336D01*
X0091288Y0206535D02*
X0094412Y0206535D01*
X0096054Y0207733D02*
X0089646Y0207733D01*
X0091385Y0208932D02*
X0094315Y0208932D01*
X0093506Y0210130D02*
X0092194Y0210130D01*
X0092650Y0211329D02*
X0093050Y0211329D01*
X0093050Y0212527D02*
X0092650Y0212527D01*
X0092650Y0213726D02*
X0093050Y0213726D01*
X0093050Y0214925D02*
X0092650Y0214925D01*
X0092650Y0216123D02*
X0093050Y0216123D01*
X0093050Y0217322D02*
X0092650Y0217322D01*
X0092650Y0218520D02*
X0093050Y0218520D01*
X0093290Y0219719D02*
X0092410Y0219719D01*
X0091906Y0220917D02*
X0093794Y0220917D01*
X0094992Y0222116D02*
X0090708Y0222116D01*
X0090348Y0223314D02*
X0095352Y0223314D01*
X0094106Y0224513D02*
X0091594Y0224513D01*
X0092208Y0225711D02*
X0093492Y0225711D01*
X0093250Y0226910D02*
X0092450Y0226910D01*
X0092450Y0228108D02*
X0093250Y0228108D01*
X0093250Y0229307D02*
X0092450Y0229307D01*
X0092450Y0231704D02*
X0093250Y0231704D01*
X0093250Y0232902D02*
X0092450Y0232902D01*
X0092362Y0234101D02*
X0093338Y0234101D01*
X0093765Y0235299D02*
X0091935Y0235299D01*
X0091043Y0236498D02*
X0094657Y0236498D01*
X0101043Y0236498D02*
X0104657Y0236498D01*
X0103765Y0235299D02*
X0101935Y0235299D01*
X0102362Y0234101D02*
X0103338Y0234101D01*
X0103250Y0232902D02*
X0102450Y0232902D01*
X0102450Y0231704D02*
X0103250Y0231704D01*
X0103250Y0229307D02*
X0102450Y0229307D01*
X0102450Y0228108D02*
X0103250Y0228108D01*
X0103250Y0226910D02*
X0102450Y0226910D01*
X0102208Y0225711D02*
X0103492Y0225711D01*
X0104106Y0224513D02*
X0101594Y0224513D01*
X0100348Y0223314D02*
X0105352Y0223314D01*
X0104992Y0222116D02*
X0100708Y0222116D01*
X0101906Y0220917D02*
X0103794Y0220917D01*
X0103290Y0219719D02*
X0102410Y0219719D01*
X0102650Y0218520D02*
X0103050Y0218520D01*
X0103050Y0217322D02*
X0102650Y0217322D01*
X0102650Y0216123D02*
X0103050Y0216123D01*
X0103050Y0214925D02*
X0102650Y0214925D01*
X0102650Y0213726D02*
X0103050Y0213726D01*
X0103050Y0212527D02*
X0102650Y0212527D01*
X0102650Y0211329D02*
X0103050Y0211329D01*
X0103506Y0210130D02*
X0102194Y0210130D01*
X0101385Y0208932D02*
X0104315Y0208932D01*
X0106054Y0207733D02*
X0099646Y0207733D01*
X0101288Y0206535D02*
X0104412Y0206535D01*
X0103546Y0205336D02*
X0102154Y0205336D01*
X0102650Y0204138D02*
X0103050Y0204138D01*
X0103050Y0202939D02*
X0102650Y0202939D01*
X0102650Y0201741D02*
X0103050Y0201741D01*
X0109646Y0207733D02*
X0116054Y0207733D01*
X0114412Y0206535D02*
X0111288Y0206535D01*
X0112154Y0205336D02*
X0113546Y0205336D01*
X0113050Y0204138D02*
X0112650Y0204138D01*
X0112650Y0202939D02*
X0113050Y0202939D01*
X0113050Y0201741D02*
X0112650Y0201741D01*
X0111385Y0208932D02*
X0114315Y0208932D01*
X0113506Y0210130D02*
X0112194Y0210130D01*
X0112650Y0211329D02*
X0113050Y0211329D01*
X0113050Y0212527D02*
X0112650Y0212527D01*
X0112650Y0213726D02*
X0113050Y0213726D01*
X0113050Y0214925D02*
X0112650Y0214925D01*
X0112650Y0216123D02*
X0113050Y0216123D01*
X0113050Y0217322D02*
X0112650Y0217322D01*
X0112650Y0218520D02*
X0113050Y0218520D01*
X0113290Y0219719D02*
X0112410Y0219719D01*
X0111906Y0220917D02*
X0113794Y0220917D01*
X0114992Y0222116D02*
X0110708Y0222116D01*
X0110348Y0223314D02*
X0115352Y0223314D01*
X0114106Y0224513D02*
X0111594Y0224513D01*
X0112208Y0225711D02*
X0113492Y0225711D01*
X0113250Y0226910D02*
X0112450Y0226910D01*
X0112450Y0228108D02*
X0113250Y0228108D01*
X0113250Y0229307D02*
X0112450Y0229307D01*
X0112450Y0231704D02*
X0113250Y0231704D01*
X0113250Y0232902D02*
X0112450Y0232902D01*
X0112362Y0234101D02*
X0113338Y0234101D01*
X0113765Y0235299D02*
X0111935Y0235299D01*
X0111043Y0236498D02*
X0114657Y0236498D01*
X0084657Y0236498D02*
X0034831Y0236498D01*
X0035244Y0236376D02*
X0035244Y0236376D01*
X0036921Y0235299D02*
X0083765Y0235299D01*
X0083338Y0234101D02*
X0038786Y0234101D01*
X0040144Y0232902D02*
X0083250Y0232902D01*
X0083250Y0231704D02*
X0041182Y0231704D01*
X0045300Y0120242D02*
X0032976Y0120242D01*
X0034174Y0119044D02*
X0045300Y0119044D01*
X0045300Y0117845D02*
X0034870Y0117845D01*
X0035366Y0116647D02*
X0045300Y0116647D01*
X0045300Y0115448D02*
X0035418Y0115448D01*
X0035418Y0114250D02*
X0045300Y0114250D01*
X0045300Y0113051D02*
X0034957Y0113051D01*
X0034386Y0111853D02*
X0045300Y0111853D01*
X0045300Y0110654D02*
X0033187Y0110654D01*
X0030777Y0109456D02*
X0045300Y0109456D01*
X0017592Y0065111D02*
X0012450Y0065111D01*
X0012450Y0063912D02*
X0016394Y0063912D01*
X0015776Y0062714D02*
X0012450Y0062714D01*
X0012450Y0061515D02*
X0015282Y0061515D01*
X0015282Y0060317D02*
X0012450Y0060317D01*
X0012450Y0059118D02*
X0015301Y0059118D01*
X0015797Y0057920D02*
X0012450Y0057920D01*
X0012450Y0056721D02*
X0016446Y0056721D01*
X0017644Y0055523D02*
X0012450Y0055523D01*
D19*
X0095350Y0062685D03*
D20*
X0095350Y0052685D01*
X0089100Y0046435D01*
X0085350Y0046435D01*
X0067850Y0046435D01*
X0060507Y0039093D01*
X0060507Y0022685D01*
X0049100Y0016185D02*
X0054100Y0011185D01*
X0076350Y0011185D01*
X0080350Y0015185D01*
X0080350Y0022528D01*
X0080193Y0022685D01*
X0049100Y0016185D02*
X0049100Y0122685D01*
X0059100Y0132685D01*
X0154100Y0132685D01*
X0161600Y0140185D01*
X0161600Y0165185D01*
X0161950Y0165535D01*
X0087850Y0230185D02*
X0084100Y0230185D01*
X0076600Y0222685D01*
X0076600Y0207685D01*
D21*
X0067850Y0178935D03*
X0084100Y0172685D03*
X0099100Y0150185D03*
X0096600Y0146435D03*
X0092850Y0125185D03*
X0111256Y0123935D03*
X0116600Y0123935D03*
X0116600Y0116435D03*
X0121600Y0116435D03*
X0129100Y0121435D03*
X0139100Y0117685D03*
X0139100Y0107685D03*
X0135376Y0101461D03*
X0150350Y0101435D03*
X0155350Y0122685D03*
X0157850Y0128935D03*
X0145350Y0139124D03*
X0139100Y0141624D03*
X0121600Y0148935D03*
X0120350Y0145185D03*
X0116600Y0158236D03*
X0125350Y0186435D03*
X0067850Y0113935D03*
X0054100Y0148935D03*
X0055350Y0155185D03*
X0107850Y0102874D03*
X0110350Y0106435D03*
X0142459Y0061826D03*
X0136600Y0047685D03*
X0126600Y0047685D03*
X0116600Y0047685D03*
X0106600Y0047685D03*
X0154100Y0078935D03*
X0159100Y0076435D03*
D22*
X0076600Y0116435D02*
X0074100Y0116435D01*
X0071600Y0113935D01*
X0071600Y0083935D01*
X0075350Y0080185D01*
X0074100Y0078935D01*
X0074100Y0070837D01*
X0040350Y0160185D02*
X0022850Y0160185D01*
X0016600Y0160185D01*
X0014100Y0162685D01*
X0014100Y0195185D01*
X0017850Y0198935D01*
X0071600Y0198935D01*
X0076600Y0203935D01*
X0076600Y0207685D01*
X0077850Y0178935D02*
X0067850Y0178935D01*
X0077850Y0178935D02*
X0084100Y0172685D01*
D23*
X0076600Y0207685D03*
X0161950Y0165535D03*
D24*
X0122850Y0111435D03*
X0135350Y0097685D03*
X0121600Y0077685D03*
X0121600Y0047685D03*
X0111600Y0047685D03*
X0101600Y0047685D03*
X0096600Y0047685D03*
X0075350Y0080185D03*
X0089100Y0082685D03*
X0076600Y0111435D03*
X0076600Y0116435D03*
M02*
