G75*
%MOIN*%
%OFA0B0*%
%FSLAX25Y25*%
%IPPOS*%
%LPD*%
%AMOC8*
5,1,8,0,0,1.08239X$1,22.5*
%
%ADD10C,0.00000*%
%ADD11C,0.06800*%
%ADD12R,0.06706X0.08674*%
%ADD13R,0.11036X0.07099*%
%ADD14R,0.06600X0.02200*%
%ADD15R,0.05524X0.05524*%
%ADD16C,0.09068*%
%ADD17R,0.06300X0.02170*%
%ADD18R,0.07099X0.07898*%
%ADD19R,0.07898X0.07099*%
%ADD20C,0.12611*%
%ADD21R,0.05600X0.09600*%
%ADD22R,0.14973X0.09461*%
%ADD23R,0.06312X0.12611*%
%ADD24R,0.08674X0.06706*%
%ADD25C,0.05800*%
%ADD26C,0.03778*%
%ADD27C,0.05918*%
%ADD28C,0.03975*%
D10*
X0007850Y0024870D02*
X0007850Y0221720D01*
X0007856Y0222196D01*
X0007873Y0222671D01*
X0007902Y0223146D01*
X0007942Y0223620D01*
X0007994Y0224093D01*
X0008057Y0224564D01*
X0008131Y0225034D01*
X0008217Y0225502D01*
X0008314Y0225968D01*
X0008422Y0226431D01*
X0008541Y0226891D01*
X0008672Y0227349D01*
X0008813Y0227803D01*
X0008966Y0228254D01*
X0009129Y0228700D01*
X0009303Y0229143D01*
X0009488Y0229581D01*
X0009683Y0230015D01*
X0009889Y0230444D01*
X0010105Y0230868D01*
X0010331Y0231287D01*
X0010567Y0231700D01*
X0010813Y0232107D01*
X0011069Y0232508D01*
X0011335Y0232902D01*
X0011610Y0233291D01*
X0011894Y0233672D01*
X0012187Y0234046D01*
X0012489Y0234414D01*
X0012801Y0234774D01*
X0013120Y0235126D01*
X0013448Y0235470D01*
X0013785Y0235807D01*
X0014129Y0236135D01*
X0014481Y0236454D01*
X0014841Y0236766D01*
X0015209Y0237068D01*
X0015583Y0237361D01*
X0015964Y0237645D01*
X0016353Y0237920D01*
X0016747Y0238186D01*
X0017148Y0238442D01*
X0017555Y0238688D01*
X0017968Y0238924D01*
X0018387Y0239150D01*
X0018811Y0239366D01*
X0019240Y0239572D01*
X0019674Y0239767D01*
X0020112Y0239952D01*
X0020555Y0240126D01*
X0021001Y0240289D01*
X0021452Y0240442D01*
X0021906Y0240583D01*
X0022364Y0240714D01*
X0022824Y0240833D01*
X0023287Y0240941D01*
X0023753Y0241038D01*
X0024221Y0241124D01*
X0024691Y0241198D01*
X0025162Y0241261D01*
X0025635Y0241313D01*
X0026109Y0241353D01*
X0026584Y0241382D01*
X0027059Y0241399D01*
X0027535Y0241405D01*
X0027535Y0241406D02*
X0185015Y0241406D01*
X0185015Y0241405D02*
X0185491Y0241399D01*
X0185966Y0241382D01*
X0186441Y0241353D01*
X0186915Y0241313D01*
X0187388Y0241261D01*
X0187859Y0241198D01*
X0188329Y0241124D01*
X0188797Y0241038D01*
X0189263Y0240941D01*
X0189726Y0240833D01*
X0190186Y0240714D01*
X0190644Y0240583D01*
X0191098Y0240442D01*
X0191549Y0240289D01*
X0191995Y0240126D01*
X0192438Y0239952D01*
X0192876Y0239767D01*
X0193310Y0239572D01*
X0193739Y0239366D01*
X0194163Y0239150D01*
X0194582Y0238924D01*
X0194995Y0238688D01*
X0195402Y0238442D01*
X0195803Y0238186D01*
X0196197Y0237920D01*
X0196586Y0237645D01*
X0196967Y0237361D01*
X0197341Y0237068D01*
X0197709Y0236766D01*
X0198069Y0236454D01*
X0198421Y0236135D01*
X0198765Y0235807D01*
X0199102Y0235470D01*
X0199430Y0235126D01*
X0199749Y0234774D01*
X0200061Y0234414D01*
X0200363Y0234046D01*
X0200656Y0233672D01*
X0200940Y0233291D01*
X0201215Y0232902D01*
X0201481Y0232508D01*
X0201737Y0232107D01*
X0201983Y0231700D01*
X0202219Y0231287D01*
X0202445Y0230868D01*
X0202661Y0230444D01*
X0202867Y0230015D01*
X0203062Y0229581D01*
X0203247Y0229143D01*
X0203421Y0228700D01*
X0203584Y0228254D01*
X0203737Y0227803D01*
X0203878Y0227349D01*
X0204009Y0226891D01*
X0204128Y0226431D01*
X0204236Y0225968D01*
X0204333Y0225502D01*
X0204419Y0225034D01*
X0204493Y0224564D01*
X0204556Y0224093D01*
X0204608Y0223620D01*
X0204648Y0223146D01*
X0204677Y0222671D01*
X0204694Y0222196D01*
X0204700Y0221720D01*
X0204700Y0024870D01*
X0204694Y0024394D01*
X0204677Y0023919D01*
X0204648Y0023444D01*
X0204608Y0022970D01*
X0204556Y0022497D01*
X0204493Y0022026D01*
X0204419Y0021556D01*
X0204333Y0021088D01*
X0204236Y0020622D01*
X0204128Y0020159D01*
X0204009Y0019699D01*
X0203878Y0019241D01*
X0203737Y0018787D01*
X0203584Y0018336D01*
X0203421Y0017890D01*
X0203247Y0017447D01*
X0203062Y0017009D01*
X0202867Y0016575D01*
X0202661Y0016146D01*
X0202445Y0015722D01*
X0202219Y0015303D01*
X0201983Y0014890D01*
X0201737Y0014483D01*
X0201481Y0014082D01*
X0201215Y0013688D01*
X0200940Y0013299D01*
X0200656Y0012918D01*
X0200363Y0012544D01*
X0200061Y0012176D01*
X0199749Y0011816D01*
X0199430Y0011464D01*
X0199102Y0011120D01*
X0198765Y0010783D01*
X0198421Y0010455D01*
X0198069Y0010136D01*
X0197709Y0009824D01*
X0197341Y0009522D01*
X0196967Y0009229D01*
X0196586Y0008945D01*
X0196197Y0008670D01*
X0195803Y0008404D01*
X0195402Y0008148D01*
X0194995Y0007902D01*
X0194582Y0007666D01*
X0194163Y0007440D01*
X0193739Y0007224D01*
X0193310Y0007018D01*
X0192876Y0006823D01*
X0192438Y0006638D01*
X0191995Y0006464D01*
X0191549Y0006301D01*
X0191098Y0006148D01*
X0190644Y0006007D01*
X0190186Y0005876D01*
X0189726Y0005757D01*
X0189263Y0005649D01*
X0188797Y0005552D01*
X0188329Y0005466D01*
X0187859Y0005392D01*
X0187388Y0005329D01*
X0186915Y0005277D01*
X0186441Y0005237D01*
X0185966Y0005208D01*
X0185491Y0005191D01*
X0185015Y0005185D01*
X0027535Y0005185D01*
X0027059Y0005191D01*
X0026584Y0005208D01*
X0026109Y0005237D01*
X0025635Y0005277D01*
X0025162Y0005329D01*
X0024691Y0005392D01*
X0024221Y0005466D01*
X0023753Y0005552D01*
X0023287Y0005649D01*
X0022824Y0005757D01*
X0022364Y0005876D01*
X0021906Y0006007D01*
X0021452Y0006148D01*
X0021001Y0006301D01*
X0020555Y0006464D01*
X0020112Y0006638D01*
X0019674Y0006823D01*
X0019240Y0007018D01*
X0018811Y0007224D01*
X0018387Y0007440D01*
X0017968Y0007666D01*
X0017555Y0007902D01*
X0017148Y0008148D01*
X0016747Y0008404D01*
X0016353Y0008670D01*
X0015964Y0008945D01*
X0015583Y0009229D01*
X0015209Y0009522D01*
X0014841Y0009824D01*
X0014481Y0010136D01*
X0014129Y0010455D01*
X0013785Y0010783D01*
X0013448Y0011120D01*
X0013120Y0011464D01*
X0012801Y0011816D01*
X0012489Y0012176D01*
X0012187Y0012544D01*
X0011894Y0012918D01*
X0011610Y0013299D01*
X0011335Y0013688D01*
X0011069Y0014082D01*
X0010813Y0014483D01*
X0010567Y0014890D01*
X0010331Y0015303D01*
X0010105Y0015722D01*
X0009889Y0016146D01*
X0009683Y0016575D01*
X0009488Y0017009D01*
X0009303Y0017447D01*
X0009129Y0017890D01*
X0008966Y0018336D01*
X0008813Y0018787D01*
X0008672Y0019241D01*
X0008541Y0019699D01*
X0008422Y0020159D01*
X0008314Y0020622D01*
X0008217Y0021088D01*
X0008131Y0021556D01*
X0008057Y0022026D01*
X0007994Y0022497D01*
X0007942Y0022970D01*
X0007902Y0023444D01*
X0007873Y0023919D01*
X0007856Y0024394D01*
X0007850Y0024870D01*
X0021944Y0025185D02*
X0021946Y0025338D01*
X0021952Y0025492D01*
X0021962Y0025645D01*
X0021976Y0025797D01*
X0021994Y0025950D01*
X0022016Y0026101D01*
X0022041Y0026252D01*
X0022071Y0026403D01*
X0022105Y0026553D01*
X0022142Y0026701D01*
X0022183Y0026849D01*
X0022228Y0026995D01*
X0022277Y0027141D01*
X0022330Y0027285D01*
X0022386Y0027427D01*
X0022446Y0027568D01*
X0022510Y0027708D01*
X0022577Y0027846D01*
X0022648Y0027982D01*
X0022723Y0028116D01*
X0022800Y0028248D01*
X0022882Y0028378D01*
X0022966Y0028506D01*
X0023054Y0028632D01*
X0023145Y0028755D01*
X0023239Y0028876D01*
X0023337Y0028994D01*
X0023437Y0029110D01*
X0023541Y0029223D01*
X0023647Y0029334D01*
X0023756Y0029442D01*
X0023868Y0029547D01*
X0023982Y0029648D01*
X0024100Y0029747D01*
X0024219Y0029843D01*
X0024341Y0029936D01*
X0024466Y0030025D01*
X0024593Y0030112D01*
X0024722Y0030194D01*
X0024853Y0030274D01*
X0024986Y0030350D01*
X0025121Y0030423D01*
X0025258Y0030492D01*
X0025397Y0030557D01*
X0025537Y0030619D01*
X0025679Y0030677D01*
X0025822Y0030732D01*
X0025967Y0030783D01*
X0026113Y0030830D01*
X0026260Y0030873D01*
X0026408Y0030912D01*
X0026557Y0030948D01*
X0026707Y0030979D01*
X0026858Y0031007D01*
X0027009Y0031031D01*
X0027162Y0031051D01*
X0027314Y0031067D01*
X0027467Y0031079D01*
X0027620Y0031087D01*
X0027773Y0031091D01*
X0027927Y0031091D01*
X0028080Y0031087D01*
X0028233Y0031079D01*
X0028386Y0031067D01*
X0028538Y0031051D01*
X0028691Y0031031D01*
X0028842Y0031007D01*
X0028993Y0030979D01*
X0029143Y0030948D01*
X0029292Y0030912D01*
X0029440Y0030873D01*
X0029587Y0030830D01*
X0029733Y0030783D01*
X0029878Y0030732D01*
X0030021Y0030677D01*
X0030163Y0030619D01*
X0030303Y0030557D01*
X0030442Y0030492D01*
X0030579Y0030423D01*
X0030714Y0030350D01*
X0030847Y0030274D01*
X0030978Y0030194D01*
X0031107Y0030112D01*
X0031234Y0030025D01*
X0031359Y0029936D01*
X0031481Y0029843D01*
X0031600Y0029747D01*
X0031718Y0029648D01*
X0031832Y0029547D01*
X0031944Y0029442D01*
X0032053Y0029334D01*
X0032159Y0029223D01*
X0032263Y0029110D01*
X0032363Y0028994D01*
X0032461Y0028876D01*
X0032555Y0028755D01*
X0032646Y0028632D01*
X0032734Y0028506D01*
X0032818Y0028378D01*
X0032900Y0028248D01*
X0032977Y0028116D01*
X0033052Y0027982D01*
X0033123Y0027846D01*
X0033190Y0027708D01*
X0033254Y0027568D01*
X0033314Y0027427D01*
X0033370Y0027285D01*
X0033423Y0027141D01*
X0033472Y0026995D01*
X0033517Y0026849D01*
X0033558Y0026701D01*
X0033595Y0026553D01*
X0033629Y0026403D01*
X0033659Y0026252D01*
X0033684Y0026101D01*
X0033706Y0025950D01*
X0033724Y0025797D01*
X0033738Y0025645D01*
X0033748Y0025492D01*
X0033754Y0025338D01*
X0033756Y0025185D01*
X0033754Y0025032D01*
X0033748Y0024878D01*
X0033738Y0024725D01*
X0033724Y0024573D01*
X0033706Y0024420D01*
X0033684Y0024269D01*
X0033659Y0024118D01*
X0033629Y0023967D01*
X0033595Y0023817D01*
X0033558Y0023669D01*
X0033517Y0023521D01*
X0033472Y0023375D01*
X0033423Y0023229D01*
X0033370Y0023085D01*
X0033314Y0022943D01*
X0033254Y0022802D01*
X0033190Y0022662D01*
X0033123Y0022524D01*
X0033052Y0022388D01*
X0032977Y0022254D01*
X0032900Y0022122D01*
X0032818Y0021992D01*
X0032734Y0021864D01*
X0032646Y0021738D01*
X0032555Y0021615D01*
X0032461Y0021494D01*
X0032363Y0021376D01*
X0032263Y0021260D01*
X0032159Y0021147D01*
X0032053Y0021036D01*
X0031944Y0020928D01*
X0031832Y0020823D01*
X0031718Y0020722D01*
X0031600Y0020623D01*
X0031481Y0020527D01*
X0031359Y0020434D01*
X0031234Y0020345D01*
X0031107Y0020258D01*
X0030978Y0020176D01*
X0030847Y0020096D01*
X0030714Y0020020D01*
X0030579Y0019947D01*
X0030442Y0019878D01*
X0030303Y0019813D01*
X0030163Y0019751D01*
X0030021Y0019693D01*
X0029878Y0019638D01*
X0029733Y0019587D01*
X0029587Y0019540D01*
X0029440Y0019497D01*
X0029292Y0019458D01*
X0029143Y0019422D01*
X0028993Y0019391D01*
X0028842Y0019363D01*
X0028691Y0019339D01*
X0028538Y0019319D01*
X0028386Y0019303D01*
X0028233Y0019291D01*
X0028080Y0019283D01*
X0027927Y0019279D01*
X0027773Y0019279D01*
X0027620Y0019283D01*
X0027467Y0019291D01*
X0027314Y0019303D01*
X0027162Y0019319D01*
X0027009Y0019339D01*
X0026858Y0019363D01*
X0026707Y0019391D01*
X0026557Y0019422D01*
X0026408Y0019458D01*
X0026260Y0019497D01*
X0026113Y0019540D01*
X0025967Y0019587D01*
X0025822Y0019638D01*
X0025679Y0019693D01*
X0025537Y0019751D01*
X0025397Y0019813D01*
X0025258Y0019878D01*
X0025121Y0019947D01*
X0024986Y0020020D01*
X0024853Y0020096D01*
X0024722Y0020176D01*
X0024593Y0020258D01*
X0024466Y0020345D01*
X0024341Y0020434D01*
X0024219Y0020527D01*
X0024100Y0020623D01*
X0023982Y0020722D01*
X0023868Y0020823D01*
X0023756Y0020928D01*
X0023647Y0021036D01*
X0023541Y0021147D01*
X0023437Y0021260D01*
X0023337Y0021376D01*
X0023239Y0021494D01*
X0023145Y0021615D01*
X0023054Y0021738D01*
X0022966Y0021864D01*
X0022882Y0021992D01*
X0022800Y0022122D01*
X0022723Y0022254D01*
X0022648Y0022388D01*
X0022577Y0022524D01*
X0022510Y0022662D01*
X0022446Y0022802D01*
X0022386Y0022943D01*
X0022330Y0023085D01*
X0022277Y0023229D01*
X0022228Y0023375D01*
X0022183Y0023521D01*
X0022142Y0023669D01*
X0022105Y0023817D01*
X0022071Y0023967D01*
X0022041Y0024118D01*
X0022016Y0024269D01*
X0021994Y0024420D01*
X0021976Y0024573D01*
X0021962Y0024725D01*
X0021952Y0024878D01*
X0021946Y0025032D01*
X0021944Y0025185D01*
X0176944Y0025185D02*
X0176946Y0025338D01*
X0176952Y0025492D01*
X0176962Y0025645D01*
X0176976Y0025797D01*
X0176994Y0025950D01*
X0177016Y0026101D01*
X0177041Y0026252D01*
X0177071Y0026403D01*
X0177105Y0026553D01*
X0177142Y0026701D01*
X0177183Y0026849D01*
X0177228Y0026995D01*
X0177277Y0027141D01*
X0177330Y0027285D01*
X0177386Y0027427D01*
X0177446Y0027568D01*
X0177510Y0027708D01*
X0177577Y0027846D01*
X0177648Y0027982D01*
X0177723Y0028116D01*
X0177800Y0028248D01*
X0177882Y0028378D01*
X0177966Y0028506D01*
X0178054Y0028632D01*
X0178145Y0028755D01*
X0178239Y0028876D01*
X0178337Y0028994D01*
X0178437Y0029110D01*
X0178541Y0029223D01*
X0178647Y0029334D01*
X0178756Y0029442D01*
X0178868Y0029547D01*
X0178982Y0029648D01*
X0179100Y0029747D01*
X0179219Y0029843D01*
X0179341Y0029936D01*
X0179466Y0030025D01*
X0179593Y0030112D01*
X0179722Y0030194D01*
X0179853Y0030274D01*
X0179986Y0030350D01*
X0180121Y0030423D01*
X0180258Y0030492D01*
X0180397Y0030557D01*
X0180537Y0030619D01*
X0180679Y0030677D01*
X0180822Y0030732D01*
X0180967Y0030783D01*
X0181113Y0030830D01*
X0181260Y0030873D01*
X0181408Y0030912D01*
X0181557Y0030948D01*
X0181707Y0030979D01*
X0181858Y0031007D01*
X0182009Y0031031D01*
X0182162Y0031051D01*
X0182314Y0031067D01*
X0182467Y0031079D01*
X0182620Y0031087D01*
X0182773Y0031091D01*
X0182927Y0031091D01*
X0183080Y0031087D01*
X0183233Y0031079D01*
X0183386Y0031067D01*
X0183538Y0031051D01*
X0183691Y0031031D01*
X0183842Y0031007D01*
X0183993Y0030979D01*
X0184143Y0030948D01*
X0184292Y0030912D01*
X0184440Y0030873D01*
X0184587Y0030830D01*
X0184733Y0030783D01*
X0184878Y0030732D01*
X0185021Y0030677D01*
X0185163Y0030619D01*
X0185303Y0030557D01*
X0185442Y0030492D01*
X0185579Y0030423D01*
X0185714Y0030350D01*
X0185847Y0030274D01*
X0185978Y0030194D01*
X0186107Y0030112D01*
X0186234Y0030025D01*
X0186359Y0029936D01*
X0186481Y0029843D01*
X0186600Y0029747D01*
X0186718Y0029648D01*
X0186832Y0029547D01*
X0186944Y0029442D01*
X0187053Y0029334D01*
X0187159Y0029223D01*
X0187263Y0029110D01*
X0187363Y0028994D01*
X0187461Y0028876D01*
X0187555Y0028755D01*
X0187646Y0028632D01*
X0187734Y0028506D01*
X0187818Y0028378D01*
X0187900Y0028248D01*
X0187977Y0028116D01*
X0188052Y0027982D01*
X0188123Y0027846D01*
X0188190Y0027708D01*
X0188254Y0027568D01*
X0188314Y0027427D01*
X0188370Y0027285D01*
X0188423Y0027141D01*
X0188472Y0026995D01*
X0188517Y0026849D01*
X0188558Y0026701D01*
X0188595Y0026553D01*
X0188629Y0026403D01*
X0188659Y0026252D01*
X0188684Y0026101D01*
X0188706Y0025950D01*
X0188724Y0025797D01*
X0188738Y0025645D01*
X0188748Y0025492D01*
X0188754Y0025338D01*
X0188756Y0025185D01*
X0188754Y0025032D01*
X0188748Y0024878D01*
X0188738Y0024725D01*
X0188724Y0024573D01*
X0188706Y0024420D01*
X0188684Y0024269D01*
X0188659Y0024118D01*
X0188629Y0023967D01*
X0188595Y0023817D01*
X0188558Y0023669D01*
X0188517Y0023521D01*
X0188472Y0023375D01*
X0188423Y0023229D01*
X0188370Y0023085D01*
X0188314Y0022943D01*
X0188254Y0022802D01*
X0188190Y0022662D01*
X0188123Y0022524D01*
X0188052Y0022388D01*
X0187977Y0022254D01*
X0187900Y0022122D01*
X0187818Y0021992D01*
X0187734Y0021864D01*
X0187646Y0021738D01*
X0187555Y0021615D01*
X0187461Y0021494D01*
X0187363Y0021376D01*
X0187263Y0021260D01*
X0187159Y0021147D01*
X0187053Y0021036D01*
X0186944Y0020928D01*
X0186832Y0020823D01*
X0186718Y0020722D01*
X0186600Y0020623D01*
X0186481Y0020527D01*
X0186359Y0020434D01*
X0186234Y0020345D01*
X0186107Y0020258D01*
X0185978Y0020176D01*
X0185847Y0020096D01*
X0185714Y0020020D01*
X0185579Y0019947D01*
X0185442Y0019878D01*
X0185303Y0019813D01*
X0185163Y0019751D01*
X0185021Y0019693D01*
X0184878Y0019638D01*
X0184733Y0019587D01*
X0184587Y0019540D01*
X0184440Y0019497D01*
X0184292Y0019458D01*
X0184143Y0019422D01*
X0183993Y0019391D01*
X0183842Y0019363D01*
X0183691Y0019339D01*
X0183538Y0019319D01*
X0183386Y0019303D01*
X0183233Y0019291D01*
X0183080Y0019283D01*
X0182927Y0019279D01*
X0182773Y0019279D01*
X0182620Y0019283D01*
X0182467Y0019291D01*
X0182314Y0019303D01*
X0182162Y0019319D01*
X0182009Y0019339D01*
X0181858Y0019363D01*
X0181707Y0019391D01*
X0181557Y0019422D01*
X0181408Y0019458D01*
X0181260Y0019497D01*
X0181113Y0019540D01*
X0180967Y0019587D01*
X0180822Y0019638D01*
X0180679Y0019693D01*
X0180537Y0019751D01*
X0180397Y0019813D01*
X0180258Y0019878D01*
X0180121Y0019947D01*
X0179986Y0020020D01*
X0179853Y0020096D01*
X0179722Y0020176D01*
X0179593Y0020258D01*
X0179466Y0020345D01*
X0179341Y0020434D01*
X0179219Y0020527D01*
X0179100Y0020623D01*
X0178982Y0020722D01*
X0178868Y0020823D01*
X0178756Y0020928D01*
X0178647Y0021036D01*
X0178541Y0021147D01*
X0178437Y0021260D01*
X0178337Y0021376D01*
X0178239Y0021494D01*
X0178145Y0021615D01*
X0178054Y0021738D01*
X0177966Y0021864D01*
X0177882Y0021992D01*
X0177800Y0022122D01*
X0177723Y0022254D01*
X0177648Y0022388D01*
X0177577Y0022524D01*
X0177510Y0022662D01*
X0177446Y0022802D01*
X0177386Y0022943D01*
X0177330Y0023085D01*
X0177277Y0023229D01*
X0177228Y0023375D01*
X0177183Y0023521D01*
X0177142Y0023669D01*
X0177105Y0023817D01*
X0177071Y0023967D01*
X0177041Y0024118D01*
X0177016Y0024269D01*
X0176994Y0024420D01*
X0176976Y0024573D01*
X0176962Y0024725D01*
X0176952Y0024878D01*
X0176946Y0025032D01*
X0176944Y0025185D01*
X0176944Y0220185D02*
X0176946Y0220338D01*
X0176952Y0220492D01*
X0176962Y0220645D01*
X0176976Y0220797D01*
X0176994Y0220950D01*
X0177016Y0221101D01*
X0177041Y0221252D01*
X0177071Y0221403D01*
X0177105Y0221553D01*
X0177142Y0221701D01*
X0177183Y0221849D01*
X0177228Y0221995D01*
X0177277Y0222141D01*
X0177330Y0222285D01*
X0177386Y0222427D01*
X0177446Y0222568D01*
X0177510Y0222708D01*
X0177577Y0222846D01*
X0177648Y0222982D01*
X0177723Y0223116D01*
X0177800Y0223248D01*
X0177882Y0223378D01*
X0177966Y0223506D01*
X0178054Y0223632D01*
X0178145Y0223755D01*
X0178239Y0223876D01*
X0178337Y0223994D01*
X0178437Y0224110D01*
X0178541Y0224223D01*
X0178647Y0224334D01*
X0178756Y0224442D01*
X0178868Y0224547D01*
X0178982Y0224648D01*
X0179100Y0224747D01*
X0179219Y0224843D01*
X0179341Y0224936D01*
X0179466Y0225025D01*
X0179593Y0225112D01*
X0179722Y0225194D01*
X0179853Y0225274D01*
X0179986Y0225350D01*
X0180121Y0225423D01*
X0180258Y0225492D01*
X0180397Y0225557D01*
X0180537Y0225619D01*
X0180679Y0225677D01*
X0180822Y0225732D01*
X0180967Y0225783D01*
X0181113Y0225830D01*
X0181260Y0225873D01*
X0181408Y0225912D01*
X0181557Y0225948D01*
X0181707Y0225979D01*
X0181858Y0226007D01*
X0182009Y0226031D01*
X0182162Y0226051D01*
X0182314Y0226067D01*
X0182467Y0226079D01*
X0182620Y0226087D01*
X0182773Y0226091D01*
X0182927Y0226091D01*
X0183080Y0226087D01*
X0183233Y0226079D01*
X0183386Y0226067D01*
X0183538Y0226051D01*
X0183691Y0226031D01*
X0183842Y0226007D01*
X0183993Y0225979D01*
X0184143Y0225948D01*
X0184292Y0225912D01*
X0184440Y0225873D01*
X0184587Y0225830D01*
X0184733Y0225783D01*
X0184878Y0225732D01*
X0185021Y0225677D01*
X0185163Y0225619D01*
X0185303Y0225557D01*
X0185442Y0225492D01*
X0185579Y0225423D01*
X0185714Y0225350D01*
X0185847Y0225274D01*
X0185978Y0225194D01*
X0186107Y0225112D01*
X0186234Y0225025D01*
X0186359Y0224936D01*
X0186481Y0224843D01*
X0186600Y0224747D01*
X0186718Y0224648D01*
X0186832Y0224547D01*
X0186944Y0224442D01*
X0187053Y0224334D01*
X0187159Y0224223D01*
X0187263Y0224110D01*
X0187363Y0223994D01*
X0187461Y0223876D01*
X0187555Y0223755D01*
X0187646Y0223632D01*
X0187734Y0223506D01*
X0187818Y0223378D01*
X0187900Y0223248D01*
X0187977Y0223116D01*
X0188052Y0222982D01*
X0188123Y0222846D01*
X0188190Y0222708D01*
X0188254Y0222568D01*
X0188314Y0222427D01*
X0188370Y0222285D01*
X0188423Y0222141D01*
X0188472Y0221995D01*
X0188517Y0221849D01*
X0188558Y0221701D01*
X0188595Y0221553D01*
X0188629Y0221403D01*
X0188659Y0221252D01*
X0188684Y0221101D01*
X0188706Y0220950D01*
X0188724Y0220797D01*
X0188738Y0220645D01*
X0188748Y0220492D01*
X0188754Y0220338D01*
X0188756Y0220185D01*
X0188754Y0220032D01*
X0188748Y0219878D01*
X0188738Y0219725D01*
X0188724Y0219573D01*
X0188706Y0219420D01*
X0188684Y0219269D01*
X0188659Y0219118D01*
X0188629Y0218967D01*
X0188595Y0218817D01*
X0188558Y0218669D01*
X0188517Y0218521D01*
X0188472Y0218375D01*
X0188423Y0218229D01*
X0188370Y0218085D01*
X0188314Y0217943D01*
X0188254Y0217802D01*
X0188190Y0217662D01*
X0188123Y0217524D01*
X0188052Y0217388D01*
X0187977Y0217254D01*
X0187900Y0217122D01*
X0187818Y0216992D01*
X0187734Y0216864D01*
X0187646Y0216738D01*
X0187555Y0216615D01*
X0187461Y0216494D01*
X0187363Y0216376D01*
X0187263Y0216260D01*
X0187159Y0216147D01*
X0187053Y0216036D01*
X0186944Y0215928D01*
X0186832Y0215823D01*
X0186718Y0215722D01*
X0186600Y0215623D01*
X0186481Y0215527D01*
X0186359Y0215434D01*
X0186234Y0215345D01*
X0186107Y0215258D01*
X0185978Y0215176D01*
X0185847Y0215096D01*
X0185714Y0215020D01*
X0185579Y0214947D01*
X0185442Y0214878D01*
X0185303Y0214813D01*
X0185163Y0214751D01*
X0185021Y0214693D01*
X0184878Y0214638D01*
X0184733Y0214587D01*
X0184587Y0214540D01*
X0184440Y0214497D01*
X0184292Y0214458D01*
X0184143Y0214422D01*
X0183993Y0214391D01*
X0183842Y0214363D01*
X0183691Y0214339D01*
X0183538Y0214319D01*
X0183386Y0214303D01*
X0183233Y0214291D01*
X0183080Y0214283D01*
X0182927Y0214279D01*
X0182773Y0214279D01*
X0182620Y0214283D01*
X0182467Y0214291D01*
X0182314Y0214303D01*
X0182162Y0214319D01*
X0182009Y0214339D01*
X0181858Y0214363D01*
X0181707Y0214391D01*
X0181557Y0214422D01*
X0181408Y0214458D01*
X0181260Y0214497D01*
X0181113Y0214540D01*
X0180967Y0214587D01*
X0180822Y0214638D01*
X0180679Y0214693D01*
X0180537Y0214751D01*
X0180397Y0214813D01*
X0180258Y0214878D01*
X0180121Y0214947D01*
X0179986Y0215020D01*
X0179853Y0215096D01*
X0179722Y0215176D01*
X0179593Y0215258D01*
X0179466Y0215345D01*
X0179341Y0215434D01*
X0179219Y0215527D01*
X0179100Y0215623D01*
X0178982Y0215722D01*
X0178868Y0215823D01*
X0178756Y0215928D01*
X0178647Y0216036D01*
X0178541Y0216147D01*
X0178437Y0216260D01*
X0178337Y0216376D01*
X0178239Y0216494D01*
X0178145Y0216615D01*
X0178054Y0216738D01*
X0177966Y0216864D01*
X0177882Y0216992D01*
X0177800Y0217122D01*
X0177723Y0217254D01*
X0177648Y0217388D01*
X0177577Y0217524D01*
X0177510Y0217662D01*
X0177446Y0217802D01*
X0177386Y0217943D01*
X0177330Y0218085D01*
X0177277Y0218229D01*
X0177228Y0218375D01*
X0177183Y0218521D01*
X0177142Y0218669D01*
X0177105Y0218817D01*
X0177071Y0218967D01*
X0177041Y0219118D01*
X0177016Y0219269D01*
X0176994Y0219420D01*
X0176976Y0219573D01*
X0176962Y0219725D01*
X0176952Y0219878D01*
X0176946Y0220032D01*
X0176944Y0220185D01*
X0021944Y0220185D02*
X0021946Y0220338D01*
X0021952Y0220492D01*
X0021962Y0220645D01*
X0021976Y0220797D01*
X0021994Y0220950D01*
X0022016Y0221101D01*
X0022041Y0221252D01*
X0022071Y0221403D01*
X0022105Y0221553D01*
X0022142Y0221701D01*
X0022183Y0221849D01*
X0022228Y0221995D01*
X0022277Y0222141D01*
X0022330Y0222285D01*
X0022386Y0222427D01*
X0022446Y0222568D01*
X0022510Y0222708D01*
X0022577Y0222846D01*
X0022648Y0222982D01*
X0022723Y0223116D01*
X0022800Y0223248D01*
X0022882Y0223378D01*
X0022966Y0223506D01*
X0023054Y0223632D01*
X0023145Y0223755D01*
X0023239Y0223876D01*
X0023337Y0223994D01*
X0023437Y0224110D01*
X0023541Y0224223D01*
X0023647Y0224334D01*
X0023756Y0224442D01*
X0023868Y0224547D01*
X0023982Y0224648D01*
X0024100Y0224747D01*
X0024219Y0224843D01*
X0024341Y0224936D01*
X0024466Y0225025D01*
X0024593Y0225112D01*
X0024722Y0225194D01*
X0024853Y0225274D01*
X0024986Y0225350D01*
X0025121Y0225423D01*
X0025258Y0225492D01*
X0025397Y0225557D01*
X0025537Y0225619D01*
X0025679Y0225677D01*
X0025822Y0225732D01*
X0025967Y0225783D01*
X0026113Y0225830D01*
X0026260Y0225873D01*
X0026408Y0225912D01*
X0026557Y0225948D01*
X0026707Y0225979D01*
X0026858Y0226007D01*
X0027009Y0226031D01*
X0027162Y0226051D01*
X0027314Y0226067D01*
X0027467Y0226079D01*
X0027620Y0226087D01*
X0027773Y0226091D01*
X0027927Y0226091D01*
X0028080Y0226087D01*
X0028233Y0226079D01*
X0028386Y0226067D01*
X0028538Y0226051D01*
X0028691Y0226031D01*
X0028842Y0226007D01*
X0028993Y0225979D01*
X0029143Y0225948D01*
X0029292Y0225912D01*
X0029440Y0225873D01*
X0029587Y0225830D01*
X0029733Y0225783D01*
X0029878Y0225732D01*
X0030021Y0225677D01*
X0030163Y0225619D01*
X0030303Y0225557D01*
X0030442Y0225492D01*
X0030579Y0225423D01*
X0030714Y0225350D01*
X0030847Y0225274D01*
X0030978Y0225194D01*
X0031107Y0225112D01*
X0031234Y0225025D01*
X0031359Y0224936D01*
X0031481Y0224843D01*
X0031600Y0224747D01*
X0031718Y0224648D01*
X0031832Y0224547D01*
X0031944Y0224442D01*
X0032053Y0224334D01*
X0032159Y0224223D01*
X0032263Y0224110D01*
X0032363Y0223994D01*
X0032461Y0223876D01*
X0032555Y0223755D01*
X0032646Y0223632D01*
X0032734Y0223506D01*
X0032818Y0223378D01*
X0032900Y0223248D01*
X0032977Y0223116D01*
X0033052Y0222982D01*
X0033123Y0222846D01*
X0033190Y0222708D01*
X0033254Y0222568D01*
X0033314Y0222427D01*
X0033370Y0222285D01*
X0033423Y0222141D01*
X0033472Y0221995D01*
X0033517Y0221849D01*
X0033558Y0221701D01*
X0033595Y0221553D01*
X0033629Y0221403D01*
X0033659Y0221252D01*
X0033684Y0221101D01*
X0033706Y0220950D01*
X0033724Y0220797D01*
X0033738Y0220645D01*
X0033748Y0220492D01*
X0033754Y0220338D01*
X0033756Y0220185D01*
X0033754Y0220032D01*
X0033748Y0219878D01*
X0033738Y0219725D01*
X0033724Y0219573D01*
X0033706Y0219420D01*
X0033684Y0219269D01*
X0033659Y0219118D01*
X0033629Y0218967D01*
X0033595Y0218817D01*
X0033558Y0218669D01*
X0033517Y0218521D01*
X0033472Y0218375D01*
X0033423Y0218229D01*
X0033370Y0218085D01*
X0033314Y0217943D01*
X0033254Y0217802D01*
X0033190Y0217662D01*
X0033123Y0217524D01*
X0033052Y0217388D01*
X0032977Y0217254D01*
X0032900Y0217122D01*
X0032818Y0216992D01*
X0032734Y0216864D01*
X0032646Y0216738D01*
X0032555Y0216615D01*
X0032461Y0216494D01*
X0032363Y0216376D01*
X0032263Y0216260D01*
X0032159Y0216147D01*
X0032053Y0216036D01*
X0031944Y0215928D01*
X0031832Y0215823D01*
X0031718Y0215722D01*
X0031600Y0215623D01*
X0031481Y0215527D01*
X0031359Y0215434D01*
X0031234Y0215345D01*
X0031107Y0215258D01*
X0030978Y0215176D01*
X0030847Y0215096D01*
X0030714Y0215020D01*
X0030579Y0214947D01*
X0030442Y0214878D01*
X0030303Y0214813D01*
X0030163Y0214751D01*
X0030021Y0214693D01*
X0029878Y0214638D01*
X0029733Y0214587D01*
X0029587Y0214540D01*
X0029440Y0214497D01*
X0029292Y0214458D01*
X0029143Y0214422D01*
X0028993Y0214391D01*
X0028842Y0214363D01*
X0028691Y0214339D01*
X0028538Y0214319D01*
X0028386Y0214303D01*
X0028233Y0214291D01*
X0028080Y0214283D01*
X0027927Y0214279D01*
X0027773Y0214279D01*
X0027620Y0214283D01*
X0027467Y0214291D01*
X0027314Y0214303D01*
X0027162Y0214319D01*
X0027009Y0214339D01*
X0026858Y0214363D01*
X0026707Y0214391D01*
X0026557Y0214422D01*
X0026408Y0214458D01*
X0026260Y0214497D01*
X0026113Y0214540D01*
X0025967Y0214587D01*
X0025822Y0214638D01*
X0025679Y0214693D01*
X0025537Y0214751D01*
X0025397Y0214813D01*
X0025258Y0214878D01*
X0025121Y0214947D01*
X0024986Y0215020D01*
X0024853Y0215096D01*
X0024722Y0215176D01*
X0024593Y0215258D01*
X0024466Y0215345D01*
X0024341Y0215434D01*
X0024219Y0215527D01*
X0024100Y0215623D01*
X0023982Y0215722D01*
X0023868Y0215823D01*
X0023756Y0215928D01*
X0023647Y0216036D01*
X0023541Y0216147D01*
X0023437Y0216260D01*
X0023337Y0216376D01*
X0023239Y0216494D01*
X0023145Y0216615D01*
X0023054Y0216738D01*
X0022966Y0216864D01*
X0022882Y0216992D01*
X0022800Y0217122D01*
X0022723Y0217254D01*
X0022648Y0217388D01*
X0022577Y0217524D01*
X0022510Y0217662D01*
X0022446Y0217802D01*
X0022386Y0217943D01*
X0022330Y0218085D01*
X0022277Y0218229D01*
X0022228Y0218375D01*
X0022183Y0218521D01*
X0022142Y0218669D01*
X0022105Y0218817D01*
X0022071Y0218967D01*
X0022041Y0219118D01*
X0022016Y0219269D01*
X0021994Y0219420D01*
X0021976Y0219573D01*
X0021962Y0219725D01*
X0021952Y0219878D01*
X0021946Y0220032D01*
X0021944Y0220185D01*
D11*
X0019850Y0190185D02*
X0025850Y0190185D01*
X0025850Y0180185D02*
X0019850Y0180185D01*
X0019850Y0170185D02*
X0025850Y0170185D01*
X0025850Y0160185D02*
X0019850Y0160185D01*
X0037350Y0160185D02*
X0043350Y0160185D01*
X0043350Y0170185D02*
X0037350Y0170185D01*
X0037350Y0180185D02*
X0043350Y0180185D01*
X0087850Y0197185D02*
X0087850Y0203185D01*
X0087850Y0212185D02*
X0087850Y0218185D01*
X0087850Y0227185D02*
X0087850Y0233185D01*
X0097850Y0233185D02*
X0097850Y0227185D01*
X0097850Y0218185D02*
X0097850Y0212185D01*
X0097850Y0203185D02*
X0097850Y0197185D01*
X0107850Y0197185D02*
X0107850Y0203185D01*
X0107850Y0212185D02*
X0107850Y0218185D01*
X0107850Y0227185D02*
X0107850Y0233185D01*
X0117850Y0233185D02*
X0117850Y0227185D01*
X0117850Y0218185D02*
X0117850Y0212185D01*
X0117850Y0203185D02*
X0117850Y0197185D01*
X0127850Y0197185D02*
X0127850Y0203185D01*
X0127850Y0212185D02*
X0127850Y0218185D01*
X0127850Y0227185D02*
X0127850Y0233185D01*
X0137850Y0233185D02*
X0137850Y0227185D01*
X0137850Y0218185D02*
X0137850Y0212185D01*
X0137850Y0203185D02*
X0137850Y0197185D01*
X0147850Y0197185D02*
X0147850Y0203185D01*
X0147850Y0212185D02*
X0147850Y0218185D01*
X0147850Y0227185D02*
X0147850Y0233185D01*
X0157850Y0233185D02*
X0157850Y0227185D01*
X0157850Y0218185D02*
X0157850Y0212185D01*
X0157850Y0203185D02*
X0157850Y0197185D01*
X0157350Y0035185D02*
X0163350Y0035185D01*
X0163350Y0025185D02*
X0157350Y0025185D01*
X0157350Y0015185D02*
X0163350Y0015185D01*
X0136600Y0012185D02*
X0136600Y0018185D01*
X0126600Y0018185D02*
X0126600Y0012185D01*
X0116600Y0012185D02*
X0116600Y0018185D01*
X0106600Y0018185D02*
X0106600Y0012185D01*
D12*
X0111256Y0117685D03*
X0099444Y0117685D03*
X0099444Y0130185D03*
X0111256Y0130185D03*
X0136944Y0125185D03*
X0148756Y0125185D03*
X0072506Y0125185D03*
X0060694Y0125185D03*
D13*
X0060763Y0067685D03*
X0074937Y0067685D03*
X0135763Y0067685D03*
X0149937Y0067685D03*
D14*
X0116850Y0091185D03*
X0116850Y0093785D03*
X0116850Y0096385D03*
X0116850Y0098885D03*
X0116850Y0101485D03*
X0116850Y0103985D03*
X0116850Y0106585D03*
X0116850Y0109185D03*
X0093850Y0109185D03*
X0093850Y0106585D03*
X0093850Y0103985D03*
X0093850Y0101485D03*
X0093850Y0098885D03*
X0093850Y0096385D03*
X0093850Y0093785D03*
X0093850Y0091185D03*
D15*
X0106600Y0038069D03*
X0106600Y0029801D03*
X0116600Y0029801D03*
X0116600Y0038069D03*
X0126600Y0038069D03*
X0126600Y0029801D03*
X0136600Y0029801D03*
X0136600Y0038069D03*
X0068234Y0216435D03*
X0059966Y0216435D03*
D16*
X0029484Y0135028D02*
X0021216Y0135028D01*
X0021216Y0115343D02*
X0029484Y0115343D01*
X0029484Y0080028D02*
X0021216Y0080028D01*
X0021216Y0060343D02*
X0029484Y0060343D01*
X0060507Y0026819D02*
X0060507Y0018551D01*
X0080193Y0018551D02*
X0080193Y0026819D01*
X0182466Y0060343D02*
X0190734Y0060343D01*
X0190734Y0080028D02*
X0182466Y0080028D01*
X0182466Y0115343D02*
X0190734Y0115343D01*
X0190734Y0135028D02*
X0182466Y0135028D01*
D17*
X0157244Y0114260D03*
X0157244Y0111701D03*
X0157244Y0109142D03*
X0157244Y0106583D03*
X0157244Y0104024D03*
X0157244Y0101465D03*
X0157244Y0098906D03*
X0157244Y0096346D03*
X0157244Y0093787D03*
X0157244Y0091228D03*
X0157244Y0088669D03*
X0157244Y0086110D03*
X0128456Y0086110D03*
X0128456Y0088669D03*
X0128456Y0091228D03*
X0128456Y0093787D03*
X0128456Y0096346D03*
X0128456Y0098906D03*
X0128456Y0101465D03*
X0128456Y0104024D03*
X0128456Y0106583D03*
X0128456Y0109142D03*
X0128456Y0111701D03*
X0128456Y0114260D03*
X0082244Y0114260D03*
X0082244Y0111701D03*
X0082244Y0109142D03*
X0082244Y0106583D03*
X0082244Y0104024D03*
X0082244Y0101465D03*
X0082244Y0098906D03*
X0082244Y0096346D03*
X0082244Y0093787D03*
X0082244Y0091228D03*
X0082244Y0088669D03*
X0082244Y0086110D03*
X0053456Y0086110D03*
X0053456Y0088669D03*
X0053456Y0091228D03*
X0053456Y0093787D03*
X0053456Y0096346D03*
X0053456Y0098906D03*
X0053456Y0101465D03*
X0053456Y0104024D03*
X0053456Y0106583D03*
X0053456Y0109142D03*
X0053456Y0111701D03*
X0053456Y0114260D03*
D18*
X0061002Y0228935D03*
X0072198Y0228935D03*
D19*
X0067850Y0195783D03*
X0067850Y0184587D03*
X0067850Y0173283D03*
X0067850Y0162087D03*
X0055350Y0162087D03*
X0055350Y0173283D03*
X0055350Y0184587D03*
X0055350Y0195783D03*
D20*
X0027850Y0220185D03*
X0182850Y0220185D03*
X0182850Y0025185D03*
X0027850Y0025185D03*
D21*
X0143750Y0156735D03*
X0152850Y0156735D03*
X0161950Y0156735D03*
D22*
X0152850Y0181136D03*
D23*
X0121600Y0177134D03*
X0121600Y0158236D03*
X0184100Y0158236D03*
X0184100Y0177134D03*
D24*
X0100350Y0172341D03*
X0100350Y0160530D03*
D25*
X0095350Y0062685D03*
D26*
X0106600Y0047685D03*
X0116600Y0047685D03*
X0126600Y0047685D03*
X0136600Y0047685D03*
X0142459Y0061826D03*
X0154100Y0078935D03*
X0159100Y0076435D03*
X0150350Y0101435D03*
X0139100Y0107685D03*
X0135376Y0101461D03*
X0139100Y0117685D03*
X0129100Y0121435D03*
X0121600Y0116435D03*
X0116600Y0116435D03*
X0116600Y0123935D03*
X0111256Y0123935D03*
X0110350Y0106435D03*
X0107850Y0102874D03*
X0092850Y0125185D03*
X0096600Y0146435D03*
X0099100Y0150185D03*
X0116600Y0158236D03*
X0121600Y0148935D03*
X0120350Y0145185D03*
X0139100Y0141624D03*
X0145350Y0139124D03*
X0157850Y0128935D03*
X0155350Y0122685D03*
X0125350Y0186435D03*
X0084100Y0172685D03*
X0067850Y0178935D03*
X0055350Y0155185D03*
X0054100Y0148935D03*
X0067850Y0113935D03*
D27*
X0076600Y0207685D03*
X0161950Y0165535D03*
D28*
X0122850Y0111435D03*
X0135350Y0097685D03*
X0121600Y0077685D03*
X0121600Y0047685D03*
X0111600Y0047685D03*
X0101600Y0047685D03*
X0096600Y0047685D03*
X0075350Y0080185D03*
X0089100Y0082685D03*
X0076600Y0111435D03*
X0076600Y0116435D03*
M02*
